DBRep_DrawableShape

CASCADE Topology V1, (c) Matra-Datavision
Locations 0
Curve2ds 48
7 0 0  2 3 2  0.0 0.010869565217392067  0.0 0.5000000000000003  0.0 0.9891304347826085  0.0 3  1.0 3 
7 0 0  2 3 2  0.0 0.010869565217392983  0.0 0.5000000000000008  0.0 0.9891304347826085  0.0 3  1.0 3 
7 0 0  2 3 2  1.0 0.010869565217392374  1.0 0.5000000000000006  1.0 0.9891304347826088  0.0 3  1.0 3 
7 0 0  2 3 2  0.1826923076923077 0.6597510373443982  0.3733974358974359 0.5207468879668049  0.5641025641025641 0.38174273858921165  0.0 3  1.0 3 
7 0 0  3 4 2  0.0 0.010869565217392983  0.33333333333333587 0.010869565217391285  0.6666666666666655 0.010869565217394064  1.0 0.010869565217392829  0.0 4  1.0 4 
7 0 0  2 3 2  0.0 0.010869565217393289  0.0 0.500000000000001  0.0 0.9891304347826088  0.0 3  1.0 3 
7 0 0  2 3 2  1.0 0.010869565217392829  1.0 0.5000000000000007  1.0 0.9891304347826085  0.0 3  1.0 3 
7 0 0  2 3 2  0.0 0.010869565217391759  0.0 0.5000000000000001  0.0 0.9891304347826085  0.0 3  1.0 3 
7 0 0  2 3 2  0.0 0.010869565217392218  0.0 0.5000000000000003  0.0 0.9891304347826085  0.0 3  1.0 3 
7 0 0  2 3 2  0.1826923076923077 0.6597510373443982  0.3733974358974359 0.5207468879668049  0.5641025641025641 0.38174273858921165  0.0 3  1.0 3 
7 0 0  3 4 2  0.0 0.9891304347826085  0.33333333333333587 0.9891304347826082  0.6666666666666655 0.9891304347826088  1.0 0.9891304347826085  0.0 4  1.0 4 
7 0 0  2 3 2  0.5641025641025641 0.38174273858921165  0.5240384615384616 0.6908713692946058  0.48397435897435903 1.0  0.0 3  1.0 3 
7 0 0  3 4 2  0.0 0.010869565217393289  0.3333333333333352 0.010869565217391281  0.6666666666666667 0.010869565217393906  1.0 0.010869565217393443  0.0 4  1.0 4 
7 0 0  2 3 2  1.0 0.010869565217392067  1.0 0.5000000000000003  1.0 0.9891304347826085  0.0 3  1.0 3 
7 0 0  2 3 2  1.0 0.010869565217393443  1.0 0.5000000000000011  1.0 0.9891304347826088  0.0 3  1.0 3 
7 0 0  2 3 2  0.5641025641025641 0.38174273858921165  0.5240384615384616 0.6908713692946058  0.48397435897435903 1.0  0.0 3  1.0 3 
7 0 0  3 4 2  0.0 0.9891304347826088  0.3333333333333352 0.9891304347826084  0.6666666666666667 0.9891304347826088  1.0 0.9891304347826088  0.0 4  1.0 4 
7 0 0  2 3 2  0.1826923076923077 0.6597510373443982  0.33333333333333337 0.8298755186721991  0.48397435897435903 1.0  0.0 3  1.0 3 
7 0 0  3 4 2  0.0 0.010869565217392067  0.33333333333333487 0.010869565217391294  0.6666666666666656 0.01086956521739253  1.0 0.010869565217392067  0.0 4  1.0 4 
7 0 0  2 3 2  0.1826923076923077 0.6597510373443982  0.33333333333333337 0.8298755186721991  0.48397435897435903 1.0  0.0 3  1.0 3 
7 0 0  3 4 2  0.0 0.9891304347826085  0.33333333333333487 0.9891304347826084  0.6666666666666656 0.9891304347826088  1.0 0.9891304347826085  0.0 4  1.0 4 
7 0 0  2 3 2  0.5641025641025641 0.38174273858921165  0.516025641025641 0.19087136929460582  0.46794871794871795 0.0  0.0 3  1.0 3 
7 0 0  3 4 2  -0.0 0.010869565217391759  0.3333333333333331 0.010869565217391295  0.6666666666666665 0.010869565217392687  1.0 0.010869565217391915  0.0 4  1.0 4 
7 0 0  2 3 2  0.0 0.01086956521739329  0.0 0.500000000000001  0.0 0.9891304347826088  0.0 3  1.0 3 
7 0 0  2 3 2  1.0 0.010869565217391915  1.0 0.5000000000000002  1.0 0.9891304347826085  0.0 3  1.0 3 
7 0 0  2 3 2  0.0 0.010869565217392374  0.0 0.5000000000000006  0.0 0.9891304347826088  0.0 3  1.0 3 
7 0 0  2 3 2  0.5641025641025641 0.38174273858921165  0.516025641025641 0.19087136929460582  0.46794871794871795 0.0  0.0 3  1.0 3 
7 0 0  3 4 2  -0.0 0.9891304347826085  0.3333333333333331 0.9891304347826084  0.6666666666666665 0.9891304347826088  1.0 0.9891304347826085  0.0 4  1.0 4 
7 0 0  2 3 2  0.0 0.01086956521739222  0.0 0.5000000000000004  0.0 0.9891304347826088  0.0 3  1.0 3 
7 0 0  2 3 2  1.0 0.010869565217393136  1.0 0.500000000000001  1.0 0.9891304347826088  0.0 3  1.0 3 
7 0 0  2 3 2  0.0 0.2821576763485477  0.09134615384615385 0.47095435684647297  0.1826923076923077 0.6597510373443982  0.0 3  1.0 3 
7 0 0  3 4 2  0.0 0.01086956521739222  0.3333333333333348 0.010869565217391292  0.666666666666666 0.010869565217392529  1.0 0.010869565217392374  0.0 4  1.0 4 
7 0 0  2 3 2  0.0 0.2821576763485477  0.09134615384615385 0.47095435684647297  0.1826923076923077 0.6597510373443982  0.0 3  1.0 3 
7 0 0  3 4 2  0.0 0.9891304347826088  0.3333333333333348 0.9891304347826085  0.666666666666666 0.9891304347826088  1.0 0.9891304347826088  0.0 4  1.0 4 
7 0 0  2 3 2  0.46794871794871795 0.0  0.23397435897435898 0.14107883817427386  0.0 0.2821576763485477  0.0 3  1.0 3 
7 0 0  3 4 2  -0.0 0.01086956521739329  0.333333333333334 0.010869565217391283  0.6666666666666659 0.01086956521739499  1.0 0.010869565217393136  0.0 4  1.0 4 
7 0 0  2 3 2  0.46794871794871795 0.0  0.23397435897435898 0.14107883817427386  0.0 0.2821576763485477  0.0 3  1.0 3 
7 0 0  3 4 2  -0.0 0.9891304347826088  0.333333333333334 0.9891304347826085  0.6666666666666659 0.9891304347826088  1.0 0.9891304347826088  0.0 4  1.0 4 
7 0 0  2 3 2  0.46794871794871795 0.0  0.733974358974359 0.07883817427385893  1.0 0.15767634854771787  0.0 3  1.0 3 
7 0 0  3 4 2  0.0 0.010869565217392374  0.33333333333333376 0.010869565217391292  0.6666666666666662 0.010869565217392838  1.0 0.01086956521739222  0.0 4  1.0 4 
7 0 0  2 3 2  1.0 0.010869565217392218  1.0 0.5000000000000003  1.0 0.9891304347826085  0.0 3  1.0 3 
7 0 0  2 3 2  1.0 0.01086956521739222  1.0 0.5000000000000004  1.0 0.9891304347826088  0.0 3  1.0 3 
7 0 0  2 3 2  0.46794871794871795 0.0  0.733974358974359 0.07883817427385893  1.0 0.15767634854771787  0.0 3  1.0 3 
7 0 0  3 4 2  0.0 0.9891304347826088  0.33333333333333376 0.9891304347826085  0.6666666666666662 0.9891304347826088  1.0 0.9891304347826088  0.0 4  1.0 4 
7 0 0  2 3 2  0.5641025641025641 0.38174273858921165  0.782051282051282 0.26970954356846477  1.0 0.15767634854771787  0.0 3  1.0 3 
7 0 0  3 4 2  0.0 0.010869565217392218  0.33333333333333587 0.01086956521739129  0.6666666666666639 0.010869565217392836  1.0 0.010869565217392218  0.0 4  1.0 4 
7 0 0  2 3 2  0.5641025641025641 0.38174273858921165  0.782051282051282 0.26970954356846477  1.0 0.15767634854771787  0.0 3  1.0 3 
7 0 0  3 4 2  0.0 0.9891304347826085  0.33333333333333587 0.9891304347826084  0.6666666666666639 0.9891304347826088  1.0 0.9891304347826085  0.0 4  1.0 4 
Curves 38
7 0 0  2 3 2  112.17201166180757 89.21282798833818 -100.0  112.17201166180757 89.21282798833818 -55.0  112.17201166180757 89.21282798833818 -10.0  0.0 3  1.0 3 
7 0 0  2 3 2  112.17201166180757 89.21282798833818 -100.0  112.17201166180757 89.21282798833818 -55.0  112.17201166180757 89.21282798833818 -10.0  0.0 3  1.0 3 
7 0 0  2 3 2  112.17201166180757 89.21282798833818 -100.0  112.17201166180757 89.21282798833818 -55.0  112.17201166180757 89.21282798833818 -10.0  0.0 3  1.0 3 
7 0 0  2 3 2  112.17201166180757 89.21282798833818 -100.0  112.17201166180757 89.21282798833818 -55.0  112.17201166180757 89.21282798833818 -10.0  0.0 3  1.0 3 
7 0 0  3 4 2  112.17201166180757 89.21282798833818 -100.0  138.19241982507307 74.5626822157436 -100.00000000000016  164.2128279883381 59.91253644314861 -99.9999999999999  190.23323615160348 45.262390670553934 -100.00000000000001  0.0 4  1.0 4 
7 0 0  2 3 2  190.23323615160348 45.262390670553934 -100.00000000000001  190.23323615160348 45.262390670553934 -55.00000000000001  190.23323615160348 45.262390670553934 -10.0  0.0 3  1.0 3 
7 0 0  2 3 2  190.23323615160348 45.262390670553934 -100.00000000000001  190.23323615160348 45.262390670553934 -55.00000000000001  190.23323615160348 45.262390670553934 -10.0  0.0 3  1.0 3 
7 0 0  2 3 2  190.23323615160348 45.262390670553934 -100.00000000000001  190.23323615160348 45.262390670553934 -55.00000000000001  190.23323615160348 45.262390670553934 -10.0  0.0 3  1.0 3 
7 0 0  2 3 2  190.23323615160348 45.262390670553934 -100.00000000000001  190.23323615160348 45.262390670553934 -55.00000000000001  190.23323615160348 45.262390670553934 -10.0  0.0 3  1.0 3 
7 0 0  2 3 2  190.23323615160348 45.262390670553934 -100.00000000000001  190.23323615160348 45.262390670553934 -55.00000000000001  190.23323615160348 45.262390670553934 -10.0  0.0 3  1.0 3 
7 0 0  3 4 2  112.17201166180757 89.21282798833818 -10.0  138.19241982507307 74.5626822157436 -10.000000000000027  164.2128279883381 59.91253644314861 -9.999999999999986  190.23323615160348 45.262390670553934 -10.0  0.0 4  1.0 4 
7 0 0  3 4 2  190.23323615160348 45.262390670553934 -100.00000000000001  184.7667638483968 77.84256559766781 -100.0000000000002  179.30029154518942 110.42274052478133 -99.99999999999996  173.8338192419825 143.00291545189503 -100.0  0.0 4  1.0 4 
7 0 0  2 3 2  173.8338192419825 143.00291545189503 -100.0  173.8338192419825 143.00291545189503 -55.0  173.8338192419825 143.00291545189503 -10.0  0.0 3  1.0 3 
7 0 0  2 3 2  173.8338192419825 143.00291545189503 -100.0  173.8338192419825 143.00291545189503 -55.0  173.8338192419825 143.00291545189503 -10.0  0.0 3  1.0 3 
7 0 0  2 3 2  173.8338192419825 143.00291545189503 -100.0  173.8338192419825 143.00291545189503 -55.0  173.8338192419825 143.00291545189503 -10.0  0.0 3  1.0 3 
7 0 0  3 4 2  190.23323615160348 45.262390670553934 -10.0  184.7667638483968 77.84256559766781 -10.000000000000021  179.30029154518942 110.42274052478133 -9.999999999999993  173.8338192419825 143.00291545189503 -10.0  0.0 4  1.0 4 
7 0 0  3 4 2  112.17201166180757 89.21282798833818 -100.0  132.72594752186598 107.14285714285712 -100.00000000000007  153.27988338192412 125.07288629737614 -99.99999999999996  173.8338192419825 143.00291545189503 -100.0  0.0 4  1.0 4 
7 0 0  3 4 2  112.17201166180757 89.21282798833818 -10.0  132.72594752186598 107.14285714285712 -10.00000000000002  153.27988338192412 125.07288629737614 -9.999999999999993  173.8338192419825 143.00291545189503 -10.0  0.0 4  1.0 4 
7 0 0  3 4 2  190.23323615160348 45.262390670553934 -100.00000000000001  183.6734693877554 25.1457725947522 -100.00000000000006  177.1137026239065 5.029154518950451 -99.99999999999993  170.5539358600583 -15.087463556851311 -100.0  0.0 4  1.0 4 
7 0 0  2 3 2  170.5539358600583 -15.087463556851311 -100.0  170.5539358600583 -15.087463556851311 -55.0  170.5539358600583 -15.087463556851311 -10.0  0.0 3  1.0 3 
7 0 0  2 3 2  170.5539358600583 -15.087463556851311 -100.0  170.5539358600583 -15.087463556851311 -55.0  170.5539358600583 -15.087463556851311 -10.0  0.0 3  1.0 3 
7 0 0  2 3 2  170.5539358600583 -15.087463556851311 -100.0  170.5539358600583 -15.087463556851311 -55.0  170.5539358600583 -15.087463556851311 -10.0  0.0 3  1.0 3 
7 0 0  2 3 2  170.5539358600583 -15.087463556851311 -100.0  170.5539358600583 -15.087463556851311 -55.0  170.5539358600583 -15.087463556851311 -10.0  0.0 3  1.0 3 
7 0 0  3 4 2  190.23323615160348 45.262390670553934 -10.0  183.6734693877554 25.1457725947522 -10.000000000000018  177.1137026239065 5.029154518950451 -9.999999999999988  170.5539358600583 -15.087463556851311 -10.0  0.0 4  1.0 4 
7 0 0  2 3 2  74.78134110787171 29.51895043731778 -100.00000000000001  74.78134110787171 29.51895043731778 -55.00000000000001  74.78134110787171 29.51895043731778 -10.0  0.0 3  1.0 3 
7 0 0  2 3 2  74.78134110787171 29.51895043731778 -100.00000000000001  74.78134110787171 29.51895043731778 -55.00000000000001  74.78134110787171 29.51895043731778 -10.0  0.0 3  1.0 3 
7 0 0  2 3 2  74.78134110787171 29.51895043731778 -100.00000000000001  74.78134110787171 29.51895043731778 -55.00000000000001  74.78134110787171 29.51895043731778 -10.0  0.0 3  1.0 3 
7 0 0  3 4 2  74.78134110787171 29.518950437317777 -100.00000000000001  87.24489795918373 49.41690962099133 -100.0000000000001  99.70845481049565 69.31486880466467 -99.99999999999999  112.17201166180757 89.21282798833818 -100.0  0.0 4  1.0 4 
7 0 0  3 4 2  74.78134110787171 29.518950437317777 -10.0  87.24489795918373 49.41690962099133 -10.000000000000014  99.70845481049565 69.31486880466467 -9.999999999999995  112.17201166180757 89.21282798833818 -10.0  0.0 4  1.0 4 
7 0 0  3 4 2  170.5539358600583 -15.087463556851311 -100.0  138.62973760932937 -0.21865889212828876 -100.00000000000018  106.70553935860065 14.65014577259473 -99.99999999999984  74.78134110787171 29.518950437317777 -100.00000000000001  0.0 4  1.0 4 
7 0 0  3 4 2  170.5539358600583 -15.087463556851311 -10.0  138.62973760932937 -0.21865889212828876 -10.000000000000007  106.70553935860065 14.65014577259473 -9.999999999999995  74.78134110787171 29.518950437317777 -10.0  0.0 4  1.0 4 
7 0 0  3 4 2  170.5539358600583 -15.087463556851311 -100.0  206.8513119533528 -6.778425655976682 -100.0000000000001  243.14868804664715 1.5306122448979582 -99.99999999999996  279.44606413994165 9.839650145772595 -100.00000000000001  0.0 4  1.0 4 
7 0 0  2 3 2  279.44606413994165 9.839650145772595 -100.00000000000001  279.44606413994165 9.839650145772595 -55.00000000000001  279.44606413994165 9.839650145772595 -10.0  0.0 3  1.0 3 
7 0 0  2 3 2  279.44606413994165 9.839650145772595 -100.00000000000001  279.44606413994165 9.839650145772595 -55.00000000000001  279.44606413994165 9.839650145772595 -10.0  0.0 3  1.0 3 
7 0 0  2 3 2  279.44606413994165 9.839650145772595 -100.00000000000001  279.44606413994165 9.839650145772595 -55.00000000000001  279.44606413994165 9.839650145772595 -10.0  0.0 3  1.0 3 
7 0 0  3 4 2  170.5539358600583 -15.087463556851311 -10.0  206.8513119533528 -6.778425655976682 -10.000000000000016  243.14868804664715 1.5306122448979582 -9.999999999999996  279.44606413994165 9.839650145772595 -10.0  0.0 4  1.0 4 
7 0 0  3 4 2  190.23323615160348 45.262390670553934 -100.00000000000001  219.97084548104976 33.45481049562684 -100.0000000000001  249.70845481049534 21.6472303206997 -99.99999999999996  279.44606413994165 9.839650145772595 -100.00000000000001  0.0 4  1.0 4 
7 0 0  3 4 2  190.23323615160348 45.262390670553934 -10.0  219.97084548104976 33.45481049562684 -10.000000000000018  249.70845481049534 21.6472303206997 -9.99999999999999  279.44606413994165 9.839650145772595 -10.0  0.0 4  1.0 4 
Polygon3D 0
PolygonOnTriangulations 0
Surfaces 10
9 0 0 0 0  2 2 3 3  2 2  112.17201166180757 89.21282798833818 -101.00000000000007  112.17201166180757 89.21282798833818 -55.00000000000003  112.17201166180757 89.21282798833818 -8.999999999999993   143.00291545189503 116.1078717201166 -101.00000000000007  143.00291545189503 116.1078717201166 -55.00000000000003  143.00291545189503 116.1078717201166 -8.99999999999999   173.8338192419825 143.00291545189503 -101.00000000000007  173.8338192419825 143.00291545189503 -55.00000000000003  173.8338192419825 143.00291545189503 -8.999999999999986   0.0 3  1.0 3  0.0 3  1.0 3 
9 0 0 0 0  2 2 3 3  2 2  112.17201166180757 89.21282798833818 -101.00000000000016  112.17201166180757 89.21282798833818 -55.00000000000007  112.17201166180757 89.21282798833818 -8.999999999999986   151.20262390670553 67.23760932944606 -101.00000000000016  151.20262390670553 67.23760932944606 -55.00000000000007  151.20262390670553 67.23760932944606 -8.999999999999986   190.23323615160348 45.262390670553934 -101.00000000000016  190.23323615160348 45.26239067055394 -55.00000000000007  190.23323615160348 45.26239067055394 -8.999999999999986   0.0 3  1.0 3  0.0 3  1.0 3 
9 0 0 0 0  2 2 3 3  2 2  74.78134110787171 29.51895043731778 -101.0000000000001  74.78134110787171 29.51895043731778 -55.00000000000005  74.78134110787171 29.51895043731778 -8.999999999999995   93.47667638483964 59.36588921282798 -101.0000000000001  93.47667638483964 59.36588921282798 -55.00000000000005  93.47667638483964 59.36588921282798 -8.999999999999996   112.17201166180757 89.21282798833818 -101.0000000000001  112.17201166180757 89.21282798833818 -55.00000000000005  112.17201166180756 89.21282798833818 -9.0   0.0 3  1.0 3  0.0 3  1.0 3 
9 0 0 0 0  2 2 3 3  2 2  74.78134110787171 -15.087463556851311 -100.0  74.78134110787171 63.95772594752186 -100.0  74.78134110787171 143.00291545189503 -100.0   177.1137026239067 -15.087463556851311 -100.0  177.1137026239067 63.95772594752186 -100.0  177.1137026239067 143.00291545189503 -100.0   279.44606413994165 -15.087463556851311 -100.0  279.44606413994165 63.95772594752186 -100.0  279.44606413994165 143.00291545189503 -100.0   0.0 3  1.0 3  0.0 3  1.0 3 
9 0 0 0 0  2 2 3 3  2 2  190.23323615160348 45.262390670553934 -101.0000000000002  190.23323615160348 45.262390670553934 -55.0000000000001  190.23323615160348 45.262390670553934 -8.999999999999993   182.033527696793 94.13265306122449 -101.0000000000002  182.033527696793 94.13265306122449 -55.0000000000001  182.033527696793 94.13265306122449 -8.999999999999996   173.8338192419825 143.00291545189503 -101.0000000000002  173.8338192419825 143.00291545189503 -55.0000000000001  173.8338192419825 143.00291545189503 -9.0   0.0 3  1.0 3  0.0 3  1.0 3 
9 0 0 0 0  2 2 3 3  2 2  190.23323615160348 45.262390670553934 -101.00000000000006  190.23323615160348 45.262390670553934 -55.00000000000002  190.23323615160348 45.262390670553934 -8.999999999999988   180.39358600583088 15.087463556851311 -101.00000000000006  180.39358600583088 15.087463556851311 -55.00000000000003  180.39358600583088 15.087463556851311 -8.999999999999986   170.5539358600583 -15.087463556851311 -101.00000000000006  170.5539358600583 -15.087463556851311 -55.00000000000002  170.5539358600583 -15.087463556851311 -8.999999999999986   0.0 3  1.0 3  0.0 3  1.0 3 
9 0 0 0 0  2 2 3 3  2 2  190.23323615160348 45.262390670553934 -101.0000000000001  190.23323615160348 45.262390670553934 -55.00000000000004  190.23323615160348 45.262390670553934 -8.99999999999999   234.83965014577257 27.551020408163264 -101.0000000000001  234.83965014577257 27.551020408163268 -55.00000000000004  234.83965014577257 27.551020408163264 -8.999999999999988   279.44606413994165 9.839650145772595 -101.0000000000001  279.44606413994165 9.839650145772595 -55.00000000000004  279.44606413994165 9.839650145772595 -8.999999999999986   0.0 3  1.0 3  0.0 3  1.0 3 
9 0 0 0 0  2 2 3 3  2 2  74.78134110787171 -15.087463556851311 -10.0  74.78134110787171 63.95772594752186 -10.0  74.78134110787171 143.00291545189503 -10.0   177.1137026239067 -15.087463556851311 -10.0  177.1137026239067 63.95772594752186 -10.0  177.1137026239067 143.00291545189503 -10.0   279.44606413994165 -15.087463556851311 -10.0  279.44606413994165 63.95772594752186 -10.0  279.44606413994165 143.00291545189503 -10.0   0.0 3  1.0 3  0.0 3  1.0 3 
9 0 0 0 0  2 2 3 3  2 2  170.5539358600583 -15.087463556851311 -101.00000000000018  170.5539358600583 -15.087463556851311 -55.00000000000009  170.5539358600583 -15.087463556851311 -8.999999999999995   122.66763848396499 7.2157434402332346 -101.00000000000018  122.66763848396499 7.2157434402332346 -55.00000000000009  122.66763848396499 7.2157434402332346 -8.999999999999996   74.78134110787171 29.51895043731778 -101.00000000000018  74.7813411078717 29.51895043731778 -55.00000000000009  74.7813411078717 29.51895043731778 -9.0   0.0 3  1.0 3  0.0 3  1.0 3 
9 0 0 0 0  2 2 3 3  2 2  170.5539358600583 -15.087463556851311 -101.0000000000001  170.5539358600583 -15.087463556851311 -55.00000000000005  170.5539358600583 -15.087463556851311 -8.999999999999996   224.99999999999997 -2.6239067055393583 -101.0000000000001  225.0 -2.6239067055393583 -55.00000000000005  224.99999999999997 -2.6239067055393583 -8.999999999999998   279.44606413994165 9.839650145772595 -101.0000000000001  279.44606413994165 9.839650145772595 -55.00000000000005  279.44606413994165 9.839650145772595 -9.0   0.0 3  1.0 3  0.0 3  1.0 3 
Triangulations 0

TShapes 69
Ve
0.001
112.17201166180757 89.21282798833818 -100.0 
0 0

0101000
*
Ve
0.001
112.17201166180757 89.21282798833818 -10.0 
0 0

0101000
*
Ed
 0.001 1 1 0
1 1 0 0.0 1.0
1 2 0 0.0 1.0
2 1 1 0 0.0 1.0
1 3 0 0.0 1.0
2 2 2 0 0.0 1.0
1 4 0 0.0 1.0
2 3 3 0 0.0 1.0
0
0101000
+69 0 -68 0 *
Ve
0.001
190.23323615160348 45.262390670553934 -100.00000000000001 
0 0

0101000
*
Ed
 0.001 1 1 0
1 5 0 0.0 1.0
2 4 4 0 0.0 1.0
2 5 2 0 0.0 1.0
0
0101000
+69 0 -66 0 *
Ve
0.001
190.23323615160348 45.262390670553934 -10.0 
0 0

0101000
*
Ed
 0.001 1 1 0
1 6 0 0.0 1.0
1 7 0 0.0 1.0
2 6 5 0 0.0 1.0
1 8 0 0.0 1.0
2 7 2 0 0.0 1.0
1 9 0 0.0 1.0
2 8 6 0 0.0 1.0
1 10 0 0.0 1.0
2 9 7 0 0.0 1.0
0
0101000
+66 0 -64 0 *
Ed
 0.001 1 1 0
1 11 0 0.0 1.0
2 10 8 0 0.0 1.0
2 11 2 0 0.0 1.0
0
0101000
+68 0 -64 0 *
Wi

0101100
-67 0 +65 0 +63 0 -62 0 *
Fa
0 0.001 2 0

0101000
+61 0 *
Ve
0.001
173.8338192419825 143.00291545189503 -100.0 
0 0

0101000
*
Ed
 0.001 1 1 0
1 12 0 0.0 1.0
2 12 4 0 0.0 1.0
2 13 5 0 0.0 1.0
0
0101000
+66 0 -59 0 *
Ve
0.001
173.8338192419825 143.00291545189503 -10.0 
0 0

0101000
*
Ed
 0.001 1 1 0
1 13 0 0.0 1.0
1 14 0 0.0 1.0
2 14 1 0 0.0 1.0
1 15 0 0.0 1.0
2 15 5 0 0.0 1.0
0
0101000
+59 0 -57 0 *
Ed
 0.001 1 1 0
1 16 0 0.0 1.0
2 16 8 0 0.0 1.0
2 17 5 0 0.0 1.0
0
0101000
+64 0 -57 0 *
Wi

0101100
-63 0 +58 0 +56 0 -55 0 *
Fa
0 0.001 5 0

0101000
+54 0 *
Ed
 0.001 1 1 0
1 17 0 0.0 1.0
2 18 4 0 0.0 1.0
2 19 1 0 0.0 1.0
0
0101000
+69 0 -59 0 *
Ed
 0.001 1 1 0
1 18 0 0.0 1.0
2 20 8 0 0.0 1.0
2 21 1 0 0.0 1.0
0
0101000
+68 0 -57 0 *
Wi

0101100
-67 0 +52 0 +56 0 -51 0 *
Fa
0 0.001 1 0

1101000
+50 0 *
Wi

0101100
+62 0 +55 0 -51 0 *
Fa
0 0.001 8 0

1101000
+48 0 *
Wi

0101100
+65 0 +58 0 -52 0 *
Fa
0 0.001 4 0

0101000
+46 0 *
Sh

0101000
+60 0 +53 0 -49 0 +47 0 -45 0 *
So

1100000
+44 0 *
Ve
0.001
170.5539358600583 -15.087463556851311 -100.0 
0 0

0101000
*
Ed
 0.001 1 1 0
1 19 0 0.0 1.0
2 22 4 0 0.0 1.0
2 23 6 0 0.0 1.0
0
0101000
+66 0 -42 0 *
Ve
0.001
170.5539358600583 -15.087463556851311 -10.0 
0 0

0101000
*
Ed
 0.001 1 1 0
1 20 0 0.0 1.0
1 21 0 0.0 1.0
2 24 9 0 0.0 1.0
1 22 0 0.0 1.0
2 25 6 0 0.0 1.0
1 23 0 0.0 1.0
2 26 10 0 0.0 1.0
0
0101000
+42 0 -40 0 *
Ed
 0.001 1 1 0
1 24 0 0.0 1.0
2 27 8 0 0.0 1.0
2 28 6 0 0.0 1.0
0
0101000
+64 0 -40 0 *
Wi

0101100
-63 0 +41 0 +39 0 -38 0 *
Fa
0 0.001 6 0

0101000
+37 0 *
Ve
0.001
74.78134110787171 29.51895043731778 -100.00000000000001 
0 0

0101000
*
Ve
0.001
74.78134110787171 29.51895043731778 -10.0 
0 0

0101000
*
Ed
 0.001 1 1 0
1 25 0 0.0 1.0
1 26 0 0.0 1.0
2 29 3 0 0.0 1.0
1 27 0 0.0 1.0
2 30 9 0 0.0 1.0
0
0101000
+35 0 -34 0 *
Ed
 0.001 1 1 0
1 28 0 0.0 1.0
2 31 4 0 0.0 1.0
2 32 3 0 0.0 1.0
0
0101000
+35 0 -69 0 *
Ed
 0.001 1 1 0
1 29 0 0.0 1.0
2 33 8 0 0.0 1.0
2 34 3 0 0.0 1.0
0
0101000
+34 0 -68 0 *
Wi

0101100
-33 0 +32 0 +67 0 -31 0 *
Fa
0 0.001 3 0

0101000
+30 0 *
Ed
 0.001 1 1 0
1 30 0 0.0 1.0
2 35 4 0 0.0 1.0
2 36 9 0 0.0 1.0
0
0101000
+42 0 -35 0 *
Ed
 0.001 1 1 0
1 31 0 0.0 1.0
2 37 8 0 0.0 1.0
2 38 9 0 0.0 1.0
0
0101000
+40 0 -34 0 *
Wi

0101100
-39 0 +28 0 +33 0 -27 0 *
Fa
0 0.001 9 0

0101000
+26 0 *
Wi

0101100
-38 0 -62 0 -31 0 -27 0 *
Fa
0 0.001 8 0

1101000
+24 0 *
Wi

0101100
-41 0 -65 0 -32 0 -28 0 *
Fa
0 0.001 4 0

0101000
+22 0 *
Sh

0101000
-36 0 -60 0 -29 0 -25 0 +23 0 -21 0 *
So

1100000
+20 0 *
Ve
0.001
279.44606413994165 9.839650145772595 -100.00000000000001 
0 0

0101000
*
Ed
 0.001 1 1 0
1 32 0 0.0 1.0
2 39 4 0 0.0 1.0
2 40 10 0 0.0 1.0
0
0101000
+42 0 -18 0 *
Ve
0.001
279.44606413994165 9.839650145772595 -10.0 
0 0

0101000
*
Ed
 0.001 1 1 0
1 33 0 0.0 1.0
1 34 0 0.0 1.0
2 41 7 0 0.0 1.0
1 35 0 0.0 1.0
2 42 10 0 0.0 1.0
0
0101000
+18 0 -16 0 *
Ed
 0.001 1 1 0
1 36 0 0.0 1.0
2 43 8 0 0.0 1.0
2 44 10 0 0.0 1.0
0
0101000
+40 0 -16 0 *
Wi

0101100
-39 0 +17 0 +15 0 -14 0 *
Fa
0 0.001 10 0

0101000
+13 0 *
Ed
 0.001 1 1 0
1 37 0 0.0 1.0
2 45 4 0 0.0 1.0
2 46 7 0 0.0 1.0
0
0101000
+66 0 -18 0 *
Ed
 0.001 1 1 0
1 38 0 0.0 1.0
2 47 8 0 0.0 1.0
2 48 7 0 0.0 1.0
0
0101000
+64 0 -16 0 *
Wi

0101100
-63 0 +11 0 +15 0 -10 0 *
Fa
0 0.001 7 0

0101000
+9 0 *
Wi

0101100
+14 0 -10 0 +38 0 *
Fa
0 0.001 8 0

1101000
+7 0 *
Wi

0101100
+17 0 -11 0 +41 0 *
Fa
0 0.001 4 0

0101000
+5 0 *
Sh

0101000
+12 0 -8 0 +36 0 +6 0 -4 0 *
So

1100000
+3 0 *
Co

1100000
+43 0 +19 0 +2 0 +49 0 +47 0 +23 0 +6 0 *

+1 0