DBRep_DrawableShape

CASCADE Topology V1, (c) Matra-Datavision
Locations 0
Curve2ds 96
7 0 0  2 3 2  1.0 0.009803921568633796  1.0 0.5000000000000032  1.0 0.9901960784313726  0.0 3  1.0 3 
7 0 0  2 3 2  0.0 0.009803921568642765  0.0 0.5000000000000078  0.0 0.9901960784313727  0.0 3  1.0 3 
7 0 0  2 3 2  0.0 0.009803921568636418  0.0 0.5000000000000046  0.0 0.9901960784313726  0.0 3  1.0 3 
7 0 0  2 3 2  0.283544303797467 1.0  0.3417721518987328 0.8397887323943636  0.3999999999999985 0.6795774647887273  0.0 3  1.0 3 
7 0 0  3 4 2  -0.0 0.009803921568636418  0.3333333333345128 0.009803921568627362  0.6666666666661425 0.009803921568638508  1.0 0.009803921568636418  0.0 4  1.0 4 
7 0 0  2 3 2  1.0 0.009803921568639453  1.0 0.5000000000000061  1.0 0.9901960784313727  0.0 3  1.0 3 
7 0 0  2 3 2  1.0 0.009803921568636418  1.0 0.5000000000000046  1.0 0.9901960784313726  0.0 3  1.0 3 
7 0 0  2 3 2  0.0 0.009803921568644696  0.0 0.5000000000000087  0.0 0.9901960784313727  0.0 3  1.0 3 
7 0 0  2 3 2  0.283544303797467 1.0  0.3417721518987328 0.8397887323943636  0.3999999999999985 0.6795774647887273  0.0 3  1.0 3 
7 0 0  3 4 2  -0.0 0.9901960784313726  0.3333333333345128 0.9901960784313726  0.6666666666661425 0.9901960784313726  1.0 0.9901960784313726  0.0 4  1.0 4 
7 0 0  2 3 2  0.0 0.009803921568633796  0.0 0.5000000000000032  0.0 0.9901960784313726  0.0 3  1.0 3 
7 0 0  2 3 2  0.0 0.009803921568638074  0.0 0.5000000000000053  0.0 0.9901960784313727  0.0 3  1.0 3 
7 0 0  2 3 2  0.0 0.6056338028169065  0.1417721518987335 0.8028169014084532  0.283544303797467 1.0  0.0 3  1.0 3 
7 0 0  3 4 2  0.0 0.009803921568633796  0.3333333333321177 0.009803921568627388  0.66666666666727 0.00980392156863505  1.0 0.009803921568633796  0.0 4  1.0 4 
7 0 0  2 3 2  0.0 0.6056338028169065  0.1417721518987335 0.8028169014084532  0.283544303797467 1.0  0.0 3  1.0 3 
7 0 0  3 4 2  0.0 0.9901960784313726  0.3333333333321177 0.9901960784313726  0.66666666666727 0.9901960784313726  1.0 0.9901960784313726  0.0 4  1.0 4 
7 0 0  2 3 2  0.0 0.6056338028169065  0.12151898734177265 0.362676056338029  0.2430379746835453 0.11971830985915154  0.0 3  1.0 3 
7 0 0  3 4 2  -0.0 0.009803921568638074  0.33333333333566667 0.009803921568627345  0.6666666666662778 0.009803921568640581  1.0 0.009803921568638074  0.0 4  1.0 4 
7 0 0  2 3 2  0.0 0.009803921568644696  0.0 0.5000000000000087  0.0 0.9901960784313727  0.0 3  1.0 3 
7 0 0  2 3 2  1.0 0.009803921568638074  1.0 0.5000000000000053  1.0 0.9901960784313727  0.0 3  1.0 3 
7 0 0  2 3 2  0.0 0.009803921568634763  0.0 0.5000000000000037  0.0 0.9901960784313726  0.0 3  1.0 3 
7 0 0  2 3 2  0.0 0.6056338028169065  0.12151898734177265 0.362676056338029  0.2430379746835453 0.11971830985915154  0.0 3  1.0 3 
7 0 0  3 4 2  -0.0 0.9901960784313727  0.33333333333566667 0.9901960784313727  0.6666666666662778 0.9901960784313727  1.0 0.9901960784313727  0.0 4  1.0 4 
7 0 0  2 3 2  0.2430379746835453 0.11971830985915154  0.3025316455696213 0.23591549295774966  0.36202531645569735 0.3521126760563478  0.0 3  1.0 3 
7 0 0  3 4 2  0.0 0.009803921568634763  0.3333333333308337 0.009803921568627378  0.666666666665733 0.009803921568633508  1.0 0.009803921568634763  0.0 4  1.0 4 
7 0 0  2 3 2  1.0 0.009803921568634763  1.0 0.5000000000000037  1.0 0.9901960784313726  0.0 3  1.0 3 
7 0 0  2 3 2  1.0 0.009803921568642765  1.0 0.5000000000000078  1.0 0.9901960784313727  0.0 3  1.0 3 
7 0 0  2 3 2  0.0 0.009803921568636556  0.0 0.5000000000000046  0.0 0.9901960784313726  0.0 3  1.0 3 
7 0 0  2 3 2  0.2430379746835453 0.11971830985915154  0.3025316455696213 0.23591549295774966  0.36202531645569735 0.3521126760563478  0.0 3  1.0 3 
7 0 0  3 4 2  0.0 0.9901960784313726  0.3333333333308337 0.9901960784313726  0.666666666665733 0.9901960784313726  1.0 0.9901960784313726  0.0 4  1.0 4 
7 0 0  2 3 2  0.0 0.009803921568642765  0.0 0.5000000000000078  0.0 0.9901960784313727  0.0 3  1.0 3 
7 0 0  2 3 2  0.0 0.009803921568639453  0.0 0.5000000000000061  0.0 0.9901960784313727  0.0 3  1.0 3 
7 0 0  2 3 2  0.26835443037974355 0.517605633802809  0.3151898734177204 0.4348591549295784  0.36202531645569735 0.3521126760563478  0.0 3  1.0 3 
7 0 0  3 4 2  -0.0 0.009803921568642765  0.3333333333427641 0.0098039215686273  0.6666666666658632 0.009803921568646387  1.0 0.009803921568642765  0.0 4  1.0 4 
7 0 0  2 3 2  0.26835443037974355 0.517605633802809  0.3151898734177204 0.4348591549295784  0.36202531645569735 0.3521126760563478  0.0 3  1.0 3 
7 0 0  3 4 2  -0.0 0.9901960784313727  0.3333333333427641 0.9901960784313727  0.6666666666658632 0.9901960784313727  1.0 0.9901960784313727  0.0 4  1.0 4 
7 0 0  2 3 2  0.26835443037974355 0.517605633802809  0.33417721518987104 0.5985915492957681  0.3999999999999985 0.6795774647887273  0.0 3  1.0 3 
7 0 0  3 4 2  0.0 0.009803921568639453  0.3333333333293389 0.009803921568627333  0.6666666666676796 0.009803921568643494  1.0 0.009803921568639453  0.0 4  1.0 4 
7 0 0  2 3 2  0.26835443037974355 0.517605633802809  0.33417721518987104 0.5985915492957681  0.3999999999999985 0.6795774647887273  0.0 3  1.0 3 
7 0 0  3 4 2  0.0 0.9901960784313727  0.3333333333293389 0.9901960784313727  0.6666666666676796 0.9901960784313727  1.0 0.9901960784313727  0.0 4  1.0 4 
7 0 0  2 3 2  1.0 0.009803921568638626  1.0 0.5000000000000057  1.0 0.9901960784313727  0.0 3  1.0 3 
7 0 0  2 3 2  1.0 0.009803921568636556  1.0 0.5000000000000046  1.0 0.9901960784313726  0.0 3  1.0 3 
7 0 0  2 3 2  0.0 0.00980392156863352  0.0 0.500000000000003  0.0 0.9901960784313726  0.0 3  1.0 3 
7 0 0  2 3 2  0.6962025316455684 0.36267605633801847  0.7088607594936676 0.18133802816900924  0.7215189873417667 0.0  0.0 3  1.0 3 
7 0 0  3 4 2  -0.0 0.00980392156863352  0.3333333333349157 0.00980392156862739  0.6666666666658948 0.009803921568635054  1.0 0.00980392156863352  0.0 4  1.0 4 
7 0 0  2 3 2  0.0 0.009803921568644557  0.0 0.5000000000000087  0.0 0.9901960784313727  0.0 3  1.0 3 
7 0 0  2 3 2  1.0 0.009803921568644696  1.0 0.5000000000000087  1.0 0.9901960784313727  0.0 3  1.0 3 
7 0 0  2 3 2  1.0 0.00980392156863352  1.0 0.500000000000003  1.0 0.9901960784313726  0.0 3  1.0 3 
7 0 0  2 3 2  0.6962025316455684 0.36267605633801847  0.7088607594936676 0.18133802816900924  0.7215189873417667 0.0  0.0 3  1.0 3 
7 0 0  3 4 2  -0.0 0.9901960784313726  0.3333333333349157 0.9901960784313726  0.6666666666658948 0.9901960784313726  1.0 0.9901960784313726  0.0 4  1.0 4 
7 0 0  2 3 2  0.36202531645569735 0.3521126760563478  0.5291139240506328 0.3573943661971831  0.6962025316455684 0.36267605633801847  0.0 3  1.0 3 
7 0 0  3 4 2  0.0 0.009803921568636556  0.33333333333188775 0.00980392156862736  0.6666666666670958 0.009803921568637393  1.0 0.009803921568636556  0.0 4  1.0 4 
7 0 0  2 3 2  0.36202531645569735 0.3521126760563478  0.5291139240506328 0.3573943661971831  0.6962025316455684 0.36267605633801847  0.0 3  1.0 3 
7 0 0  3 4 2  0.0 0.9901960784313726  0.33333333333188775 0.9901960784313726  0.6666666666670958 0.9901960784313726  1.0 0.9901960784313726  0.0 4  1.0 4 
7 0 0  2 3 2  0.2430379746835453 0.11971830985915154  0.48227848101265597 0.05985915492957577  0.7215189873417667 0.0  0.0 3  1.0 3 
7 0 0  3 4 2  0.0 0.009803921568644696  0.3333333333322922 0.00980392156862728  0.6666666666671714 0.009803921568654169  1.0 0.009803921568644696  0.0 4  1.0 4 
7 0 0  2 3 2  0.2430379746835453 0.11971830985915154  0.48227848101265597 0.05985915492957577  0.7215189873417667 0.0  0.0 3  1.0 3 
7 0 0  3 4 2  0.0 0.9901960784313727  0.3333333333322922 0.9901960784313727  0.6666666666671714 0.9901960784313727  1.0 0.9901960784313727  0.0 4  1.0 4 
7 0 0  2 3 2  1.0 0.009803921568644696  1.0 0.5000000000000087  1.0 0.9901960784313727  0.0 3  1.0 3 
7 0 0  2 3 2  0.0 0.009803921568638626  0.0 0.5000000000000057  0.0 0.9901960784313727  0.0 3  1.0 3 
7 0 0  2 3 2  0.6911392405063272 0.5915492957746509  0.6936708860759478 0.4771126760563347  0.6962025316455684 0.36267605633801847  0.0 3  1.0 3 
7 0 0  3 4 2  -0.0 0.009803921568638626  0.3333333333374615 0.00980392156862734  0.6666666666648319 0.009803921568644338  1.0 0.009803921568638626  0.0 4  1.0 4 
7 0 0  2 3 2  0.6911392405063272 0.5915492957746509  0.6936708860759478 0.4771126760563347  0.6962025316455684 0.36267605633801847  0.0 3  1.0 3 
7 0 0  3 4 2  -0.0 0.9901960784313727  0.3333333333374615 0.9901960784313727  0.6666666666648319 0.9901960784313727  1.0 0.9901960784313727  0.0 4  1.0 4 
7 0 0  2 3 2  0.3999999999999985 0.6795774647887273  0.5455696202531629 0.6355633802816891  0.6911392405063272 0.5915492957746509  0.0 3  1.0 3 
7 0 0  3 4 2  0.0 0.009803921568644696  0.3333333333304383 0.00980392156862728  0.6666666666676173 0.00980392156864971  1.0 0.009803921568644696  0.0 4  1.0 4 
7 0 0  2 3 2  0.3999999999999985 0.6795774647887273  0.5455696202531629 0.6355633802816891  0.6911392405063272 0.5915492957746509  0.0 3  1.0 3 
7 0 0  3 4 2  0.0 0.9901960784313727  0.3333333333304383 0.9901960784313727  0.6666666666676173 0.9901960784313727  1.0 0.9901960784313727  0.0 4  1.0 4 
7 0 0  2 3 2  0.7215189873417667 0.0  0.8607594936708833 0.14260563380281688  1.0 0.28521126760563376  0.0 3  1.0 3 
7 0 0  3 4 2  0.0 0.009803921568644557  0.33333333333091203 0.00980392156862728  0.6666666666670823 0.009803921568649294  1.0 0.009803921568644557  0.0 4  1.0 4 
7 0 0  2 3 2  1.0 0.009803921568632693  1.0 0.5000000000000027  1.0 0.9901960784313726  0.0 3  1.0 3 
7 0 0  2 3 2  1.0 0.009803921568644557  1.0 0.5000000000000087  1.0 0.9901960784313727  0.0 3  1.0 3 
7 0 0  2 3 2  0.7215189873417667 0.0  0.8607594936708833 0.14260563380281688  1.0 0.28521126760563376  0.0 3  1.0 3 
7 0 0  3 4 2  0.0 0.9901960784313727  0.33333333333091203 0.9901960784313727  0.6666666666670823 0.9901960784313727  1.0 0.9901960784313727  0.0 4  1.0 4 
7 0 0  2 3 2  1.0 0.009803921568636693  1.0 0.5000000000000047  1.0 0.9901960784313727  0.0 3  1.0 3 
7 0 0  2 3 2  0.0 0.009803921568632693  0.0 0.5000000000000027  0.0 0.9901960784313726  0.0 3  1.0 3 
7 0 0  2 3 2  0.9746835443037942 0.7640845070422608  0.9873417721518971 0.5246478873239473  1.0 0.28521126760563376  0.0 3  1.0 3 
7 0 0  3 4 2  -0.0 0.009803921568632693  0.3333333333331287 0.009803921568627399  0.6666666666673974 0.009803921568627817  1.0 0.009803921568632693  0.0 4  1.0 4 
7 0 0  2 3 2  0.9746835443037942 0.7640845070422608  0.9873417721518971 0.5246478873239473  1.0 0.28521126760563376  0.0 3  1.0 3 
7 0 0  3 4 2  -0.0 0.9901960784313726  0.3333333333331287 0.9901960784313726  0.6666666666673974 0.9901960784313726  1.0 0.9901960784313726  0.0 4  1.0 4 
7 0 0  2 3 2  1.0 0.00980392156863352  1.0 0.500000000000003  1.0 0.9901960784313726  0.0 3  1.0 3 
7 0 0  2 3 2  0.0 0.009803921568636693  0.0 0.5000000000000047  0.0 0.9901960784313727  0.0 3  1.0 3 
7 0 0  2 3 2  0.7493670886075929 0.7887323943662081  0.8620253164556936 0.7764084507042345  0.9746835443037942 0.7640845070422608  0.0 3  1.0 3 
7 0 0  3 4 2  0.0 0.009803921568636693  0.33333333333144616 0.009803921568627359  0.6666666666673813 0.009803921568640456  1.0 0.009803921568636693  0.0 4  1.0 4 
7 0 0  2 3 2  0.7493670886075929 0.7887323943662081  0.8620253164556936 0.7764084507042345  0.9746835443037942 0.7640845070422608  0.0 3  1.0 3 
7 0 0  3 4 2  0.0 0.9901960784313727  0.33333333333144616 0.9901960784313727  0.6666666666673813 0.9901960784313727  1.0 0.9901960784313727  0.0 4  1.0 4 
7 0 0  2 3 2  1.0 0.009803921568642765  1.0 0.5000000000000078  1.0 0.9901960784313727  0.0 3  1.0 3 
7 0 0  2 3 2  0.0 0.00980392156863352  0.0 0.500000000000003  0.0 0.9901960784313726  0.0 3  1.0 3 
7 0 0  2 3 2  0.6000000000000015 0.9859154929577655  0.6746835443037973 0.8873239436619869  0.7493670886075929 0.7887323943662081  0.0 3  1.0 3 
7 0 0  3 4 2  0.0 0.00980392156863352  0.3333333333319858 0.00980392156862739  0.6666666666663972 0.009803921568630455  1.0 0.00980392156863352  0.0 4  1.0 4 
7 0 0  2 3 2  0.6000000000000015 0.9859154929577655  0.6746835443037973 0.8873239436619869  0.7493670886075929 0.7887323943662081  0.0 3  1.0 3 
7 0 0  3 4 2  0.0 0.9901960784313726  0.3333333333319858 0.9901960784313726  0.6666666666663972 0.9901960784313726  1.0 0.9901960784313726  0.0 4  1.0 4 
7 0 0  2 3 2  0.283544303797467 1.0  0.44177215189873426 0.9929577464788828  0.6000000000000015 0.9859154929577655  0.0 3  1.0 3 
7 0 0  3 4 2  0.0 0.009803921568642765  0.3333333333328563 0.0098039215686273  0.666666666666285 0.00980392156864764  1.0 0.009803921568642765  0.0 4  1.0 4 
7 0 0  2 3 2  0.283544303797467 1.0  0.44177215189873426 0.9929577464788828  0.6000000000000015 0.9859154929577655  0.0 3  1.0 3 
7 0 0  3 4 2  0.0 0.9901960784313727  0.3333333333328563 0.9901960784313727  0.666666666666285 0.9901960784313727  1.0 0.9901960784313727  0.0 4  1.0 4 
Curves 77
7 0 0  2 3 2  -685222.653256705 -1125078.6672140122 -100.0  -685222.653256705 -1125078.6672140122 -50.0  -685222.653256705 -1125078.6672140122 0.0  0.0 3  1.0 3 
7 0 0  2 3 2  -685222.653256705 -1125078.6672140122 -100.0  -685222.653256705 -1125078.6672140122 -50.0  -685222.653256705 -1125078.6672140122 0.0  0.0 3  1.0 3 
7 0 0  2 3 2  -685222.653256705 -1125078.6672140122 -100.0  -685222.653256705 -1125078.6672140122 -50.0  -685222.653256705 -1125078.6672140122 0.0  0.0 3  1.0 3 
7 0 0  2 3 2  -685222.653256705 -1125078.6672140122 -100.0  -685222.653256705 -1125078.6672140122 -50.0  -685222.653256705 -1125078.6672140122 0.0  0.0 3  1.0 3 
7 0 0  3 4 2  -685222.653256705 -1125078.6672140122 -100.0  -684623.9440795522 -1126263.0701514366 -100.00000000000092  -684025.2349023903 -1127447.4730888507 -99.99999999999979  -683426.5257252327 -1128631.8760262728 -100.0  0.0 4  1.0 4 
7 0 0  2 3 2  -683426.5257252327 -1128631.8760262728 -100.0  -683426.5257252327 -1128631.8760262728 -50.0  -683426.5257252327 -1128631.8760262728 0.0  0.0 3  1.0 3 
7 0 0  2 3 2  -683426.5257252327 -1128631.8760262728 -100.0  -683426.5257252327 -1128631.8760262728 -50.0  -683426.5257252327 -1128631.8760262728 0.0  0.0 3  1.0 3 
7 0 0  2 3 2  -683426.5257252327 -1128631.8760262728 -100.0  -683426.5257252327 -1128631.8760262728 -50.0  -683426.5257252327 -1128631.8760262728 0.0  0.0 3  1.0 3 
7 0 0  2 3 2  -683426.5257252327 -1128631.8760262728 -100.0  -683426.5257252327 -1128631.8760262728 -50.0  -683426.5257252327 -1128631.8760262728 0.0  0.0 3  1.0 3 
7 0 0  3 4 2  -685222.653256705 -1125078.6672140122 0.0  -684623.9440795522 -1126263.0701514366 0.0  -684025.2349023903 -1127447.4730888507 0.0  -683426.5257252327 -1128631.8760262728 0.0  0.0 4  1.0 4 
7 0 0  2 3 2  -689595.8333333334 -1129451.8472906405 -100.0  -689595.8333333334 -1129451.8472906405 -50.0  -689595.8333333334 -1129451.8472906405 0.0  0.0 3  1.0 3 
7 0 0  2 3 2  -689595.8333333334 -1129451.8472906405 -100.0  -689595.8333333334 -1129451.8472906405 -50.0  -689595.8333333334 -1129451.8472906405 0.0  0.0 3  1.0 3 
7 0 0  2 3 2  -689595.8333333334 -1129451.8472906405 -100.0  -689595.8333333334 -1129451.8472906405 -50.0  -689595.8333333334 -1129451.8472906405 0.0  0.0 3  1.0 3 
7 0 0  3 4 2  -689595.8333333334 -1129451.8472906405 -100.0  -688138.1066411292 -1127994.1205984403 -100.00000000000065  -686680.3799489118 -1126536.3939062203 -99.99999999999987  -685222.653256705 -1125078.6672140122 -100.0  0.0 4  1.0 4 
7 0 0  3 4 2  -689595.8333333334 -1129451.8472906405 0.0  -688138.1066411292 -1127994.1205984403 0.0  -686680.3799489118 -1126536.3939062203 0.0  -685222.653256705 -1125078.6672140122 0.0  0.0 4  1.0 4 
7 0 0  3 4 2  -689595.8333333334 -1129451.8472906405 -100.0  -688346.3533114406 -1131247.9748221254 -100.0000000000011  -687096.8732895456 -1133044.102353583 -99.99999999999974  -685847.3932676519 -1134840.2298850575 -100.0  0.0 4  1.0 4 
7 0 0  2 3 2  -685847.3932676519 -1134840.2298850575 -100.0  -685847.3932676519 -1134840.2298850575 -50.0  -685847.3932676519 -1134840.2298850575 0.0  0.0 3  1.0 3 
7 0 0  2 3 2  -685847.3932676519 -1134840.2298850575 -100.0  -685847.3932676519 -1134840.2298850575 -50.0  -685847.3932676519 -1134840.2298850575 0.0  0.0 3  1.0 3 
7 0 0  2 3 2  -685847.3932676519 -1134840.2298850575 -100.0  -685847.3932676519 -1134840.2298850575 -50.0  -685847.3932676519 -1134840.2298850575 0.0  0.0 3  1.0 3 
7 0 0  2 3 2  -685847.3932676519 -1134840.2298850575 -100.0  -685847.3932676519 -1134840.2298850575 -50.0  -685847.3932676519 -1134840.2298850575 0.0  0.0 3  1.0 3 
7 0 0  3 4 2  -689595.8333333334 -1129451.8472906405 0.0  -688346.3533114406 -1131247.9748221254 0.0  -687096.8732895456 -1133044.102353583 0.0  -685847.3932676519 -1134840.2298850575 0.0  0.0 4  1.0 4 
7 0 0  3 4 2  -685847.3932676519 -1134840.2298850575 -100.0  -685235.6686736038 -1133981.212370012 -100.00000000000075  -684623.9440795494 -1133122.194854956 -100.00000000000013  -684012.2194854954 -1132263.1773399014 -100.0  0.0 4  1.0 4 
7 0 0  2 3 2  -684012.2194854954 -1132263.1773399014 -100.0  -684012.2194854954 -1132263.1773399014 -50.0  -684012.2194854954 -1132263.1773399014 0.0  0.0 3  1.0 3 
7 0 0  2 3 2  -684012.2194854954 -1132263.1773399014 -100.0  -684012.2194854954 -1132263.1773399014 -50.0  -684012.2194854954 -1132263.1773399014 0.0  0.0 3  1.0 3 
7 0 0  2 3 2  -684012.2194854954 -1132263.1773399014 -100.0  -684012.2194854954 -1132263.1773399014 -50.0  -684012.2194854954 -1132263.1773399014 0.0  0.0 3  1.0 3 
7 0 0  2 3 2  -684012.2194854954 -1132263.1773399014 -100.0  -684012.2194854954 -1132263.1773399014 -50.0  -684012.2194854954 -1132263.1773399014 0.0  0.0 3  1.0 3 
7 0 0  3 4 2  -685847.3932676519 -1134840.2298850575 0.0  -685235.6686736038 -1133981.212370012 0.0  -684623.9440795494 -1133122.194854956 0.0  -684012.2194854954 -1132263.1773399014 0.0  0.0 4  1.0 4 
7 0 0  2 3 2  -685456.9307608102 -1130428.0035577451 -100.0  -685456.9307608102 -1130428.0035577451 -50.0  -685456.9307608102 -1130428.0035577451 0.0  0.0 3  1.0 3 
7 0 0  2 3 2  -685456.9307608102 -1130428.0035577451 -100.0  -685456.9307608102 -1130428.0035577451 -50.0  -685456.9307608102 -1130428.0035577451 0.0  0.0 3  1.0 3 
7 0 0  2 3 2  -685456.9307608102 -1130428.0035577451 -100.0  -685456.9307608102 -1130428.0035577451 -50.0  -685456.9307608102 -1130428.0035577451 0.0  0.0 3  1.0 3 
7 0 0  3 4 2  -685456.9307608102 -1130428.0035577451 -100.0  -684975.3603357157 -1131039.7281518145 -100.00000000000158  -684493.7899105982 -1131651.4527458479 -99.99999999999963  -684012.2194854954 -1132263.1773399014 -100.0  0.0 4  1.0 4 
7 0 0  3 4 2  -685456.9307608102 -1130428.0035577451 0.0  -684975.3603357157 -1131039.7281518145 0.0  -684493.7899105982 -1131651.4527458479 0.0  -684012.2194854954 -1132263.1773399014 0.0  0.0 4  1.0 4 
7 0 0  3 4 2  -685456.9307608102 -1130428.0035577451 -100.0  -684780.1290822924 -1129829.2943806027 -100.00000000000124  -684103.3274037564 -1129230.585203428 -99.99999999999959  -683426.5257252327 -1128631.8760262728 -100.0  0.0 4  1.0 4 
7 0 0  3 4 2  -685456.9307608102 -1130428.0035577451 0.0  -684780.1290822924 -1129829.2943806027 0.0  -684103.3274037564 -1129230.585203428 0.0  -683426.5257252327 -1128631.8760262728 0.0  0.0 4  1.0 4 
7 0 0  2 3 2  -678858.1143951834 -1132146.0385878491 -100.0  -678858.1143951834 -1132146.0385878491 -50.0  -678858.1143951834 -1132146.0385878491 0.0  0.0 3  1.0 3 
7 0 0  2 3 2  -678858.1143951834 -1132146.0385878491 -100.0  -678858.1143951834 -1132146.0385878491 -50.0  -678858.1143951834 -1132146.0385878491 0.0  0.0 3  1.0 3 
7 0 0  2 3 2  -678858.1143951834 -1132146.0385878491 -100.0  -678858.1143951834 -1132146.0385878491 -50.0  -678858.1143951834 -1132146.0385878491 0.0  0.0 3  1.0 3 
7 0 0  2 3 2  -678858.1143951834 -1132146.0385878491 -100.0  -678858.1143951834 -1132146.0385878491 -50.0  -678858.1143951834 -1132146.0385878491 0.0  0.0 3  1.0 3 
7 0 0  3 4 2  -678858.1143951834 -1132146.0385878491 -100.0  -678727.960226238 -1133486.6265280123 -100.00000000000063  -678597.8060572889 -1134827.2144681597 -99.99999999999984  -678467.6518883416 -1136167.8024083197 -100.0  0.0 4  1.0 4 
7 0 0  2 3 2  -678467.6518883416 -1136167.8024083197 -100.0  -678467.6518883416 -1136167.8024083197 -50.0  -678467.6518883416 -1136167.8024083197 0.0  0.0 3  1.0 3 
7 0 0  2 3 2  -678467.6518883416 -1136167.8024083197 -100.0  -678467.6518883416 -1136167.8024083197 -50.0  -678467.6518883416 -1136167.8024083197 0.0  0.0 3  1.0 3 
7 0 0  2 3 2  -678467.6518883416 -1136167.8024083197 -100.0  -678467.6518883416 -1136167.8024083197 -50.0  -678467.6518883416 -1136167.8024083197 0.0  0.0 3  1.0 3 
7 0 0  2 3 2  -678467.6518883416 -1136167.8024083197 -100.0  -678467.6518883416 -1136167.8024083197 -50.0  -678467.6518883416 -1136167.8024083197 0.0  0.0 3  1.0 3 
7 0 0  3 4 2  -678858.1143951834 -1132146.0385878491 0.0  -678727.960226238 -1133486.6265280123 0.0  -678597.8060572889 -1134827.2144681597 0.0  -678467.6518883416 -1136167.8024083197 0.0  0.0 4  1.0 4 
7 0 0  3 4 2  -684012.2194854954 -1132263.1773399014 -100.0  -682294.1844553988 -1132224.131089235 -100.00000000000094  -680576.1494252852 -1132185.0848385282 -99.99999999999991  -678858.1143951834 -1132146.0385878491 -100.0  0.0 4  1.0 4 
7 0 0  3 4 2  -684012.2194854954 -1132263.1773399014 0.0  -682294.1844553988 -1132224.131089235 0.0  -680576.1494252852 -1132185.0848385282 0.0  -678858.1143951834 -1132146.0385878491 0.0  0.0 4  1.0 4 
7 0 0  3 4 2  -685847.3932676519 -1134840.2298850575 -100.0  -683387.4794745562 -1135282.7540595012 -100.00000000000178  -680927.5656814413 -1135725.2782338914 -99.99999999999903  -678467.6518883416 -1136167.8024083197 -100.0  0.0 4  1.0 4 
7 0 0  3 4 2  -685847.3932676519 -1134840.2298850575 0.0  -683387.4794745562 -1135282.7540595012 0.0  -680927.5656814413 -1135725.2782338914 0.0  -678467.6518883416 -1136167.8024083197 0.0  0.0 4  1.0 4 
7 0 0  2 3 2  -678936.2068965518 -1129608.0322933772 -100.0  -678936.2068965518 -1129608.0322933772 -50.0  -678936.2068965518 -1129608.0322933772 0.0  0.0 3  1.0 3 
7 0 0  2 3 2  -678936.2068965518 -1129608.0322933772 -100.0  -678936.2068965518 -1129608.0322933772 -50.0  -678936.2068965518 -1129608.0322933772 0.0  0.0 3  1.0 3 
7 0 0  2 3 2  -678936.2068965518 -1129608.0322933772 -100.0  -678936.2068965518 -1129608.0322933772 -50.0  -678936.2068965518 -1129608.0322933772 0.0  0.0 3  1.0 3 
7 0 0  3 4 2  -678936.2068965518 -1129608.0322933772 -100.0  -678910.1760627727 -1130454.034391545 -100.00000000000115  -678884.145228968 -1131300.0364896872 -99.99999999999942  -678858.1143951834 -1132146.0385878491 -100.0  0.0 4  1.0 4 
7 0 0  3 4 2  -678936.2068965518 -1129608.0322933772 0.0  -678910.1760627727 -1130454.034391545 0.0  -678884.145228968 -1131300.0364896872 0.0  -678858.1143951834 -1132146.0385878491 0.0  0.0 4  1.0 4 
7 0 0  3 4 2  -683426.5257252327 -1128631.8760262728 -100.0  -681929.752782352 -1128957.2614486578 -100.00000000000178  -680432.9798394411 -1129282.646871005 -99.99999999999949  -678936.2068965518 -1129608.0322933772 -100.0  0.0 4  1.0 4 
7 0 0  3 4 2  -683426.5257252327 -1128631.8760262728 0.0  -681929.752782352 -1128957.2614486578 0.0  -680432.9798394411 -1129282.646871005 0.0  -678936.2068965518 -1129608.0322933772 0.0  0.0 4  1.0 4 
7 0 0  3 4 2  -678467.6518883416 -1136167.8024083197 -100.0  -677035.956029932 -1135113.5536398627 -100.00000000000176  -675604.2601714998 -1134059.304871367 -99.99999999999952  -674172.5643130816 -1133005.056102901 -100.0  0.0 4  1.0 4 
7 0 0  2 3 2  -674172.5643130816 -1133005.056102901 -100.0  -674172.5643130816 -1133005.056102901 -50.0  -674172.5643130816 -1133005.056102901 0.0  0.0 3  1.0 3 
7 0 0  2 3 2  -674172.5643130816 -1133005.056102901 -100.0  -674172.5643130816 -1133005.056102901 -50.0  -674172.5643130816 -1133005.056102901 0.0  0.0 3  1.0 3 
7 0 0  2 3 2  -674172.5643130816 -1133005.056102901 -100.0  -674172.5643130816 -1133005.056102901 -50.0  -674172.5643130816 -1133005.056102901 0.0  0.0 3  1.0 3 
7 0 0  3 4 2  -678467.6518883416 -1136167.8024083197 0.0  -677035.956029932 -1135113.5536398627 0.0  -675604.2601714998 -1134059.304871367 0.0  -674172.5643130816 -1133005.056102901 0.0  0.0 4  1.0 4 
7 0 0  2 3 2  -674563.0268199234 -1127694.7660098523 -100.0  -674563.0268199234 -1127694.7660098523 -50.0  -674563.0268199234 -1127694.7660098523 0.0  0.0 3  1.0 3 
7 0 0  2 3 2  -674563.0268199234 -1127694.7660098523 -100.0  -674563.0268199234 -1127694.7660098523 -50.0  -674563.0268199234 -1127694.7660098523 0.0  0.0 3  1.0 3 
7 0 0  2 3 2  -674563.0268199234 -1127694.7660098523 -100.0  -674563.0268199234 -1127694.7660098523 -50.0  -674563.0268199234 -1127694.7660098523 0.0  0.0 3  1.0 3 
7 0 0  3 4 2  -674563.0268199234 -1127694.7660098523 -100.0  -674432.8726509777 -1129464.862707534 -100.00000000000054  -674302.7184820331 -1131234.959405222 -100.0000000000005  -674172.5643130816 -1133005.056102901 -100.0  0.0 4  1.0 4 
7 0 0  3 4 2  -674563.0268199234 -1127694.7660098523 0.0  -674432.8726509777 -1129464.862707534 0.0  -674302.7184820331 -1131234.959405222 0.0  -674172.5643130816 -1133005.056102901 0.0  0.0 4  1.0 4 
7 0 0  2 3 2  -678038.1431308156 -1127421.442255063 -100.0  -678038.1431308156 -1127421.442255063 -50.0  -678038.1431308156 -1127421.442255063 0.0  0.0 3  1.0 3 
7 0 0  2 3 2  -678038.1431308156 -1127421.442255063 -100.0  -678038.1431308156 -1127421.442255063 -50.0  -678038.1431308156 -1127421.442255063 0.0  0.0 3  1.0 3 
7 0 0  2 3 2  -678038.1431308156 -1127421.442255063 -100.0  -678038.1431308156 -1127421.442255063 -50.0  -678038.1431308156 -1127421.442255063 0.0  0.0 3  1.0 3 
7 0 0  3 4 2  -678038.1431308156 -1127421.442255063 -100.0  -676879.7710271914 -1127512.5501733343 -100.00000000000095  -675721.3989235517 -1127603.6580915842 -99.99999999999962  -674563.0268199234 -1127694.7660098523 -100.0  0.0 4  1.0 4 
7 0 0  3 4 2  -678038.1431308156 -1127421.442255063 0.0  -676879.7710271914 -1127512.5501733343 0.0  -675721.3989235517 -1127603.6580915842 0.0  -674563.0268199234 -1127694.7660098523 0.0  0.0 4  1.0 4 
7 0 0  2 3 2  -680341.8719211823 -1125234.8522167488 -100.0  -680341.8719211823 -1125234.8522167488 -50.0  -680341.8719211823 -1125234.8522167488 0.0  0.0 3  1.0 3 
7 0 0  2 3 2  -680341.8719211823 -1125234.8522167488 -100.0  -680341.8719211823 -1125234.8522167488 -50.0  -680341.8719211823 -1125234.8522167488 0.0  0.0 3  1.0 3 
7 0 0  2 3 2  -680341.8719211823 -1125234.8522167488 -100.0  -680341.8719211823 -1125234.8522167488 -50.0  -680341.8719211823 -1125234.8522167488 0.0  0.0 3  1.0 3 
7 0 0  3 4 2  -680341.8719211823 -1125234.8522167488 -100.0  -679573.9623243965 -1125963.7155628623 -100.00000000000063  -678806.0527276051 -1126692.5789089599 -100.00000000000031  -678038.1431308156 -1127421.442255063 -100.0  0.0 4  1.0 4 
7 0 0  3 4 2  -680341.8719211823 -1125234.8522167488 0.0  -679573.9623243965 -1125963.7155628623 0.0  -678806.0527276051 -1126692.5789089599 0.0  -678038.1431308156 -1127421.442255063 0.0  0.0 4  1.0 4 
7 0 0  3 4 2  -685222.653256705 -1125078.6672140122 -100.0  -683595.7261448664 -1125130.7288816085 -100.00000000000158  -681968.799033025 -1125182.7905491628 -99.9999999999995  -680341.8719211823 -1125234.8522167488 -100.0  0.0 4  1.0 4 
7 0 0  3 4 2  -685222.653256705 -1125078.6672140122 0.0  -683595.7261448664 -1125130.7288816085 0.0  -681968.799033025 -1125182.7905491628 0.0  -680341.8719211823 -1125234.8522167488 0.0  0.0 4  1.0 4 
Polygon3D 0
PolygonOnTriangulations 0
Surfaces 18
9 0 0 0 0  2 2 3 3  2 2  -685222.653256705 -1125078.6672140122 -101.00000000000092  -685222.653256705 -1125078.6672140122 -50.00000000000046  -685222.653256705 -1125078.6672140122 1.0   -684324.5894909689 -1126855.2716201425 -101.00000000000092  -684324.5894909689 -1126855.2716201425 -50.00000000000046  -684324.5894909689 -1126855.2716201425 1.0   -683426.5257252327 -1128631.8760262728 -101.00000000000092  -683426.5257252327 -1128631.8760262728 -50.00000000000046  -683426.5257252327 -1128631.8760262728 1.0   0.0 3  1.0 3  0.0 3  1.0 3 
9 0 0 0 0  2 2 3 3  2 2  -689595.8333333334 -1129451.8472906405 -101.00000000000065  -689595.8333333334 -1129451.8472906405 -50.00000000000033  -689595.8333333334 -1129451.8472906405 1.0   -687409.2432950193 -1127265.2572523262 -101.00000000000065  -687409.2432950193 -1127265.2572523262 -50.00000000000033  -687409.2432950193 -1127265.2572523262 1.0   -685222.653256705 -1125078.6672140122 -101.00000000000065  -685222.653256705 -1125078.6672140122 -50.00000000000033  -685222.6532567051 -1125078.667214012 1.0   0.0 3  1.0 3  0.0 3  1.0 3 
9 0 0 0 0  2 2 3 3  2 2  -685222.653256705 -1125078.6672140122 -101.00000000000158  -685222.653256705 -1125078.6672140122 -50.00000000000079  -685222.653256705 -1125078.6672140122 1.0   -682782.2625889436 -1125156.7597153806 -101.00000000000158  -682782.2625889436 -1125156.7597153806 -50.00000000000079  -682782.2625889436 -1125156.7597153806 1.0   -680341.8719211823 -1125234.8522167488 -101.00000000000158  -680341.8719211821 -1125234.852216749 -50.00000000000079  -680341.8719211821 -1125234.852216749 1.0   0.0 3  1.0 3  0.0 3  1.0 3 
9 0 0 0 0  2 2 3 3  2 2  -689595.8333333334 -1136167.8024083197 -100.0  -689595.8333333334 -1130623.2348111658 -100.0  -689595.8333333334 -1125078.6672140122 -100.0   -681884.1988232075 -1136167.8024083197 -100.0  -681884.1988232075 -1130623.2348111658 -100.0  -681884.1988232075 -1125078.6672140122 -100.0   -674172.5643130816 -1136167.8024083197 -100.0  -674172.5643130816 -1130623.2348111658 -100.0  -674172.5643130816 -1125078.6672140122 -100.0   0.0 3  1.0 3  0.0 3  1.0 3 
9 0 0 0 0  2 2 3 3  2 2  -685456.9307608102 -1130428.0035577451 -101.00000000000124  -685456.9307608102 -1130428.0035577451 -50.00000000000062  -685456.9307608102 -1130428.0035577451 1.0   -684441.7282430214 -1129529.939792009 -101.00000000000124  -684441.7282430214 -1129529.939792009 -50.00000000000062  -684441.7282430214 -1129529.939792009 1.0   -683426.5257252327 -1128631.8760262728 -101.00000000000124  -683426.5257252327 -1128631.8760262728 -50.00000000000062  -683426.5257252327 -1128631.876026273 1.0   0.0 3  1.0 3  0.0 3  1.0 3 
9 0 0 0 0  2 2 3 3  2 2  -683426.5257252327 -1128631.8760262728 -101.00000000000178  -683426.5257252327 -1128631.8760262728 -50.00000000000089  -683426.5257252327 -1128631.8760262728 1.0   -681181.3663108922 -1129119.954159825 -101.00000000000178  -681181.3663108922 -1129119.954159825 -50.00000000000089  -681181.3663108922 -1129119.954159825 1.0   -678936.2068965518 -1129608.0322933772 -101.00000000000178  -678936.2068965517 -1129608.0322933774 -50.00000000000089  -678936.2068965517 -1129608.0322933774 1.0   0.0 3  1.0 3  0.0 3  1.0 3 
9 0 0 0 0  2 2 3 3  2 2  -689595.8333333334 -1136167.8024083197 0.0  -689595.8333333334 -1130623.2348111658 0.0  -689595.8333333334 -1125078.6672140122 0.0   -681884.1988232075 -1136167.8024083197 0.0  -681884.1988232075 -1130623.2348111658 0.0  -681884.1988232075 -1125078.6672140122 0.0   -674172.5643130816 -1136167.8024083197 0.0  -674172.5643130816 -1130623.2348111658 0.0  -674172.5643130816 -1125078.6672140122 0.0   0.0 3  1.0 3  0.0 3  1.0 3 
9 0 0 0 0  2 2 3 3  2 2  -689595.8333333334 -1129451.8472906405 -101.0000000000011  -689595.8333333334 -1129451.8472906405 -50.00000000000055  -689595.8333333334 -1129451.8472906405 1.0   -687721.6133004926 -1132146.0385878491 -101.0000000000011  -687721.6133004926 -1132146.0385878491 -50.00000000000055  -687721.6133004926 -1132146.0385878491 1.0   -685847.3932676519 -1134840.2298850575 -101.0000000000011  -685847.3932676519 -1134840.2298850575 -50.00000000000055  -685847.3932676519 -1134840.2298850578 1.0   0.0 3  1.0 3  0.0 3  1.0 3 
9 0 0 0 0  2 2 3 3  2 2  -685847.3932676519 -1134840.2298850575 -101.00000000000178  -685847.3932676519 -1134840.2298850575 -50.00000000000089  -685847.3932676519 -1134840.2298850575 1.0   -682157.5225779968 -1135504.0161466887 -101.00000000000178  -682157.5225779968 -1135504.0161466887 -50.00000000000089  -682157.5225779968 -1135504.0161466887 1.0   -678467.6518883416 -1136167.8024083197 -101.00000000000178  -678467.6518883416 -1136167.80240832 -50.00000000000089  -678467.6518883418 -1136167.80240832 1.0   0.0 3  1.0 3  0.0 3  1.0 3 
9 0 0 0 0  2 2 3 3  2 2  -685847.3932676519 -1134840.2298850575 -101.00000000000075  -685847.3932676519 -1134840.2298850575 -50.00000000000038  -685847.3932676519 -1134840.2298850575 1.0   -684929.8063765736 -1133551.7036124794 -101.00000000000075  -684929.8063765736 -1133551.7036124794 -50.00000000000038  -684929.8063765736 -1133551.7036124794 1.0   -684012.2194854954 -1132263.1773399014 -101.00000000000075  -684012.2194854954 -1132263.1773399012 -50.00000000000038  -684012.2194854954 -1132263.1773399012 1.0   0.0 3  1.0 3  0.0 3  1.0 3 
9 0 0 0 0  2 2 3 3  2 2  -685456.9307608102 -1130428.0035577451 -101.00000000000158  -685456.9307608102 -1130428.0035577451 -50.00000000000079  -685456.9307608102 -1130428.0035577451 1.0   -684734.5751231527 -1131345.5904488233 -101.00000000000158  -684734.5751231527 -1131345.5904488233 -50.00000000000079  -684734.5751231527 -1131345.5904488233 1.0   -684012.2194854954 -1132263.1773399014 -101.00000000000158  -684012.2194854952 -1132263.1773399014 -50.00000000000079  -684012.2194854952 -1132263.1773399014 1.0   0.0 3  1.0 3  0.0 3  1.0 3 
9 0 0 0 0  2 2 3 3  2 2  -684012.2194854954 -1132263.1773399014 -101.00000000000094  -684012.2194854954 -1132263.1773399014 -50.00000000000047  -684012.2194854954 -1132263.1773399014 1.0   -681435.1669403394 -1132204.6079638754 -101.00000000000094  -681435.1669403394 -1132204.6079638754 -50.00000000000047  -681435.1669403394 -1132204.6079638754 1.0   -678858.1143951834 -1132146.0385878491 -101.00000000000094  -678858.1143951834 -1132146.0385878491 -50.00000000000047  -678858.1143951834 -1132146.0385878494 1.0   0.0 3  1.0 3  0.0 3  1.0 3 
9 0 0 0 0  2 2 3 3  2 2  -678858.1143951834 -1132146.0385878491 -101.00000000000063  -678858.1143951834 -1132146.0385878491 -50.00000000000031  -678858.1143951834 -1132146.0385878491 1.0   -678662.8831417626 -1134156.9204980843 -101.00000000000063  -678662.8831417626 -1134156.9204980843 -50.00000000000031  -678662.8831417626 -1134156.9204980843 1.0   -678467.6518883416 -1136167.8024083197 -101.00000000000063  -678467.6518883416 -1136167.8024083194 -50.00000000000031  -678467.6518883418 -1136167.8024083194 1.0   0.0 3  1.0 3  0.0 3  1.0 3 
9 0 0 0 0  2 2 3 3  2 2  -678936.2068965518 -1129608.0322933772 -101.00000000000115  -678936.2068965518 -1129608.0322933772 -50.000000000000576  -678936.2068965518 -1129608.0322933772 1.0   -678897.1606458676 -1130877.035440613 -101.00000000000115  -678897.1606458676 -1130877.035440613 -50.000000000000576  -678897.1606458676 -1130877.035440613 1.0   -678858.1143951834 -1132146.0385878491 -101.00000000000115  -678858.1143951834 -1132146.0385878491 -50.000000000000576  -678858.1143951834 -1132146.038587849 1.0   0.0 3  1.0 3  0.0 3  1.0 3 
9 0 0 0 0  2 2 3 3  2 2  -678467.6518883416 -1136167.8024083197 -101.00000000000176  -678467.6518883416 -1136167.8024083197 -50.00000000000088  -678467.6518883416 -1136167.8024083197 1.0   -676320.1081007116 -1134586.4292556103 -101.00000000000176  -676320.1081007116 -1134586.4292556103 -50.00000000000088  -676320.1081007116 -1134586.4292556103 1.0   -674172.5643130816 -1133005.056102901 -101.00000000000176  -674172.5643130816 -1133005.056102901 -50.00000000000088  -674172.5643130816 -1133005.056102901 1.0   0.0 3  1.0 3  0.0 3  1.0 3 
9 0 0 0 0  2 2 3 3  2 2  -674563.0268199234 -1127694.7660098523 -101.00000000000054  -674563.0268199234 -1127694.7660098523 -50.00000000000027  -674563.0268199234 -1127694.7660098523 1.0   -674367.7955665025 -1130349.9110563765 -101.00000000000054  -674367.7955665025 -1130349.9110563765 -50.00000000000027  -674367.7955665025 -1130349.9110563765 1.0   -674172.5643130816 -1133005.056102901 -101.00000000000054  -674172.5643130816 -1133005.0561029008 -50.00000000000027  -674172.5643130816 -1133005.0561029008 1.0   0.0 3  1.0 3  0.0 3  1.0 3 
9 0 0 0 0  2 2 3 3  2 2  -678038.1431308156 -1127421.442255063 -101.00000000000095  -678038.1431308156 -1127421.442255063 -50.000000000000476  -678038.1431308156 -1127421.442255063 1.0   -676300.5849753695 -1127558.1041324576 -101.00000000000095  -676300.5849753695 -1127558.1041324576 -50.000000000000476  -676300.5849753695 -1127558.1041324576 1.0   -674563.0268199234 -1127694.7660098523 -101.00000000000095  -674563.0268199234 -1127694.7660098523 -50.000000000000476  -674563.0268199234 -1127694.7660098523 1.0   0.0 3  1.0 3  0.0 3  1.0 3 
9 0 0 0 0  2 2 3 3  2 2  -680341.8719211823 -1125234.8522167488 -101.00000000000063  -680341.8719211823 -1125234.8522167488 -50.00000000000031  -680341.8719211823 -1125234.8522167488 1.0   -679190.0075259989 -1126328.1472359058 -101.00000000000063  -679190.0075259989 -1126328.1472359058 -50.00000000000031  -679190.0075259989 -1126328.1472359058 1.0   -678038.1431308156 -1127421.442255063 -101.00000000000063  -678038.1431308156 -1127421.442255063 -50.00000000000031  -678038.1431308155 -1127421.4422550627 1.0   0.0 3  1.0 3  0.0 3  1.0 3 
Triangulations 0

TShapes 128
Ve
0.001
-685222.653256705 -1125078.6672140122 -100.0 

0 0

0101000
*
Ve
0.001
-685222.653256705 -1125078.6672140122 0.0 

0 0

0101000
*
Ed
 0.001 1 1 0
1 1 0 0.0 1.0
1 2 0 0.0 1.0
2 1 2 0 0.0 1.0
1 3 0 0.0 1.0
2 2 3 0 0.0 1.0
1 4 0 0.0 1.0
2 3 1 0 0.0 1.0
0
0101000
+128 0 -127 0 *
Ve
0.001
-683426.5257252327 -1128631.8760262728 -100.0 

0 0

0101000
*
Ed
 0.001 1 1 0
1 5 0 0.0 1.0
2 4 4 0 0.0 1.0
2 5 1 0 0.0 1.0
0
0101000
+128 0 -125 0 *
Ve
0.001
-683426.5257252327 -1128631.8760262728 0.0 

0 0

0101000
*
Ed
 0.001 1 1 0
1 6 0 0.0 1.0
1 7 0 0.0 1.0
2 6 5 0 0.0 1.0
1 8 0 0.0 1.0
2 7 1 0 0.0 1.0
1 9 0 0.0 1.0
2 8 6 0 0.0 1.0
0
0101000
+125 0 -123 0 *
Ed
 0.001 1 1 0
1 10 0 0.0 1.0
2 9 7 0 0.0 1.0
2 10 1 0 0.0 1.0
0
0101000
+127 0 -123 0 *
Wi

0101100
-126 0 +124 0 +122 0 -121 0 *
Fa
0 0.001 1 0

0101000
+120 0 *
Ve
0.001
-689595.8333333334 -1129451.8472906405 -100.0 

0 0

0101000
*
Ve
0.001
-689595.8333333334 -1129451.8472906405 0.0 

0 0

0101000
*
Ed
 0.001 1 1 0
1 11 0 0.0 1.0
1 12 0 0.0 1.0
2 11 2 0 0.0 1.0
1 13 0 0.0 1.0
2 12 8 0 0.0 1.0
0
0101000
+118 0 -117 0 *
Ed
 0.001 1 1 0
1 14 0 0.0 1.0
2 13 4 0 0.0 1.0
2 14 2 0 0.0 1.0
0
0101000
+118 0 -128 0 *
Ed
 0.001 1 1 0
1 15 0 0.0 1.0
2 15 7 0 0.0 1.0
2 16 2 0 0.0 1.0
0
0101000
+117 0 -127 0 *
Wi

0101100
-116 0 +115 0 +126 0 -114 0 *
Fa
0 0.001 2 0

0101000
+113 0 *
Ve
0.001
-685847.3932676519 -1134840.2298850575 -100.0 

0 0

0101000
*
Ed
 0.001 1 1 0
1 16 0 0.0 1.0
2 17 4 0 0.0 1.0
2 18 8 0 0.0 1.0
0
0101000
+118 0 -111 0 *
Ve
0.001
-685847.3932676519 -1134840.2298850575 0.0 

0 0

0101000
*
Ed
 0.001 1 1 0
1 17 0 0.0 1.0
1 18 0 0.0 1.0
2 19 9 0 0.0 1.0
1 19 0 0.0 1.0
2 20 8 0 0.0 1.0
1 20 0 0.0 1.0
2 21 10 0 0.0 1.0
0
0101000
+111 0 -109 0 *
Ed
 0.001 1 1 0
1 21 0 0.0 1.0
2 22 7 0 0.0 1.0
2 23 8 0 0.0 1.0
0
0101000
+117 0 -109 0 *
Wi

0101100
-116 0 +110 0 +108 0 -107 0 *
Fa
0 0.001 8 0

0101000
+106 0 *
Ve
0.001
-684012.2194854954 -1132263.1773399014 -100.0 

0 0

0101000
*
Ed
 0.001 1 1 0
1 22 0 0.0 1.0
2 24 4 0 0.0 1.0
2 25 10 0 0.0 1.0
0
0101000
+111 0 -104 0 *
Ve
0.001
-684012.2194854954 -1132263.1773399014 0.0 

0 0

0101000
*
Ed
 0.001 1 1 0
1 23 0 0.0 1.0
1 24 0 0.0 1.0
2 26 10 0 0.0 1.0
1 25 0 0.0 1.0
2 27 11 0 0.0 1.0
1 26 0 0.0 1.0
2 28 12 0 0.0 1.0
0
0101000
+104 0 -102 0 *
Ed
 0.001 1 1 0
1 27 0 0.0 1.0
2 29 7 0 0.0 1.0
2 30 10 0 0.0 1.0
0
0101000
+109 0 -102 0 *
Wi

0101100
-108 0 +103 0 +101 0 -100 0 *
Fa
0 0.001 10 0

0101000
+99 0 *
Ve
0.001
-685456.9307608102 -1130428.0035577451 -100.0 

0 0

0101000
*
Ve
0.001
-685456.9307608102 -1130428.0035577451 0.0 

0 0

0101000
*
Ed
 0.001 1 1 0
1 28 0 0.0 1.0
1 29 0 0.0 1.0
2 31 11 0 0.0 1.0
1 30 0 0.0 1.0
2 32 5 0 0.0 1.0
0
0101000
+97 0 -96 0 *
Ed
 0.001 1 1 0
1 31 0 0.0 1.0
2 33 4 0 0.0 1.0
2 34 11 0 0.0 1.0
0
0101000
+97 0 -104 0 *
Ed
 0.001 1 1 0
1 32 0 0.0 1.0
2 35 7 0 0.0 1.0
2 36 11 0 0.0 1.0
0
0101000
+96 0 -102 0 *
Wi

0101100
-95 0 +94 0 +101 0 -93 0 *
Fa
0 0.001 11 0

0101000
+92 0 *
Ed
 0.001 1 1 0
1 33 0 0.0 1.0
2 37 4 0 0.0 1.0
2 38 5 0 0.0 1.0
0
0101000
+97 0 -125 0 *
Ed
 0.001 1 1 0
1 34 0 0.0 1.0
2 39 7 0 0.0 1.0
2 40 5 0 0.0 1.0
0
0101000
+96 0 -123 0 *
Wi

0101100
-95 0 +90 0 +122 0 -89 0 *
Fa
0 0.001 5 0

0101000
+88 0 *
Wi

0101100
-121 0 -114 0 +107 0 +100 0 -93 0 +89 0 *
Fa
0 0.001 7 0

1101000
+86 0 *
Wi

0101100
-124 0 -115 0 +110 0 +103 0 -94 0 +90 0 *
Fa
0 0.001 4 0

0101000
+84 0 *
Sh

0101000
-119 0 -112 0 +105 0 +98 0 -91 0 +87 0 +85 0 -83 0 *
So

1100000
+82 0 *
Ve
0.001
-678858.1143951834 -1132146.0385878491 -100.0 

0 0

0101000
*
Ve
0.001
-678858.1143951834 -1132146.0385878491 0.0 

0 0

0101000
*
Ed
 0.001 1 1 0
1 35 0 0.0 1.0
1 36 0 0.0 1.0
2 41 14 0 0.0 1.0
1 37 0 0.0 1.0
2 42 12 0 0.0 1.0
1 38 0 0.0 1.0
2 43 13 0 0.0 1.0
0
0101000
+80 0 -79 0 *
Ve
0.001
-678467.6518883416 -1136167.8024083197 -100.0 

0 0

0101000
*
Ed
 0.001 1 1 0
1 39 0 0.0 1.0
2 44 4 0 0.0 1.0
2 45 13 0 0.0 1.0
0
0101000
+80 0 -77 0 *
Ve
0.001
-678467.6518883416 -1136167.8024083197 0.0 

0 0

0101000
*
Ed
 0.001 1 1 0
1 40 0 0.0 1.0
1 41 0 0.0 1.0
2 46 15 0 0.0 1.0
1 42 0 0.0 1.0
2 47 9 0 0.0 1.0
1 43 0 0.0 1.0
2 48 13 0 0.0 1.0
0
0101000
+77 0 -75 0 *
Ed
 0.001 1 1 0
1 44 0 0.0 1.0
2 49 7 0 0.0 1.0
2 50 13 0 0.0 1.0
0
0101000
+79 0 -75 0 *
Wi

0101100
-78 0 +76 0 +74 0 -73 0 *
Fa
0 0.001 13 0

0101000
+72 0 *
Ed
 0.001 1 1 0
1 45 0 0.0 1.0
2 51 4 0 0.0 1.0
2 52 12 0 0.0 1.0
0
0101000
+104 0 -80 0 *
Ed
 0.001 1 1 0
1 46 0 0.0 1.0
2 53 7 0 0.0 1.0
2 54 12 0 0.0 1.0
0
0101000
+102 0 -79 0 *
Wi

0101100
-101 0 +70 0 +78 0 -69 0 *
Fa
0 0.001 12 0

0101000
+68 0 *
Ed
 0.001 1 1 0
1 47 0 0.0 1.0
2 55 4 0 0.0 1.0
2 56 9 0 0.0 1.0
0
0101000
+111 0 -77 0 *
Ed
 0.001 1 1 0
1 48 0 0.0 1.0
2 57 7 0 0.0 1.0
2 58 9 0 0.0 1.0
0
0101000
+109 0 -75 0 *
Wi

0101100
-108 0 +66 0 +74 0 -65 0 *
Fa
0 0.001 9 0

0101000
+64 0 *
Wi

0101100
-73 0 -69 0 -100 0 +65 0 *
Fa
0 0.001 7 0

1101000
+62 0 *
Wi

0101100
-76 0 -70 0 -103 0 +66 0 *
Fa
0 0.001 4 0

0101000
+60 0 *
Sh

0101000
-71 0 -67 0 -98 0 +63 0 +61 0 -59 0 *
So

1100000
+58 0 *
Ve
0.001
-678936.2068965518 -1129608.0322933772 -100.0 

0 0

0101000
*
Ve
0.001
-678936.2068965518 -1129608.0322933772 0.0 

0 0

0101000
*
Ed
 0.001 1 1 0
1 49 0 0.0 1.0
1 50 0 0.0 1.0
2 59 6 0 0.0 1.0
1 51 0 0.0 1.0
2 60 14 0 0.0 1.0
0
0101000
+56 0 -55 0 *
Ed
 0.001 1 1 0
1 52 0 0.0 1.0
2 61 4 0 0.0 1.0
2 62 14 0 0.0 1.0
0
0101000
+56 0 -80 0 *
Ed
 0.001 1 1 0
1 53 0 0.0 1.0
2 63 7 0 0.0 1.0
2 64 14 0 0.0 1.0
0
0101000
+55 0 -79 0 *
Wi

0101100
-54 0 +53 0 +78 0 -52 0 *
Fa
0 0.001 14 0

0101000
+51 0 *
Ed
 0.001 1 1 0
1 54 0 0.0 1.0
2 65 4 0 0.0 1.0
2 66 6 0 0.0 1.0
0
0101000
+125 0 -56 0 *
Ed
 0.001 1 1 0
1 55 0 0.0 1.0
2 67 7 0 0.0 1.0
2 68 6 0 0.0 1.0
0
0101000
+123 0 -55 0 *
Wi

0101100
-122 0 +49 0 +54 0 -48 0 *
Fa
0 0.001 6 0

0101000
+47 0 *
Wi

0101100
+69 0 -52 0 -48 0 -89 0 +93 0 *
Fa
0 0.001 7 0

1101000
+45 0 *
Wi

0101100
+70 0 -53 0 -49 0 -90 0 +94 0 *
Fa
0 0.001 4 0

0101000
+43 0 *
Sh

0101000
+67 0 -50 0 -46 0 -87 0 +91 0 +44 0 -42 0 *
So

1100000
+41 0 *
Ve
0.001
-674172.5643130816 -1133005.056102901 -100.0 

0 0

0101000
*
Ed
 0.001 1 1 0
1 56 0 0.0 1.0
2 69 4 0 0.0 1.0
2 70 15 0 0.0 1.0
0
0101000
+77 0 -39 0 *
Ve
0.001
-674172.5643130816 -1133005.056102901 0.0 

0 0

0101000
*
Ed
 0.001 1 1 0
1 57 0 0.0 1.0
1 58 0 0.0 1.0
2 71 16 0 0.0 1.0
1 59 0 0.0 1.0
2 72 15 0 0.0 1.0
0
0101000
+39 0 -37 0 *
Ed
 0.001 1 1 0
1 60 0 0.0 1.0
2 73 7 0 0.0 1.0
2 74 15 0 0.0 1.0
0
0101000
+75 0 -37 0 *
Wi

0101100
-74 0 +38 0 +36 0 -35 0 *
Fa
0 0.001 15 0

0101000
+34 0 *
Ve
0.001
-674563.0268199234 -1127694.7660098523 -100.0 

0 0

0101000
*
Ve
0.001
-674563.0268199234 -1127694.7660098523 0.0 

0 0

0101000
*
Ed
 0.001 1 1 0
1 61 0 0.0 1.0
1 62 0 0.0 1.0
2 75 17 0 0.0 1.0
1 63 0 0.0 1.0
2 76 16 0 0.0 1.0
0
0101000
+32 0 -31 0 *
Ed
 0.001 1 1 0
1 64 0 0.0 1.0
2 77 4 0 0.0 1.0
2 78 16 0 0.0 1.0
0
0101000
+32 0 -39 0 *
Ed
 0.001 1 1 0
1 65 0 0.0 1.0
2 79 7 0 0.0 1.0
2 80 16 0 0.0 1.0
0
0101000
+31 0 -37 0 *
Wi

0101100
-30 0 +29 0 +36 0 -28 0 *
Fa
0 0.001 16 0

0101000
+27 0 *
Ve
0.001
-678038.1431308156 -1127421.442255063 -100.0 

0 0

0101000
*
Ve
0.001
-678038.1431308156 -1127421.442255063 0.0 

0 0

0101000
*
Ed
 0.001 1 1 0
1 66 0 0.0 1.0
1 67 0 0.0 1.0
2 81 18 0 0.0 1.0
1 68 0 0.0 1.0
2 82 17 0 0.0 1.0
0
0101000
+25 0 -24 0 *
Ed
 0.001 1 1 0
1 69 0 0.0 1.0
2 83 4 0 0.0 1.0
2 84 17 0 0.0 1.0
0
0101000
+25 0 -32 0 *
Ed
 0.001 1 1 0
1 70 0 0.0 1.0
2 85 7 0 0.0 1.0
2 86 17 0 0.0 1.0
0
0101000
+24 0 -31 0 *
Wi

0101100
-23 0 +22 0 +30 0 -21 0 *
Fa
0 0.001 17 0

0101000
+20 0 *
Ve
0.001
-680341.8719211823 -1125234.8522167488 -100.0 

0 0

0101000
*
Ve
0.001
-680341.8719211823 -1125234.8522167488 0.0 

0 0

0101000
*
Ed
 0.001 1 1 0
1 71 0 0.0 1.0
1 72 0 0.0 1.0
2 87 3 0 0.0 1.0
1 73 0 0.0 1.0
2 88 18 0 0.0 1.0
0
0101000
+18 0 -17 0 *
Ed
 0.001 1 1 0
1 74 0 0.0 1.0
2 89 4 0 0.0 1.0
2 90 18 0 0.0 1.0
0
0101000
+18 0 -25 0 *
Ed
 0.001 1 1 0
1 75 0 0.0 1.0
2 91 7 0 0.0 1.0
2 92 18 0 0.0 1.0
0
0101000
+17 0 -24 0 *
Wi

0101100
-16 0 +15 0 +23 0 -14 0 *
Fa
0 0.001 18 0

0101000
+13 0 *
Ed
 0.001 1 1 0
1 76 0 0.0 1.0
2 93 4 0 0.0 1.0
2 94 3 0 0.0 1.0
0
0101000
+128 0 -18 0 *
Ed
 0.001 1 1 0
1 77 0 0.0 1.0
2 95 7 0 0.0 1.0
2 96 3 0 0.0 1.0
0
0101000
+127 0 -17 0 *
Wi

0101100
-126 0 +11 0 +16 0 -10 0 *
Fa
0 0.001 3 0

0101000
+9 0 *
Wi

0101100
+73 0 +35 0 -28 0 -21 0 -14 0 -10 0 +121 0 +48 0 +52 0 *
Fa
0 0.001 7 0

1101000
+7 0 *
Wi

0101100
+76 0 +38 0 -29 0 -22 0 -15 0 -11 0 +124 0 +49 0 +53 0 *
Fa
0 0.001 4 0

0101000
+5 0 *
Sh

0101000
+71 0 +33 0 -26 0 -19 0 -12 0 -8 0 +119 0 +46 0 +50 0 +6 0 -4 0 *
So

1100000
+3 0 *
Co

1100000
+81 0 +57 0 +40 0 +2 0 +85 0 +61 0 +44 0 +6 0 *

+1 0