DBRep_DrawableShape

CASCADE Topology V1, (c) Matra-Datavision
Locations 0
Curve2ds 48
7 0 0  2 3 2  1.0 0.009803921568628278  1.0 0.5000000000000004  1.0 0.9901960784313726  0.0 3  1.0 3 
7 0 0  2 3 2  0.0 0.009803921568628554  0.0 0.5000000000000006  0.0 0.9901960784313726  0.0 3  1.0 3 
7 0 0  2 3 2  1.0 0.009803921568628278  1.0 0.5000000000000004  1.0 0.9901960784313726  0.0 3  1.0 3 
7 0 0  2 3 2  0.0 0.00980392156862883  0.0 0.5000000000000007  0.0 0.9901960784313726  0.0 3  1.0 3 
7 0 0  2 3 2  0.26615827477074067 0.6458670003575258  0.33032392295706436 0.49977867752469446  0.3944895711433881 0.35369035469186316  0.0 3  1.0 3 
7 0 0  3 4 2  -0.0 0.00980392156862883  0.33333333333332654 0.009803921568627437  0.6666666666666673 0.009803921568629248  1.0 0.00980392156862883  0.0 4  1.0 4 
7 0 0  2 3 2  1.0 0.00980392156862883  1.0 0.5000000000000007  1.0 0.9901960784313726  0.0 3  1.0 3 
7 0 0  2 3 2  0.0 0.009803921568628002  0.0 0.5000000000000003  0.0 0.9901960784313726  0.0 3  1.0 3 
7 0 0  2 3 2  1.0 0.00980392156862883  1.0 0.5000000000000007  1.0 0.9901960784313726  0.0 3  1.0 3 
7 0 0  2 3 2  0.0 0.009803921568628002  0.0 0.5000000000000003  0.0 0.9901960784313726  0.0 3  1.0 3 
7 0 0  2 3 2  0.26615827477074067 0.6458670003575258  0.33032392295706436 0.49977867752469446  0.3944895711433881 0.35369035469186316  0.0 3  1.0 3 
7 0 0  3 4 2  -0.0 0.9901960784313726  0.33333333333332654 0.9901960784313726  0.6666666666666673 0.9901960784313726  1.0 0.9901960784313726  0.0 4  1.0 4 
7 0 0  2 3 2  0.0 0.009803921568628278  0.0 0.5000000000000004  0.0 0.9901960784313726  0.0 3  1.0 3 
7 0 0  2 3 2  0.0 0.00980392156862883  0.0 0.5000000000000007  0.0 0.9901960784313726  0.0 3  1.0 3 
7 0 0  2 3 2  0.0 0.4  0.13307913738537033 0.5229335001787629  0.26615827477074067 0.6458670003575258  0.0 3  1.0 3 
7 0 0  3 4 2  0.0 0.009803921568628278  0.3333333333333348 0.009803921568627442  0.6666666666666639 0.009803921568628976  1.0 0.009803921568628278  0.0 4  1.0 4 
7 0 0  2 3 2  0.0 0.4  0.13307913738537033 0.5229335001787629  0.26615827477074067 0.6458670003575258  0.0 3  1.0 3 
7 0 0  3 4 2  0.0 0.9901960784313726  0.3333333333333348 0.9901960784313726  0.6666666666666639 0.9901960784313726  1.0 0.9901960784313726  0.0 4  1.0 4 
7 0 0  2 3 2  0.0 0.4  0.19724478557169406 0.3768451773459316  0.3944895711433881 0.35369035469186316  0.0 3  1.0 3 
7 0 0  3 4 2  0.0 0.00980392156862883  0.33333333333333587 0.009803921568627437  0.6666666666666649 0.009803921568629945  1.0 0.00980392156862883  0.0 4  1.0 4 
7 0 0  2 3 2  0.0 0.4  0.19724478557169406 0.3768451773459316  0.3944895711433881 0.35369035469186316  0.0 3  1.0 3 
7 0 0  3 4 2  0.0 0.9901960784313726  0.33333333333333587 0.9901960784313726  0.6666666666666649 0.9901960784313726  1.0 0.9901960784313726  0.0 4  1.0 4 
7 0 0  2 3 2  0.3944895711433881 0.35369035469186316  0.6972447855716941 0.31814952517201844  1.0 0.2826086956521738  0.0 3  1.0 3 
7 0 0  3 4 2  0.0 0.009803921568628002  0.33333333333333603 0.009803921568627446  0.666666666666666 0.009803921568628002  1.0 0.009803921568628002  0.0 4  1.0 4 
7 0 0  2 3 2  1.0 0.00980392156862759  1.0 0.5000000000000001  1.0 0.9901960784313726  0.0 3  1.0 3 
7 0 0  2 3 2  1.0 0.009803921568628002  1.0 0.5000000000000003  1.0 0.9901960784313726  0.0 3  1.0 3 
7 0 0  2 3 2  0.3944895711433881 0.35369035469186316  0.6972447855716941 0.31814952517201844  1.0 0.2826086956521738  0.0 3  1.0 3 
7 0 0  3 4 2  0.0 0.9901960784313726  0.33333333333333603 0.9901960784313726  0.666666666666666 0.9901960784313726  1.0 0.9901960784313726  0.0 4  1.0 4 
7 0 0  2 3 2  0.0 0.00980392156862759  0.0 0.5000000000000001  0.0 0.9901960784313726  0.0 3  1.0 3 
7 0 0  2 3 2  1.0 0.009803921568628554  1.0 0.5000000000000006  1.0 0.9901960784313726  0.0 3  1.0 3 
7 0 0  2 3 2  0.6495176848874598 1.0  0.8247588424437299 0.6413043478260869  1.0 0.2826086956521738  0.0 3  1.0 3 
7 0 0  3 4 2  -0.0 0.00980392156862759  0.33333333333333215 0.009803921568627449  0.6666666666666666 0.009803921568627449  1.0 0.00980392156862759  0.0 4  1.0 4 
7 0 0  2 3 2  0.6495176848874598 1.0  0.8247588424437299 0.6413043478260869  1.0 0.2826086956521738  0.0 3  1.0 3 
7 0 0  3 4 2  -0.0 0.9901960784313726  0.33333333333333215 0.9901960784313726  0.6666666666666666 0.9901960784313726  1.0 0.9901960784313726  0.0 4  1.0 4 
7 0 0  2 3 2  0.26615827477074067 0.6458670003575258  0.45783797982910024 0.8229335001787629  0.6495176848874598 1.0  0.0 3  1.0 3 
7 0 0  3 4 2  0.0 0.009803921568628554  0.3333333333333367 0.00980392156862744  0.6666666666666654 0.009803921568628972  1.0000000000000004 0.009803921568628554  0.0 4  1.0 4 
7 0 0  2 3 2  0.26615827477074067 0.6458670003575258  0.45783797982910024 0.8229335001787629  0.6495176848874598 1.0  0.0 3  1.0 3 
7 0 0  3 4 2  0.0 0.9901960784313726  0.3333333333333367 0.9901960784313726  0.6666666666666654 0.9901960784313726  1.0000000000000004 0.9901960784313726  0.0 4  1.0 4 
7 0 0  2 3 2  0.0 0.009803921568628278  0.0 0.5000000000000004  0.0 0.9901960784313726  0.0 3  1.0 3 
7 0 0  2 3 2  0.1736334405144694 0.8565217391304347  0.21989585764260505 0.7511943697439802  0.26615827477074067 0.6458670003575258  0.0 3  1.0 3 
7 0 0  3 4 2  -1.7175329738078761e-15 0.009803921568628278  0.3333333333333279 0.009803921568627442  0.6666666666666695 0.009803921568628419  1.0 0.009803921568628278  0.0 4  1.0 4 
7 0 0  2 3 2  0.1736334405144694 0.8565217391304347  0.21989585764260505 0.7511943697439802  0.26615827477074067 0.6458670003575258  0.0 3  1.0 3 
7 0 0  3 4 2  -1.7175329738078761e-15 0.9901960784313726  0.3333333333333279 0.9901960784313726  0.6666666666666695 0.9901960784313726  1.0 0.9901960784313726  0.0 4  1.0 4 
7 0 0  2 3 2  0.3944895711433881 0.35369035469186316  0.472164399719604 0.17684517734593158  0.5498392282958199 0.0  0.0 3  1.0 3 
7 0 0  3 4 2  -0.0 0.009803921568628002  0.3333333333333288 0.009803921568627446  0.6666666666666673 0.009803921568627864  1.0 0.009803921568628002  0.0 4  1.0 4 
7 0 0  2 3 2  1.0 0.009803921568628002  1.0 0.5000000000000003  1.0 0.9901960784313726  0.0 3  1.0 3 
7 0 0  2 3 2  0.3944895711433881 0.35369035469186316  0.472164399719604 0.17684517734593158  0.5498392282958199 0.0  0.0 3  1.0 3 
7 0 0  3 4 2  -0.0 0.9901960784313726  0.3333333333333288 0.9901960784313726  0.6666666666666673 0.9901960784313726  1.0 0.9901960784313726  0.0 4  1.0 4 
Curves 39
7 0 0  2 3 2  34.62828118092748 57.302362312893294 -100.0  34.62828118092748 57.302362312893294 -50.0  34.62828118092748 57.302362312893294 0.0  0.0 3  1.0 3 
7 0 0  2 3 2  34.62828118092748 57.302362312893294 -100.0  34.62828118092748 57.302362312893294 -50.0  34.62828118092748 57.302362312893294 0.0  0.0 3  1.0 3 
7 0 0  2 3 2  34.62828118092748 57.302362312893294 -100.0  34.62828118092748 57.302362312893294 -50.0  34.62828118092748 57.302362312893294 0.0  0.0 3  1.0 3 
7 0 0  2 3 2  34.62828118092748 57.302362312893294 -100.0  34.62828118092748 57.302362312893294 -50.0  34.62828118092748 57.302362312893294 0.0  0.0 3  1.0 3 
7 0 0  2 3 2  34.62828118092748 57.302362312893294 -100.0  34.62828118092748 57.302362312893294 -50.0  34.62828118092748 57.302362312893294 0.0  0.0 3  1.0 3 
7 0 0  3 4 2  34.62828118092748 57.302362312893294 -100.0  36.900173600126735 53.477039179711845 -100.00000000000014  39.17206601932583 49.65171604653023 -99.99999999999996  41.44395843852503 45.82639291334871 -100.0  0.0 4  1.0 4 
7 0 0  2 3 2  41.44395843852503 45.82639291334871 -100.0  41.44395843852503 45.82639291334871 -50.0  41.44395843852503 45.82639291334871 0.0  0.0 3  1.0 3 
7 0 0  2 3 2  41.44395843852503 45.82639291334871 -100.0  41.44395843852503 45.82639291334871 -50.0  41.44395843852503 45.82639291334871 0.0  0.0 3  1.0 3 
7 0 0  2 3 2  41.44395843852503 45.82639291334871 -100.0  41.44395843852503 45.82639291334871 -50.0  41.44395843852503 45.82639291334871 0.0  0.0 3  1.0 3 
7 0 0  2 3 2  41.44395843852503 45.82639291334871 -100.0  41.44395843852503 45.82639291334871 -50.0  41.44395843852503 45.82639291334871 0.0  0.0 3  1.0 3 
7 0 0  2 3 2  41.44395843852503 45.82639291334871 -100.0  41.44395843852503 45.82639291334871 -50.0  41.44395843852503 45.82639291334871 0.0  0.0 3  1.0 3 
7 0 0  3 4 2  34.62828118092748 57.302362312893294 0.0  36.900173600126735 53.477039179711845 0.0  39.17206601932583 49.65171604653023 0.0  41.44395843852503 45.82639291334871 0.0  0.0 4  1.0 4 
7 0 0  2 3 2  20.492610837438423 47.645320197044335 -100.0  20.492610837438423 47.645320197044335 -50.0  20.492610837438423 47.645320197044335 0.0  0.0 3  1.0 3 
7 0 0  2 3 2  20.492610837438423 47.645320197044335 -100.0  20.492610837438423 47.645320197044335 -50.0  20.492610837438423 47.645320197044335 0.0  0.0 3  1.0 3 
7 0 0  2 3 2  20.492610837438423 47.645320197044335 -100.0  20.492610837438423 47.645320197044335 -50.0  20.492610837438423 47.645320197044335 0.0  0.0 3  1.0 3 
7 0 0  3 4 2  20.492610837438423 47.645320197044335 -100.0  25.204500951934797 50.86433423566073 -100.00000000000009  29.91639106643109 54.08334827427692 -99.99999999999993  34.62828118092748 57.302362312893294 -100.0  0.0 4  1.0 4 
7 0 0  3 4 2  20.492610837438423 47.645320197044335 0.0  25.204500951934797 50.86433423566073 0.0  29.91639106643109 54.08334827427692 0.0  34.62828118092748 57.302362312893294 0.0  0.0 4  1.0 4 
7 0 0  3 4 2  20.492610837438423 47.645320197044335 -100.0  27.476393371134012 47.039011102479186 -100.00000000000014  34.460175904829455 46.4327020079139 -99.99999999999989  41.44395843852503 45.82639291334871 -100.0  0.0 4  1.0 4 
7 0 0  3 4 2  20.492610837438423 47.645320197044335 0.0  27.476393371134012 47.039011102479186 0.0  34.460175904829455 46.4327020079139 0.0  41.44395843852503 45.82639291334871 0.0  0.0 4  1.0 4 
7 0 0  3 4 2  41.44395843852503 45.82639291334871 -100.0  52.16351471161666 44.895756195106074 -100.00000000000006  62.8830709847081 43.965119476863364 -100.0  73.60262725779967 43.03448275862068 -100.0  0.0 4  1.0 4 
7 0 0  2 3 2  73.60262725779967 43.03448275862068 -100.0  73.60262725779967 43.03448275862068 -50.0  73.60262725779967 43.03448275862068 0.0  0.0 3  1.0 3 
7 0 0  2 3 2  73.60262725779967 43.03448275862068 -100.0  73.60262725779967 43.03448275862068 -50.0  73.60262725779967 43.03448275862068 0.0  0.0 3  1.0 3 
7 0 0  2 3 2  73.60262725779967 43.03448275862068 -100.0  73.60262725779967 43.03448275862068 -50.0  73.60262725779967 43.03448275862068 0.0  0.0 3  1.0 3 
7 0 0  3 4 2  41.44395843852503 45.82639291334871 0.0  52.16351471161666 44.895756195106074 0.0  62.8830709847081 43.965119476863364 0.0  73.60262725779967 43.03448275862068 0.0  0.0 4  1.0 4 
7 0 0  2 3 2  54.98850574712643 71.21182266009852 -100.0  54.98850574712643 71.21182266009852 -50.0  54.98850574712643 71.21182266009852 0.0  0.0 3  1.0 3 
7 0 0  2 3 2  54.98850574712643 71.21182266009852 -100.0  54.98850574712643 71.21182266009852 -50.0  54.98850574712643 71.21182266009852 0.0  0.0 3  1.0 3 
7 0 0  2 3 2  54.98850574712643 71.21182266009852 -100.0  54.98850574712643 71.21182266009852 -50.0  54.98850574712643 71.21182266009852 0.0  0.0 3  1.0 3 
7 0 0  3 4 2  54.98850574712644 71.21182266009852 -100.0  61.19321291735088 61.81937602627261 -100.00000000000001  67.39792008757524 52.42692939244663 -100.00000000000001  73.60262725779967 43.03448275862068 -100.0  0.0 4  1.0 4 
7 0 0  3 4 2  54.98850574712644 71.21182266009852 0.0  61.19321291735088 61.81937602627261 0.0  67.39792008757524 52.42692939244663 0.0  73.60262725779967 43.03448275862068 0.0  0.0 4  1.0 4 
7 0 0  3 4 2  34.62828118092748 57.302362312893294 -100.0  41.415022702993866 61.93884909529513 -100.00000000000011  48.20176422506009 66.57533587769674 -99.99999999999996  54.98850574712644 71.21182266009852 -100.0  0.0 4  1.0 4 
7 0 0  3 4 2  34.62828118092748 57.302362312893294 0.0  41.415022702993866 61.93884909529513 0.0  48.20176422506009 66.57533587769674 0.0  54.98850574712644 71.21182266009852 0.0  0.0 4  1.0 4 
7 0 0  2 3 2  29.71428571428571 65.57635467980295 -100.0  29.71428571428571 65.57635467980295 -50.0  29.71428571428571 65.57635467980295 0.0  0.0 3  1.0 3 
7 0 0  2 3 2  29.71428571428571 65.57635467980295 -100.0  29.71428571428571 65.57635467980295 -50.0  29.71428571428571 65.57635467980295 0.0  0.0 3  1.0 3 
7 0 0  3 4 2  29.71428571428571 65.57635467980296 -100.0  31.35228420316628 62.81835722416644 -100.00000000000009  32.99028269204689 60.06035976852982 -99.99999999999999  34.62828118092748 57.302362312893294 -100.0  0.0 4  1.0 4 
7 0 0  3 4 2  29.71428571428571 65.57635467980296 0.0  31.35228420316628 62.81835722416644 0.0  32.99028269204689 60.06035976852982 0.0  34.62828118092748 57.302362312893294 0.0  0.0 4  1.0 4 
7 0 0  3 4 2  41.44395843852503 45.82639291334871 -100.0  44.19416605261281 41.19570146056861 -100.00000000000006  46.94437366670045 36.565010007788366 -100.00000000000001  49.69458128078817 31.934318555008208 -100.0  0.0 4  1.0 4 
7 0 0  2 3 2  49.69458128078817 31.934318555008208 -100.0  49.69458128078817 31.934318555008208 -50.0  49.69458128078817 31.934318555008208 0.0  0.0 3  1.0 3 
7 0 0  2 3 2  49.69458128078817 31.934318555008208 -100.0  49.69458128078817 31.934318555008208 -50.0  49.69458128078817 31.934318555008208 0.0  0.0 3  1.0 3 
7 0 0  3 4 2  41.44395843852503 45.82639291334871 0.0  44.19416605261281 41.19570146056861 0.0  46.94437366670045 36.565010007788366 0.0  49.69458128078817 31.934318555008208 0.0  0.0 4  1.0 4 
Polygon3D 0
PolygonOnTriangulations 0
Surfaces 10
9 0 0 0 0  2 2 3 3  2 2  20.492610837438423 47.645320197044335 -101.00000000000009  20.492610837438423 47.645320197044335 -50.00000000000004  20.492610837438423 47.645320197044335 1.0   27.560446009182954 52.47384125496882 -101.00000000000009  27.560446009182954 52.47384125496882 -50.00000000000004  27.560446009182954 52.47384125496882 1.0   34.62828118092748 57.302362312893294 -101.00000000000009  34.62828118092749 57.302362312893294 -50.00000000000004  34.62828118092749 57.3023623128933 1.0   0.0 3  1.0 3  0.0 3  1.0 3 
9 0 0 0 0  2 2 3 3  2 2  34.62828118092748 57.302362312893294 -101.00000000000011  34.62828118092748 57.302362312893294 -50.00000000000006  34.62828118092748 57.302362312893294 1.0   44.808393464026956 64.2570924864959 -101.00000000000011  44.808393464026956 64.2570924864959 -50.00000000000006  44.808393464026956 64.2570924864959 1.0   54.98850574712643 71.21182266009852 -101.00000000000011  54.98850574712643 71.21182266009852 -50.00000000000006  54.98850574712643 71.21182266009852 1.0   0.0 3  1.0 3  0.0 3  1.0 3 
9 0 0 0 0  2 2 3 3  2 2  29.71428571428571 65.57635467980295 -101.00000000000009  29.71428571428571 65.57635467980295 -50.00000000000004  29.71428571428571 65.57635467980295 1.0   32.1712834476066 61.43935849634812 -101.00000000000009  32.1712834476066 61.43935849634812 -50.00000000000004  32.1712834476066 61.43935849634812 1.0   34.62828118092748 57.302362312893294 -101.00000000000009  34.62828118092749 57.302362312893294 -50.00000000000004  34.62828118092749 57.302362312893294 1.0   0.0 3  1.0 3  0.0 3  1.0 3 
9 0 0 0 0  2 2 3 3  2 2  34.62828118092748 57.302362312893294 -101.00000000000014  34.62828118092748 57.302362312893294 -50.00000000000007  34.62828118092748 57.302362312893294 1.0   38.03611980972626 51.564377613121 -101.00000000000014  38.03611980972626 51.56437761312101 -50.00000000000007  38.03611980972626 51.564377613121 1.0   41.44395843852503 45.82639291334871 -101.00000000000014  41.44395843852503 45.82639291334871 -50.00000000000007  41.44395843852504 45.82639291334871 1.0   0.0 3  1.0 3  0.0 3  1.0 3 
9 0 0 0 0  2 2 3 3  2 2  20.492610837438423 31.934318555008208 -100.0  20.492610837438423 51.57307060755336 -100.0  20.492610837438423 71.21182266009852 -100.0   47.04761904761905 31.934318555008208 -100.0  47.04761904761905 51.57307060755336 -100.0  47.04761904761905 71.21182266009852 -100.0   73.60262725779967 31.934318555008208 -100.0  73.60262725779967 51.57307060755336 -100.0  73.60262725779967 71.21182266009852 -100.0   0.0 3  1.0 3  0.0 3  1.0 3 
9 0 0 0 0  2 2 3 3  2 2  20.492610837438423 47.645320197044335 -101.00000000000014  20.492610837438423 47.645320197044335 -50.00000000000007  20.492610837438423 47.645320197044335 1.0   30.968284637981725 46.73585655519652 -101.00000000000014  30.968284637981725 46.73585655519652 -50.00000000000007  30.968284637981725 46.73585655519652 1.0   41.44395843852503 45.82639291334871 -101.00000000000014  41.44395843852503 45.82639291334871 -50.00000000000007  41.44395843852503 45.826392913348705 1.0   0.0 3  1.0 3  0.0 3  1.0 3 
9 0 0 0 0  2 2 3 3  2 2  41.44395843852503 45.82639291334871 -101.00000000000006  41.44395843852503 45.82639291334871 -50.00000000000003  41.44395843852503 45.82639291334871 1.0   57.52329284816235 44.4304378359847 -101.00000000000006  57.523292848162356 44.4304378359847 -50.00000000000003  57.52329284816235 44.4304378359847 1.0   73.60262725779967 43.03448275862068 -101.00000000000006  73.60262725779967 43.03448275862068 -50.00000000000003  73.60262725779967 43.03448275862068 1.0   0.0 3  1.0 3  0.0 3  1.0 3 
9 0 0 0 0  2 2 3 3  2 2  41.44395843852503 45.82639291334871 -101.00000000000006  41.44395843852503 45.82639291334871 -50.00000000000003  41.44395843852503 45.82639291334871 1.0   45.5692698596566 38.88035573417846 -101.00000000000006  45.5692698596566 38.88035573417846 -50.00000000000003  45.5692698596566 38.88035573417846 1.0   49.69458128078817 31.934318555008208 -101.00000000000006  49.69458128078817 31.934318555008204 -50.00000000000003  49.69458128078817 31.934318555008204 1.0   0.0 3  1.0 3  0.0 3  1.0 3 
9 0 0 0 0  2 2 3 3  2 2  20.492610837438423 31.934318555008208 0.0  20.492610837438423 51.57307060755336 0.0  20.492610837438423 71.21182266009852 0.0   47.04761904761905 31.934318555008208 0.0  47.04761904761905 51.57307060755336 0.0  47.04761904761905 71.21182266009852 0.0   73.60262725779967 31.934318555008208 0.0  73.60262725779967 51.57307060755336 0.0  73.60262725779967 71.21182266009852 0.0   0.0 3  1.0 3  0.0 3  1.0 3 
9 0 0 0 0  2 2 3 3  2 2  54.98850574712643 71.21182266009852 -101.00000000000001  54.98850574712643 71.21182266009852 -50.00000000000001  54.98850574712643 71.21182266009852 1.0   64.29556650246305 57.1231527093596 -101.00000000000001  64.29556650246305 57.1231527093596 -50.00000000000001  64.29556650246305 57.1231527093596 1.0   73.60262725779967 43.03448275862068 -101.00000000000001  73.60262725779967 43.03448275862068 -50.00000000000001  73.60262725779967 43.03448275862068 1.0   0.0 3  1.0 3  0.0 3  1.0 3 
Triangulations 0

TShapes 66
Ve
0.001
34.62828118092748 57.302362312893294 -100.0 
0 0

0101000
*
Ve
0.001
34.62828118092748 57.302362312893294 0.0 
0 0

0101000
*
Ed
 0.001 1 1 0
1 1 0 0.0 1.0
1 2 0 0.0 1.0
2 1 1 0 0.0 1.0
1 3 0 0.0 1.0
2 2 2 0 0.0 1.0
1 4 0 0.0 1.0
2 3 3 0 0.0 1.0
1 5 0 0.0 1.0
2 4 4 0 0.0 1.0
0
0101000
+66 0 -65 0 *
Ve
0.001
41.44395843852503 45.82639291334871 -100.0 
0 0

0101000
*
Ed
 0.001 1 1 0
1 6 0 0.0 1.0
2 5 5 0 0.0 1.0
2 6 4 0 0.0 1.0
0
0101000
+66 0 -63 0 *
Ve
0.001
41.44395843852503 45.82639291334871 0.0 
0 0

0101000
*
Ed
 0.001 1 1 0
1 7 0 0.0 1.0
1 8 0 0.0 1.0
2 7 6 0 0.0 1.0
1 9 0 0.0 1.0
2 8 7 0 0.0 1.0
1 10 0 0.0 1.0
2 9 4 0 0.0 1.0
1 11 0 0.0 1.0
2 10 8 0 0.0 1.0
0
0101000
+63 0 -61 0 *
Ed
 0.001 1 1 0
1 12 0 0.0 1.0
2 11 9 0 0.0 1.0
2 12 4 0 0.0 1.0
0
0101000
+65 0 -61 0 *
Wi

0101100
-64 0 +62 0 +60 0 -59 0 *
Fa
0 0.001 4 0

1101000
+58 0 *
Ve
0.001
20.492610837438423 47.645320197044335 -100.0 
0 0

0101000
*
Ve
0.001
20.492610837438423 47.645320197044335 0.0 
0 0

0101000
*
Ed
 0.001 1 1 0
1 13 0 0.0 1.0
1 14 0 0.0 1.0
2 13 1 0 0.0 1.0
1 15 0 0.0 1.0
2 14 6 0 0.0 1.0
0
0101000
+56 0 -55 0 *
Ed
 0.001 1 1 0
1 16 0 0.0 1.0
2 15 5 0 0.0 1.0
2 16 1 0 0.0 1.0
0
0101000
+56 0 -66 0 *
Ed
 0.001 1 1 0
1 17 0 0.0 1.0
2 17 9 0 0.0 1.0
2 18 1 0 0.0 1.0
0
0101000
+55 0 -65 0 *
Wi

0101100
-54 0 +53 0 +64 0 -52 0 *
Fa
0 0.001 1 0

0101000
+51 0 *
Ed
 0.001 1 1 0
1 18 0 0.0 1.0
2 19 5 0 0.0 1.0
2 20 6 0 0.0 1.0
0
0101000
+56 0 -63 0 *
Ed
 0.001 1 1 0
1 19 0 0.0 1.0
2 21 9 0 0.0 1.0
2 22 6 0 0.0 1.0
0
0101000
+55 0 -61 0 *
Wi

0101100
-54 0 +49 0 +60 0 -48 0 *
Fa
0 0.001 6 0

0101000
+47 0 *
Wi

0101100
-59 0 -52 0 +48 0 *
Fa
0 0.001 9 0

0101000
+45 0 *
Wi

0101100
-62 0 -53 0 +49 0 *
Fa
0 0.001 5 0

0101000
+43 0 *
Sh

0101000
-57 0 -50 0 +46 0 +44 0 -42 0 *
So

1100000
+41 0 *
Ve
0.001
73.60262725779967 43.03448275862068 -100.0 
0 0

0101000
*
Ed
 0.001 1 1 0
1 20 0 0.0 1.0
2 23 5 0 0.0 1.0
2 24 7 0 0.0 1.0
0
0101000
+63 0 -39 0 *
Ve
0.001
73.60262725779967 43.03448275862068 0.0 
0 0

0101000
*
Ed
 0.001 1 1 0
1 21 0 0.0 1.0
1 22 0 0.0 1.0
2 25 10 0 0.0 1.0
1 23 0 0.0 1.0
2 26 7 0 0.0 1.0
0
0101000
+39 0 -37 0 *
Ed
 0.001 1 1 0
1 24 0 0.0 1.0
2 27 9 0 0.0 1.0
2 28 7 0 0.0 1.0
0
0101000
+61 0 -37 0 *
Wi

0101100
-60 0 +38 0 +36 0 -35 0 *
Fa
0 0.001 7 0

1101000
+34 0 *
Ve
0.001
54.98850574712643 71.21182266009852 -100.0 
0 0

0101000
*
Ve
0.001
54.98850574712643 71.21182266009852 0.0 
0 0

0101000
*
Ed
 0.001 1 1 0
1 25 0 0.0 1.0
1 26 0 0.0 1.0
2 29 10 0 0.0 1.0
1 27 0 0.0 1.0
2 30 2 0 0.0 1.0
0
0101000
+32 0 -31 0 *
Ed
 0.001 1 1 0
1 28 0 0.0 1.0
2 31 5 0 0.0 1.0
2 32 10 0 0.0 1.0
0
0101000
+32 0 -39 0 *
Ed
 0.001 1 1 0
1 29 0 0.0 1.0
2 33 9 0 0.0 1.0
2 34 10 0 0.0 1.0
0
0101000
+31 0 -37 0 *
Wi

0101100
-30 0 +29 0 +36 0 -28 0 *
Fa
0 0.001 10 0

0101000
+27 0 *
Ed
 0.001 1 1 0
1 30 0 0.0 1.0
2 35 5 0 0.0 1.0
2 36 2 0 0.0 1.0
0
0101000
+66 0 -32 0 *
Ed
 0.001 1 1 0
1 31 0 0.0 1.0
2 37 9 0 0.0 1.0
2 38 2 0 0.0 1.0
0
0101000
+65 0 -31 0 *
Wi

0101100
-64 0 +25 0 +30 0 -24 0 *
Fa
0 0.001 2 0

1101000
+23 0 *
Wi

0101100
+59 0 +35 0 -28 0 -24 0 *
Fa
0 0.001 9 0

0101000
+21 0 *
Wi

0101100
+62 0 +38 0 -29 0 -25 0 *
Fa
0 0.001 5 0

0101000
+19 0 *
Sh

0101000
+57 0 +33 0 -26 0 -22 0 +20 0 -18 0 *
So

1100000
+17 0 *
Ve
0.001
29.71428571428571 65.57635467980295 -100.0 
0 0

0101000
*
Ve
0.001
29.71428571428571 65.57635467980295 0.0 
0 0

0101000
*
Ed
 0.001 1 1 0
1 32 0 0.0 1.0
1 33 0 0.0 1.0
2 39 3 0 0.0 1.0
0
0101000
+15 0 -14 0 *
Ed
 0.001 1 1 0
1 34 0 0.0 1.0
2 40 5 0 0.0 1.0
2 41 3 0 0.0 1.0
0
0101000
+15 0 -66 0 *
Ed
 0.001 1 1 0
1 35 0 0.0 1.0
2 42 9 0 0.0 1.0
2 43 3 0 0.0 1.0
0
0101000
+14 0 -65 0 *
Wi

0101100
-13 0 +12 0 +64 0 -11 0 *
Fa
0 0.001 3 0

1101000
+10 0 *
Ve
0.001
49.69458128078817 31.934318555008208 -100.0 
0 0

0101000
*
Ed
 0.001 1 1 0
1 36 0 0.0 1.0
2 44 5 0 0.0 1.0
2 45 8 0 0.0 1.0
0
0101000
+63 0 -8 0 *
Ve
0.001
49.69458128078817 31.934318555008208 0.0 
0 0

0101000
*
Ed
 0.001 1 1 0
1 37 0 0.0 1.0
1 38 0 0.0 1.0
2 46 8 0 0.0 1.0
0
0101000
+8 0 -6 0 *
Ed
 0.001 1 1 0
1 39 0 0.0 1.0
2 47 9 0 0.0 1.0
2 48 8 0 0.0 1.0
0
0101000
+61 0 -6 0 *
Wi

0101100
-60 0 +7 0 +5 0 -4 0 *
Fa
0 0.001 8 0

1101000
+3 0 *
Co

1100000
+40 0 +16 0 +22 0 +33 0 +9 0 +57 0 +2 0 *

+1 0