DBRep_DrawableShape

CASCADE Topology V1, (c) Matra-Datavision
Locations 0
Curve2ds 60
7 0 0  2 3 2  0.0 0.08333333333333415  0.0 0.5000000000000004  0.0 0.9166666666666667  0.0 3  1.0 3 
7 0 0  2 3 2  0.0 0.08333333333333415  0.0 0.5000000000000004  0.0 0.9166666666666667  0.0 3  1.0 3 
7 0 0  2 3 2  0.0 0.08333333333333523  0.0 0.500000000000001  0.0 0.9166666666666669  0.0 3  1.0 3 
7 0 0  2 3 2  0.0 0.961240310077519  0.01503759398496239 0.4806201550387595  0.03007518796992478 0.0  0.0 3  1.0 3 
7 0 0  3 4 2  -0.0 0.08333333333333415  0.3333333333333321 0.08333333333333326  0.6666666666666665 0.08333333333333474  1.0 0.08333333333333415  0.0 4  1.0 4 
7 0 0  3 4 2  -0.0 0.9166666666666663  0.3333333333333321 0.9166666666666654  0.6666666666666665 0.9166666666666669  1.0 0.9166666666666663  0.0 4  1.0 4 
7 0 0  2 3 2  1.0 0.08333333333333415  1.0 0.5000000000000004  1.0 0.9166666666666667  0.0 3  1.0 3 
7 0 0  2 3 2  0.0 0.08333333333333387  0.0 0.5000000000000003  0.0 0.9166666666666667  0.0 3  1.0 3 
7 0 0  2 3 2  0.0 0.961240310077519  0.01503759398496239 0.4806201550387595  0.03007518796992478 0.0  0.0 3  1.0 3 
7 0 0  3 4 2  -0.0 0.9166666666666667  0.3333333333333321 0.9166666666666667  0.6666666666666665 0.9166666666666667  1.0 0.9166666666666667  0.0 4  1.0 4 
7 0 0  2 3 2  0.03007518796992478 0.0  0.5037593984962406 0.0  0.9774436090225566 0.0  0.0 3  1.0 3 
7 0 0  3 4 2  0.0 0.08333333333333387  0.3333333333333335 0.08333333333333329  0.6666666666666675 0.08333333333333402  1.0 0.08333333333333387  0.0 4  1.0 4 
7 0 0  3 4 2  0.0 0.9166666666666666  0.3333333333333335 0.9166666666666661  0.6666666666666675 0.9166666666666667  1.0 0.9166666666666666  0.0 4  1.0 4 
7 0 0  2 3 2  1.0 0.08333333333333387  1.0 0.5000000000000003  1.0 0.9166666666666667  0.0 3  1.0 3 
7 0 0  2 3 2  0.0 0.08333333333333483  0.0 0.5000000000000009  0.0 0.9166666666666669  0.0 3  1.0 3 
7 0 0  2 3 2  1.0 0.08333333333333523  1.0 0.500000000000001  1.0 0.9166666666666669  0.0 3  1.0 3 
7 0 0  2 3 2  0.03007518796992478 0.0  0.5037593984962406 0.0  0.9774436090225566 0.0  0.0 3  1.0 3 
7 0 0  3 4 2  0.0 0.9166666666666667  0.3333333333333335 0.9166666666666667  0.6666666666666675 0.9166666666666667  1.0 0.9166666666666667  0.0 4  1.0 4 
7 0 0  2 3 2  0.0 0.961240310077519  0.24628500384820315 0.7190380272233411  0.4925700076964063 0.4768357443691632  0.0 3  1.0 3 
7 0 0  3 4 2  0.0 0.08333333333333523  0.16797900262467358 0.08333333333333316  0.33595800524934316 0.08333333333333598  0.5039370078740156 0.08333333333333523  0.0 4  1.0 4 
7 0 0  2 3 2  0.4925700076964063 0.4768357443691632  0.7350068083594814 0.2384178721845816  0.9774436090225566 0.0  0.0 3  1.0 3 
7 0 0  3 4 2  0.5039370078740156 0.08333333333333523  0.6692913385826816 0.08333333333333405  0.8346456692913365 0.08333333333333583  1.0 0.08333333333333523  0.0 4  1.0 4 
7 0 0  2 3 2  0.0 0.961240310077519  0.4887218045112783 0.4806201550387595  0.9774436090225566 0.0  0.0 3  1.0 3 
7 0 0  3 4 2  0.0 0.9166666666666669  0.3333333333333345 0.9166666666666669  0.6666666666666662 0.9166666666666669  1.0 0.9166666666666669  0.0 4  1.0 4 
7 0 0  2 3 2  0.03007518796992478 0.0  0.2613225978331655 0.2384178721845816  0.4925700076964063 0.4768357443691632  0.0 3  1.0 3 
7 0 0  3 4 2  0.0 0.9166666666666659  0.15894524812305988 0.9166666666666644  0.31789049624610555 0.916666666666667  0.4768357443691632 0.9166666666666659  0.0 4  1.0 4 
7 0 0  2 3 2  0.9774436090225566 0.0  0.9887218045112782 0.5  1.0 1.0  0.0 3  1.0 3 
7 0 0  3 4 2  0.0 0.08333333333333483  0.33333333333333764 0.0833333333333332  0.666666666666666 0.08333333333333527  1.0 0.08333333333333483  0.0 4  1.0 4 
7 0 0  3 4 2  0.0 0.9166666666666665  0.33333333333333764 0.9166666666666649  0.666666666666666 0.916666666666667  1.0 0.9166666666666665  0.0 4  1.0 4 
7 0 0  2 3 2  1.0 0.08333333333333483  1.0 0.5000000000000009  1.0 0.9166666666666669  0.0 3  1.0 3 
7 0 0  2 3 2  1.0 0.08333333333333415  1.0 0.5000000000000004  1.0 0.9166666666666667  0.0 3  1.0 3 
7 0 0  2 3 2  0.9774436090225566 0.0  0.9887218045112782 0.5  1.0 1.0  0.0 3  1.0 3 
7 0 0  3 4 2  0.0 0.9166666666666669  0.33333333333333764 0.9166666666666669  0.666666666666666 0.9166666666666669  1.0 0.9166666666666669  0.0 4  1.0 4 
7 0 0  2 3 2  0.0 0.961240310077519  0.5 0.9806201550387594  1.0 1.0  0.0 3  1.0 3 
7 0 0  3 4 2  0.0 0.08333333333333415  0.3333333333333343 0.08333333333333326  0.6666666666666656 0.08333333333333474  1.0 0.08333333333333415  0.0 4  1.0 4 
7 0 0  3 4 2  0.0 0.9166666666666663  0.3333333333333343 0.9166666666666654  0.6666666666666656 0.9166666666666669  1.0 0.9166666666666663  0.0 4  1.0 4 
7 0 0  2 3 2  0.0 0.961240310077519  0.5 0.9806201550387594  1.0 1.0  0.0 3  1.0 3 
7 0 0  3 4 2  0.0 0.9166666666666667  0.3333333333333343 0.9166666666666667  0.6666666666666656 0.9166666666666667  1.0 0.9166666666666667  0.0 4  1.0 4 
7 0 0  2 3 2  0.4925700076964063 0.4768357443691632  0.7462850038482032 0.7384178721845815  1.0 1.0  0.0 3  1.0 3 
7 0 0  3 4 2  0.4768357443691632 0.9166666666666659  0.6512238295794451 0.9166666666666643  0.8256119147897184 0.9166666666666665  1.0 0.9166666666666659  0.0 4  1.0 4 
7 0 0  2 3 2  1.0 0.08333333333333491  1.0 0.5000000000000006  1.0 0.9166666666666663  0.0 3  1.0 3 
7 0 0  2 3 2  0.0 0.08333333333333441  0.0 0.5000000000000006  0.0 0.9166666666666666  0.0 3  1.0 3 
7 0 0  2 3 2  0.0 0.08333333333333515  0.0 0.5000000000000004  0.0 0.9166666666666659  0.0 3  1.0 3 
7 0 0  2 3 2  0.03007518796992478 0.0  0.5037593984962406 0.0  0.9774436090225566 0.0  0.0 3  1.0 3 
7 0 0  3 4 2  0.0 0.08333333333333441  0.3333333333333335 0.08333333333333322  0.6666666666666675 0.0833333333333347  1.0 0.08333333333333441  0.0 4  1.0 4 
7 0 0  2 3 2  1.0 0.08333333333333441  1.0 0.5000000000000006  1.0 0.9166666666666666  0.0 3  1.0 3 
7 0 0  2 3 2  0.0 0.08333333333333628  0.0 0.5000000000000014  0.0 0.9166666666666665  0.0 3  1.0 3 
7 0 0  2 3 2  0.9774436090225566 0.0  0.9887218045112782 0.5  1.0 1.0  0.0 3  1.0 3 
7 0 0  3 4 2  0.0 0.08333333333333628  0.33333333333333764 0.08333333333333302  0.666666666666666 0.08333333333333717  1.0 0.08333333333333628  0.0 4  1.0 4 
7 0 0  2 3 2  1.0 0.08333333333333628  1.0 0.5000000000000014  1.0 0.9166666666666665  0.0 3  1.0 3 
7 0 0  2 3 2  1.0 0.08333333333333491  1.0 0.5000000000000006  1.0 0.9166666666666663  0.0 3  1.0 3 
7 0 0  2 3 2  1.0 0.08333333333333515  1.0 0.5000000000000004  1.0 0.9166666666666659  0.0 3  1.0 3 
7 0 0  2 3 2  0.03007518796992478 0.0  0.5150375939849624 0.5  1.0 1.0  0.0 3  1.0 3 
7 0 0  3 4 2  0.0 0.08333333333333515  0.33333333333333826 0.08333333333333308  0.6666666666666643 0.08333333333333603  1.0 0.08333333333333515  0.0 4  1.0 4 
7 0 0  2 3 2  0.0 0.08333333333333491  0.0 0.5000000000000006  0.0 0.9166666666666663  0.0 3  1.0 3 
7 0 0  2 3 2  0.0 0.08333333333333491  0.0 0.5000000000000006  0.0 0.9166666666666663  0.0 3  1.0 3 
7 0 0  2 3 2  0.0 0.961240310077519  0.5 0.9806201550387594  1.0 1.0  0.0 3  1.0 3 
7 0 0  3 4 2  0.0 0.08333333333333491  0.3333333333333343 0.08333333333333313  0.6666666666666656 0.08333333333333609  1.0 0.08333333333333491  0.0 4  1.0 4 
7 0 0  2 3 2  0.0 0.961240310077519  0.01503759398496239 0.4806201550387595  0.03007518796992478 0.0  0.0 3  1.0 3 
7 0 0  3 4 2  -0.0 0.08333333333333491  0.3333333333333321 0.08333333333333313  0.6666666666666665 0.08333333333333609  1.0 0.08333333333333491  0.0 4  1.0 4 
Curves 46
7 0 0  2 3 2  14.51559934318555 67.79638752052544 -10.0  14.51559934318555 67.79638752052544 -5.0  14.51559934318555 67.79638752052544 0.0  0.0 3  1.0 3 
7 0 0  2 3 2  14.51559934318555 67.79638752052544 -10.0  14.51559934318555 67.79638752052544 -5.0  14.51559934318555 67.79638752052544 0.0  0.0 3  1.0 3 
7 0 0  2 3 2  14.51559934318555 67.79638752052544 -10.0  14.51559934318555 67.79638752052544 -5.0  14.51559934318555 67.79638752052544 0.0  0.0 3  1.0 3 
7 0 0  2 3 2  14.51559934318555 67.79638752052544 -10.0  14.51559934318555 67.79638752052544 -5.0  14.51559934318555 67.79638752052544 0.0  0.0 3  1.0 3 
7 0 0  3 4 2  14.51559934318555 67.79638752052544 -10.0  14.743295019157106 60.73782156540779 -10.00000000000001  14.970990695128615 53.67925561029009 -9.999999999999993  15.198686371100163 46.62068965517241 -10.0  0.0 4  1.0 4 
7 0 0  2 3 2  15.198686371100163 46.62068965517241 -10.0  15.198686371100163 46.62068965517241 -5.0  15.198686371100163 46.62068965517241 0.0  0.0 3  1.0 3 
7 0 0  2 3 2  15.198686371100163 46.62068965517241 -10.0  15.198686371100163 46.62068965517241 -5.0  15.198686371100163 46.62068965517241 0.0  0.0 3  1.0 3 
7 0 0  2 3 2  15.198686371100163 46.62068965517241 -10.0  15.198686371100163 46.62068965517241 -5.0  15.198686371100163 46.62068965517241 0.0  0.0 3  1.0 3 
7 0 0  3 4 2  14.51559934318555 67.79638752052544 0.0  14.743295019157106 60.73782156540779 0.0  14.970990695128615 53.67925561029009 0.0  15.198686371100163 46.62068965517241 0.0  0.0 4  1.0 4 
7 0 0  3 4 2  15.198686371100163 46.62068965517241 -10.0  22.371100164203614 46.62068965517248 -10.000000000000007  29.543513957307077 46.62068965517239 -9.999999999999998  36.71592775041051 46.62068965517241 -10.0  0.0 4  1.0 4 
7 0 0  2 3 2  36.71592775041051 46.62068965517241 -10.0  36.71592775041051 46.62068965517241 -5.0  36.71592775041051 46.62068965517241 0.0  0.0 3  1.0 3 
7 0 0  2 3 2  36.71592775041051 46.62068965517241 -10.0  36.71592775041051 46.62068965517241 -5.0  36.71592775041051 46.62068965517241 0.0  0.0 3  1.0 3 
7 0 0  2 3 2  36.71592775041051 46.62068965517241 -10.0  36.71592775041051 46.62068965517241 -5.0  36.71592775041051 46.62068965517241 0.0  0.0 3  1.0 3 
7 0 0  2 3 2  36.71592775041051 46.62068965517241 -10.0  36.71592775041051 46.62068965517241 -5.0  36.71592775041051 46.62068965517241 0.0  0.0 3  1.0 3 
7 0 0  3 4 2  15.198686371100163 46.62068965517241 0.0  22.371100164203614 46.62068965517248 0.0  29.543513957307077 46.62068965517239 0.0  36.71592775041051 46.62068965517241 0.0  0.0 4  1.0 4 
7 0 0  3 4 2  14.51559934318555 67.79638752052544 -10.0  18.244788366971406 64.23931491322213 -10.000000000000025  21.973977390757174 60.68224230591864 -9.999999999999991  25.703166414543006 57.12516969861526 -10.0  0.0 4  1.0 4 
7 0 0  3 4 2  25.703166414543006 57.12516969861526 -10.0  29.374086859832275 53.62367635080104 -10.000000000000014  33.045007305121295 50.122183002986674 -9.999999999999993  36.71592775041051 46.62068965517241 -10.0  0.0 4  1.0 4 
7 0 0  3 4 2  14.51559934318555 67.79638752052544 0.0  21.91570881226056 60.737821565407806 0.0  29.31581828133551 53.67925561029006 0.0  36.71592775041051 46.62068965517241 0.0  0.0 4  1.0 4 
7 0 0  3 4 2  15.198686371100163 46.62068965517241 -10.0  18.700179718914477 50.122183002986816 -10.000000000000018  22.20167306672871 53.623676350800906 -9.999999999999988  25.703166414543006 57.12516969861526 -10.0  0.0 4  1.0 4 
7 0 0  3 4 2  36.71592775041051 46.62068965517241 -10.0  36.8866995073892 53.96387520525461 -10.00000000000002  37.05747126436779 61.3070607553366 -9.999999999999995  37.228243021346465 68.65024630541872 -10.0  0.0 4  1.0 4 
7 0 0  2 3 2  37.228243021346465 68.65024630541872 -10.0  37.228243021346465 68.65024630541872 -5.0  37.228243021346465 68.65024630541872 0.0  0.0 3  1.0 3 
7 0 0  2 3 2  37.228243021346465 68.65024630541872 -10.0  37.228243021346465 68.65024630541872 -5.0  37.228243021346465 68.65024630541872 0.0  0.0 3  1.0 3 
7 0 0  2 3 2  37.228243021346465 68.65024630541872 -10.0  37.228243021346465 68.65024630541872 -5.0  37.228243021346465 68.65024630541872 0.0  0.0 3  1.0 3 
7 0 0  3 4 2  36.71592775041051 46.62068965517241 0.0  36.8866995073892 53.96387520525461 0.0  37.05747126436779 61.3070607553366 0.0  37.228243021346465 68.65024630541872 0.0  0.0 4  1.0 4 
7 0 0  3 4 2  14.51559934318555 67.79638752052544 -10.0  22.08648056923921 68.08100711548991 -10.00000000000001  29.657361795292804 68.36562671045425 -9.999999999999993  37.228243021346465 68.65024630541872 -10.0  0.0 4  1.0 4 
7 0 0  3 4 2  14.51559934318555 67.79638752052544 0.0  22.08648056923921 68.08100711548991 0.0  29.657361795292804 68.36562671045425 0.0  37.228243021346465 68.65024630541872 0.0  0.0 4  1.0 4 
7 0 0  3 4 2  25.703166414543006 57.12516969861526 -10.0  29.54485861681085 60.966861900883146 -10.00000000000002  33.38655081907864 64.80855410315084 -9.999999999999993  37.228243021346465 68.65024630541872 -10.0  0.0 4  1.0 4 
7 0 0  2 3 2  15.198686371100163 46.62068965517241 -20.0  15.198686371100163 46.62068965517241 -15.0  15.198686371100163 46.62068965517241 -10.0  0.0 3  1.0 3 
7 0 0  2 3 2  15.198686371100163 46.62068965517241 -20.0  15.198686371100163 46.62068965517241 -15.0  15.198686371100163 46.62068965517241 -10.0  0.0 3  1.0 3 
7 0 0  2 3 2  15.198686371100163 46.62068965517241 -20.0  15.198686371100163 46.62068965517241 -15.0  15.198686371100163 46.62068965517241 -10.0  0.0 3  1.0 3 
7 0 0  2 3 2  15.198686371100163 46.62068965517241 -20.0  15.198686371100163 46.62068965517241 -15.0  15.198686371100163 46.62068965517241 -10.0  0.0 3  1.0 3 
7 0 0  3 4 2  15.198686371100163 46.62068965517241 -20.0  22.371100164203614 46.62068965517248 -20.000000000000014  29.543513957307077 46.62068965517239 -19.999999999999996  36.71592775041051 46.62068965517241 -20.0  0.0 4  1.0 4 
7 0 0  2 3 2  36.71592775041051 46.62068965517241 -20.0  36.71592775041051 46.62068965517241 -15.0  36.71592775041051 46.62068965517241 -10.0  0.0 3  1.0 3 
7 0 0  2 3 2  36.71592775041051 46.62068965517241 -20.0  36.71592775041051 46.62068965517241 -15.0  36.71592775041051 46.62068965517241 -10.0  0.0 3  1.0 3 
7 0 0  2 3 2  36.71592775041051 46.62068965517241 -20.0  36.71592775041051 46.62068965517241 -15.0  36.71592775041051 46.62068965517241 -10.0  0.0 3  1.0 3 
7 0 0  3 4 2  36.71592775041051 46.62068965517241 -20.0  36.8866995073892 53.96387520525461 -20.00000000000004  37.05747126436779 61.3070607553366 -19.99999999999999  37.228243021346465 68.65024630541872 -20.0  0.0 4  1.0 4 
7 0 0  2 3 2  37.228243021346465 68.65024630541872 -20.0  37.228243021346465 68.65024630541872 -15.0  37.228243021346465 68.65024630541872 -10.0  0.0 3  1.0 3 
7 0 0  2 3 2  37.228243021346465 68.65024630541872 -20.0  37.228243021346465 68.65024630541872 -15.0  37.228243021346465 68.65024630541872 -10.0  0.0 3  1.0 3 
7 0 0  2 3 2  37.228243021346465 68.65024630541872 -20.0  37.228243021346465 68.65024630541872 -15.0  37.228243021346465 68.65024630541872 -10.0  0.0 3  1.0 3 
7 0 0  2 3 2  37.228243021346465 68.65024630541872 -20.0  37.228243021346465 68.65024630541872 -15.0  37.228243021346465 68.65024630541872 -10.0  0.0 3  1.0 3 
7 0 0  3 4 2  15.198686371100163 46.62068965517241 -20.0  22.541871921182285 53.963875205254624 -20.000000000000025  29.88505747126435 61.307060755336565 -19.99999999999999  37.228243021346465 68.65024630541872 -20.0  0.0 4  1.0 4 
7 0 0  2 3 2  14.51559934318555 67.79638752052544 -20.0  14.51559934318555 67.79638752052544 -15.0  14.51559934318555 67.79638752052544 -10.0  0.0 3  1.0 3 
7 0 0  2 3 2  14.51559934318555 67.79638752052544 -20.0  14.51559934318555 67.79638752052544 -15.0  14.51559934318555 67.79638752052544 -10.0  0.0 3  1.0 3 
7 0 0  2 3 2  14.51559934318555 67.79638752052544 -20.0  14.51559934318555 67.79638752052544 -15.0  14.51559934318555 67.79638752052544 -10.0  0.0 3  1.0 3 
7 0 0  3 4 2  14.51559934318555 67.79638752052544 -20.0  22.08648056923921 68.08100711548991 -20.00000000000002  29.657361795292804 68.36562671045425 -19.999999999999986  37.228243021346465 68.65024630541872 -20.0  0.0 4  1.0 4 
7 0 0  3 4 2  14.51559934318555 67.79638752052544 -20.0  14.743295019157106 60.73782156540779 -20.00000000000002  14.970990695128615 53.67925561029009 -19.999999999999986  15.198686371100163 46.62068965517241 -20.0  0.0 4  1.0 4 
Polygon3D 0
PolygonOnTriangulations 0
Surfaces 13
9 0 0 0 0  2 2 3 3  2 2  14.51559934318555 67.79638752052544 -11.00000000000001  14.51559934318555 67.79638752052544 -5.000000000000005  14.51559934318555 67.79638752052544 1.0   14.857142857142856 57.20853858784893 -11.00000000000001  14.857142857142856 57.208538587848935 -5.000000000000005  14.857142857142856 57.20853858784893 1.0   15.198686371100163 46.62068965517241 -11.00000000000001  15.198686371100163 46.62068965517241 -5.000000000000005  15.198686371100163 46.62068965517241 1.0   0.0 3  1.0 3  0.0 3  1.0 3 
9 0 0 0 0  2 2 3 3  2 2  14.51559934318555 67.79638752052544 -11.00000000000001  14.51559934318555 67.79638752052544 -5.000000000000005  14.51559934318555 67.79638752052544 1.0   25.871921182266007 68.22331691297208 -11.00000000000001  25.871921182266007 68.22331691297208 -5.000000000000005  25.871921182266007 68.22331691297208 1.0   37.228243021346465 68.65024630541872 -11.00000000000001  37.228243021346465 68.65024630541872 -5.000000000000005  37.228243021346465 68.65024630541872 1.0   0.0 3  1.0 3  0.0 3  1.0 3 
9 0 0 0 0  2 2 3 3  2 2  14.51559934318555 67.79638752052544 -11.000000000000025  14.51559934318555 67.79638752052544 -5.000000000000012  14.51559934318555 67.79638752052544 1.0   25.61576354679803 57.20853858784893 -11.000000000000025  25.61576354679803 57.208538587848935 -5.000000000000012  25.61576354679803 57.20853858784893 1.0   36.71592775041051 46.62068965517241 -11.000000000000025  36.71592775041051 46.62068965517241 -5.000000000000012  36.71592775041051 46.62068965517241 1.0   0.0 3  1.0 3  0.0 3  1.0 3 
9 0 0 0 0  2 2 3 3  2 2  14.51559934318555 46.62068965517241 -10.0  14.51559934318555 57.635467980295566 -10.0  14.51559934318555 68.65024630541872 -10.0   25.871921182266007 46.62068965517241 -10.0  25.871921182266007 57.635467980295566 -10.0  25.871921182266007 68.65024630541872 -10.0   37.228243021346465 46.62068965517241 -10.0  37.228243021346465 57.635467980295566 -10.0  37.228243021346465 68.65024630541872 -10.0   0.0 3  1.0 3  0.0 3  1.0 3 
9 0 0 0 0  2 2 3 3  2 2  14.51559934318555 67.79638752052544 -21.00000000000002  14.51559934318555 67.79638752052544 -15.000000000000007  14.51559934318555 67.79638752052544 -8.999999999999993   14.857142857142856 57.20853858784893 -21.00000000000002  14.857142857142856 57.208538587848935 -15.000000000000007  14.857142857142856 57.20853858784893 -8.999999999999993   15.198686371100163 46.62068965517241 -21.00000000000002  15.198686371100163 46.62068965517241 -15.000000000000007  15.198686371100163 46.62068965517241 -8.999999999999993   0.0 3  1.0 3  0.0 3  1.0 3 
9 0 0 0 0  2 2 3 3  2 2  15.198686371100163 46.62068965517241 -11.000000000000007  15.198686371100163 46.62068965517241 -5.0000000000000036  15.198686371100163 46.62068965517241 1.0   25.957307060755333 46.62068965517241 -11.000000000000007  25.957307060755333 46.62068965517241 -5.0000000000000036  25.957307060755333 46.62068965517241 1.0   36.71592775041051 46.62068965517241 -11.000000000000007  36.7159277504105 46.62068965517241 -5.0000000000000036  36.7159277504105 46.62068965517241 1.0   0.0 3  1.0 3  0.0 3  1.0 3 
9 0 0 0 0  2 2 3 3  2 2  14.51559934318555 46.62068965517241 -0.0  14.51559934318555 57.635467980295566 -0.0  14.51559934318555 68.65024630541872 -0.0   25.871921182266007 46.62068965517241 -0.0  25.871921182266007 57.635467980295566 -0.0  25.871921182266007 68.65024630541872 -0.0   37.228243021346465 46.62068965517241 -0.0  37.228243021346465 57.635467980295566 -0.0  37.228243021346465 68.65024630541872 -0.0   0.0 3  1.0 3  0.0 3  1.0 3 
9 0 0 0 0  2 2 3 3  2 2  15.198686371100163 46.62068965517241 -21.000000000000014  15.198686371100163 46.62068965517241 -15.000000000000007  15.198686371100163 46.62068965517241 -8.999999999999998   25.957307060755333 46.62068965517241 -21.000000000000014  25.957307060755333 46.62068965517241 -15.000000000000007  25.957307060755333 46.62068965517241 -9.0   36.71592775041051 46.62068965517241 -21.000000000000014  36.7159277504105 46.62068965517241 -15.000000000000007  36.7159277504105 46.62068965517241 -9.0   0.0 3  1.0 3  0.0 3  1.0 3 
9 0 0 0 0  2 2 3 3  2 2  36.71592775041051 46.62068965517241 -11.00000000000002  36.71592775041051 46.62068965517241 -5.00000000000001  36.71592775041051 46.62068965517241 1.0   36.972085385878486 57.635467980295566 -11.00000000000002  36.972085385878486 57.635467980295566 -5.00000000000001  36.972085385878486 57.635467980295566 1.0   37.228243021346465 68.65024630541872 -11.00000000000002  37.228243021346465 68.65024630541872 -5.00000000000001  37.228243021346465 68.65024630541872 1.0   0.0 3  1.0 3  0.0 3  1.0 3 
9 0 0 0 0  2 2 3 3  2 2  15.198686371100163 46.62068965517241 -21.000000000000025  15.198686371100163 46.62068965517241 -15.000000000000007  15.198686371100163 46.62068965517241 -8.999999999999988   26.213464696223312 57.635467980295566 -21.000000000000025  26.213464696223312 57.635467980295566 -15.000000000000007  26.213464696223312 57.635467980295566 -8.99999999999999   37.228243021346465 68.65024630541872 -21.000000000000025  37.22824302134646 68.65024630541872 -15.000000000000007  37.22824302134646 68.65024630541872 -8.99999999999999   0.0 3  1.0 3  0.0 3  1.0 3 
9 0 0 0 0  2 2 3 3  2 2  36.71592775041051 46.62068965517241 -21.00000000000004  36.71592775041051 46.62068965517241 -15.000000000000018  36.71592775041051 46.62068965517241 -8.999999999999995   36.972085385878486 57.635467980295566 -21.00000000000004  36.972085385878486 57.635467980295566 -15.000000000000016  36.972085385878486 57.635467980295566 -8.999999999999996   37.228243021346465 68.65024630541872 -21.00000000000004  37.228243021346465 68.65024630541872 -15.000000000000018  37.228243021346465 68.65024630541872 -8.999999999999996   0.0 3  1.0 3  0.0 3  1.0 3 
9 0 0 0 0  2 2 3 3  2 2  14.51559934318555 67.79638752052544 -21.00000000000002  14.51559934318555 67.79638752052544 -15.000000000000007  14.51559934318555 67.79638752052544 -8.999999999999993   25.871921182266007 68.22331691297208 -21.00000000000002  25.871921182266007 68.22331691297208 -15.000000000000007  25.871921182266007 68.22331691297208 -8.999999999999993   37.228243021346465 68.65024630541872 -21.00000000000002  37.228243021346465 68.65024630541872 -15.000000000000007  37.228243021346465 68.65024630541872 -8.999999999999993   0.0 3  1.0 3  0.0 3  1.0 3 
9 0 0 0 0  2 2 3 3  2 2  14.51559934318555 46.62068965517241 -20.0  14.51559934318555 57.635467980295566 -20.0  14.51559934318555 68.65024630541872 -20.0   25.871921182266007 46.62068965517241 -20.0  25.871921182266007 57.635467980295566 -20.0  25.871921182266007 68.65024630541872 -20.0   37.228243021346465 46.62068965517241 -20.0  37.228243021346465 57.635467980295566 -20.0  37.228243021346465 68.65024630541872 -20.0   0.0 3  1.0 3  0.0 3  1.0 3 
Triangulations 0

TShapes 84
Ve
0.001
14.51559934318555 67.79638752052544 -10.0 
0 0

0101000
*
Ve
0.001
14.51559934318555 67.79638752052544 0.0 
0 0

0101000
*
Ed
 0.001 1 1 0
1 1 0 0.0 1.0
1 2 0 0.0 1.0
2 1 1 0 0.0 1.0
1 3 0 0.0 1.0
2 2 2 0 0.0 1.0
1 4 0 0.0 1.0
2 3 3 0 0.0 1.0
0
0101000
+84 0 -83 0 *
Ve
0.001
15.198686371100163 46.62068965517241 -10.0 
0 0

0101000
*
Ed
 0.001 1 1 0
1 5 0 0.0 1.0
2 4 4 0 0.0 1.0
2 5 1 0 0.0 1.0
2 6 5 0 0.0 1.0
0
0101000
+84 0 -81 0 *
Ve
0.001
15.198686371100163 46.62068965517241 0.0 
0 0

0101000
*
Ed
 0.001 1 1 0
1 6 0 0.0 1.0
1 7 0 0.0 1.0
2 7 1 0 0.0 1.0
1 8 0 0.0 1.0
2 8 6 0 0.0 1.0
0
0101000
+81 0 -79 0 *
Ed
 0.001 1 1 0
1 9 0 0.0 1.0
2 9 7 0 0.0 1.0
2 10 1 0 0.0 1.0
0
0101000
+83 0 -79 0 *
Wi

0101100
-82 0 +80 0 +78 0 -77 0 *
Fa
0 0.001 1 0

0101000
+76 0 *
Ve
0.001
36.71592775041051 46.62068965517241 -10.0 
0 0

0101000
*
Ed
 0.001 1 1 0
1 10 0 0.0 1.0
2 11 4 0 0.0 1.0
2 12 6 0 0.0 1.0
2 13 8 0 0.0 1.0
0
0101000
+81 0 -74 0 *
Ve
0.001
36.71592775041051 46.62068965517241 0.0 
0 0

0101000
*
Ed
 0.001 1 1 0
1 11 0 0.0 1.0
1 12 0 0.0 1.0
2 14 6 0 0.0 1.0
1 13 0 0.0 1.0
2 15 9 0 0.0 1.0
1 14 0 0.0 1.0
2 16 3 0 0.0 1.0
0
0101000
+74 0 -72 0 *
Ed
 0.001 1 1 0
1 15 0 0.0 1.0
2 17 7 0 0.0 1.0
2 18 6 0 0.0 1.0
0
0101000
+79 0 -72 0 *
Wi

0101100
-78 0 +73 0 +71 0 -70 0 *
Fa
0 0.001 6 0

0101000
+69 0 *
Ve
0.001
25.703166414543006 57.12516969861526 -10.0 
0 0

0101000
*
Ed
 0.001 1 1 0
1 16 0 0.0 1.0
2 19 4 0 0.0 1.0
2 20 3 0 0.0 1.0
0
0101000
+84 0 -67 0 *
Ed
 0.001 1 1 0
1 17 0 0.0 1.0
2 21 4 0 0.0 1.0
2 22 3 0 0.0 1.0
0
0101000
+67 0 -74 0 *
Ed
 0.001 1 1 0
1 18 0 0.0 1.0
2 23 7 0 0.0 1.0
2 24 3 0 0.0 1.0
0
0101000
+83 0 -72 0 *
Wi

0101100
-82 0 +66 0 +65 0 +71 0 -64 0 *
Fa
0 0.001 3 0

0101000
+63 0 *
Wi

0101100
+77 0 +70 0 -64 0 *
Fa
0 0.001 7 0

0101000
+61 0 *
Ed
 0.001 1 1 0
1 19 0 0.0 1.0
2 25 4 0 0.0 1.0
2 26 10 0 0.0 1.0
0
0101000
+81 0 -67 0 *
Wi

0101100
-65 0 -59 0 +73 0 *
Fa
0 0.001 4 0

0101000
+58 0 *
Wi

0101100
-66 0 +80 0 +59 0 *
Fa
0 0.001 4 0

0101000
+56 0 *
Sh

0101000
+75 0 +68 0 -62 0 +60 0 -57 0 -55 0 *
So

1100000
+54 0 *
Ve
0.001
37.228243021346465 68.65024630541872 -10.0 
0 0

0101000
*
Ed
 0.001 1 1 0
1 20 0 0.0 1.0
2 27 4 0 0.0 1.0
2 28 9 0 0.0 1.0
2 29 11 0 0.0 1.0
0
0101000
+74 0 -52 0 *
Ve
0.001
37.228243021346465 68.65024630541872 0.0 
0 0

0101000
*
Ed
 0.001 1 1 0
1 21 0 0.0 1.0
1 22 0 0.0 1.0
2 30 9 0 0.0 1.0
1 23 0 0.0 1.0
2 31 2 0 0.0 1.0
0
0101000
+52 0 -50 0 *
Ed
 0.001 1 1 0
1 24 0 0.0 1.0
2 32 7 0 0.0 1.0
2 33 9 0 0.0 1.0
0
0101000
+72 0 -50 0 *
Wi

0101100
-71 0 +51 0 +49 0 -48 0 *
Fa
0 0.001 9 0

0101000
+47 0 *
Ed
 0.001 1 1 0
1 25 0 0.0 1.0
2 34 4 0 0.0 1.0
2 35 2 0 0.0 1.0
2 36 12 0 0.0 1.0
0
0101000
+84 0 -52 0 *
Ed
 0.001 1 1 0
1 26 0 0.0 1.0
2 37 7 0 0.0 1.0
2 38 2 0 0.0 1.0
0
0101000
+83 0 -50 0 *
Wi

0101100
-82 0 +45 0 +49 0 -44 0 *
Fa
0 0.001 2 0

0101000
+43 0 *
Wi

0101100
+48 0 -44 0 +64 0 *
Fa
0 0.001 7 0

0101000
+41 0 *
Ed
 0.001 1 1 0
1 27 0 0.0 1.0
2 39 4 0 0.0 1.0
2 40 10 0 0.0 1.0
0
0101000
+67 0 -52 0 *
Wi

0101100
+66 0 +39 0 -45 0 *
Fa
0 0.001 4 0

0101000
+38 0 *
Wi

0101100
+65 0 +51 0 -39 0 *
Fa
0 0.001 4 0

0101000
+36 0 *
Sh

0101000
+46 0 -42 0 +62 0 +40 0 -37 0 -35 0 *
So

1100000
+34 0 *
Ve
0.001
15.198686371100163 46.62068965517241 -20.0 
0 0

0101000
*
Ed
 0.001 1 1 0
1 28 0 0.0 1.0
1 29 0 0.0 1.0
2 41 5 0 0.0 1.0
1 30 0 0.0 1.0
2 42 8 0 0.0 1.0
1 31 0 0.0 1.0
2 43 10 0 0.0 1.0
0
0101000
+32 0 -81 0 *
Ve
0.001
36.71592775041051 46.62068965517241 -20.0 
0 0

0101000
*
Ed
 0.001 1 1 0
1 32 0 0.0 1.0
2 44 13 0 0.0 1.0
2 45 8 0 0.0 1.0
0
0101000
+32 0 -30 0 *
Ed
 0.001 1 1 0
1 33 0 0.0 1.0
1 34 0 0.0 1.0
2 46 8 0 0.0 1.0
1 35 0 0.0 1.0
2 47 11 0 0.0 1.0
0
0101000
+30 0 -74 0 *
Wi

0101100
-31 0 +29 0 +28 0 -73 0 *
Fa
0 0.001 8 0

0101000
+27 0 *
Ve
0.001
37.228243021346465 68.65024630541872 -20.0 
0 0

0101000
*
Ed
 0.001 1 1 0
1 36 0 0.0 1.0
2 48 13 0 0.0 1.0
2 49 11 0 0.0 1.0
0
0101000
+30 0 -25 0 *
Ed
 0.001 1 1 0
1 37 0 0.0 1.0
1 38 0 0.0 1.0
2 50 11 0 0.0 1.0
1 39 0 0.0 1.0
2 51 12 0 0.0 1.0
1 40 0 0.0 1.0
2 52 10 0 0.0 1.0
0
0101000
+25 0 -52 0 *
Wi

0101100
-28 0 +24 0 +23 0 -51 0 *
Fa
0 0.001 11 0

0101000
+22 0 *
Ed
 0.001 1 1 0
1 41 0 0.0 1.0
2 53 13 0 0.0 1.0
2 54 10 0 0.0 1.0
0
0101000
+32 0 -25 0 *
Wi

0101100
-31 0 +20 0 +23 0 -39 0 -59 0 *
Fa
0 0.001 10 0

0101000
+19 0 *
Wi

0101100
+29 0 +24 0 -20 0 *
Fa
0 0.001 13 0

0101000
+17 0 *
Sh

0101000
+26 0 +21 0 -18 0 +57 0 +35 0 -16 0 *
So

1100000
+15 0 *
Ve
0.001
14.51559934318555 67.79638752052544 -20.0 
0 0

0101000
*
Ed
 0.001 1 1 0
1 42 0 0.0 1.0
1 43 0 0.0 1.0
2 55 5 0 0.0 1.0
1 44 0 0.0 1.0
2 56 12 0 0.0 1.0
0
0101000
+13 0 -84 0 *
Ed
 0.001 1 1 0
1 45 0 0.0 1.0
2 57 13 0 0.0 1.0
2 58 12 0 0.0 1.0
0
0101000
+13 0 -25 0 *
Wi

0101100
-12 0 +11 0 +23 0 -45 0 *
Fa
0 0.001 12 0

0101000
+10 0 *
Ed
 0.001 1 1 0
1 46 0 0.0 1.0
2 59 13 0 0.0 1.0
2 60 5 0 0.0 1.0
0
0101000
+13 0 -32 0 *
Wi

0101100
-12 0 +8 0 +31 0 -80 0 *
Fa
0 0.001 5 0

0101000
+7 0 *
Wi

0101100
-11 0 +8 0 +20 0 *
Fa
0 0.001 13 0

0101000
+5 0 *
Sh

0101000
-9 0 +6 0 +18 0 +55 0 +37 0 -4 0 *
So

1100000
+3 0 *
Co

1100000
+53 0 +33 0 +14 0 +2 0 *

+1 0