DBRep_DrawableShape

CASCADE Topology V1, (c) Matra-Datavision
Locations 0
Curve2ds 60
7 0 0  2 3 2  0.0 0.08333333333334066  0.0 0.500000000000004  0.0 0.9166666666666673  0.0 3  1.0 3 
7 0 0  2 3 2  0.0 0.0833333333333389  0.0 0.500000000000003  0.0 0.9166666666666672  0.0 3  1.0 3 
7 0 0  2 3 2  0.0 0.08333333333333835  0.0 0.5000000000000027  0.0 0.9166666666666671  0.0 3  1.0 3 
7 0 0  2 3 2  0.0 0.961240310077519  0.01503759398496239 0.4806201550387595  0.03007518796992478 0.0  0.0 3  1.0 3 
7 0 0  3 4 2  -0.0 0.08333333333334066  0.3333333333333083 0.08333333333333266  0.6666666666667028 0.08333333333334243  1.0 0.08333333333334066  0.0 4  1.0 4 
7 0 0  3 4 2  -0.0 0.9166666666666664  0.3333333333333083 0.9166666666666584  0.6666666666667028 0.9166666666666682  1.0 0.9166666666666664  0.0 4  1.0 4 
7 0 0  2 3 2  1.0 0.08333333333334066  1.0 0.500000000000004  1.0 0.9166666666666673  0.0 3  1.0 3 
7 0 0  2 3 2  0.0 0.08333333333333821  0.0 0.5000000000000027  0.0 0.9166666666666671  0.0 3  1.0 3 
7 0 0  2 3 2  0.0 0.961240310077519  0.01503759398496239 0.4806201550387595  0.03007518796992478 0.0  0.0 3  1.0 3 
7 0 0  3 4 2  -0.0 0.9166666666666673  0.3333333333333083 0.9166666666666673  0.6666666666667028 0.9166666666666673  1.0 0.9166666666666673  0.0 4  1.0 4 
7 0 0  2 3 2  0.03007518796992478 0.0  0.5037593984962406 0.0  0.9774436090225566 0.0  0.0 3  1.0 3 
7 0 0  3 4 2  0.0 0.08333333333333821  0.333333333333348 0.08333333333333288  0.666666666666665 0.08333333333334103  1.0 0.08333333333333821  0.0 4  1.0 4 
7 0 0  3 4 2  0.0 0.916666666666665  0.333333333333348 0.9166666666666596  0.666666666666665 0.9166666666666677  1.0 0.916666666666665  0.0 4  1.0 4 
7 0 0  2 3 2  1.0 0.08333333333333821  1.0 0.5000000000000027  1.0 0.9166666666666671  0.0 3  1.0 3 
7 0 0  2 3 2  0.0 0.08333333333334378  0.0 0.5000000000000057  0.0 0.9166666666666676  0.0 3  1.0 3 
7 0 0  2 3 2  1.0 0.08333333333333835  1.0 0.5000000000000027  1.0 0.9166666666666671  0.0 3  1.0 3 
7 0 0  2 3 2  0.03007518796992478 0.0  0.5037593984962406 0.0  0.9774436090225566 0.0  0.0 3  1.0 3 
7 0 0  3 4 2  0.0 0.9166666666666671  0.333333333333348 0.9166666666666671  0.666666666666665 0.9166666666666671  1.0 0.9166666666666671  0.0 4  1.0 4 
7 0 0  2 3 2  0.0 0.961240310077519  0.24628500384820315 0.7190380272233411  0.4925700076964063 0.4768357443691632  0.0 3  1.0 3 
7 0 0  3 4 2  0.0 0.08333333333333835  0.16797900262469134 0.08333333333333287  0.3359580052493367 0.08333333333334161  0.5039370078740156 0.08333333333333835  0.0 4  1.0 4 
7 0 0  2 3 2  0.4925700076964063 0.4768357443691632  0.7350068083594814 0.2384178721845816  0.9774436090225566 0.0  0.0 3  1.0 3 
7 0 0  3 4 2  0.5039370078740156 0.08333333333333835  0.6692913385826869 0.08333333333333302  0.8346456692913359 0.0833333333333419  1.0 0.08333333333333835  0.0 4  1.0 4 
7 0 0  2 3 2  0.0 0.961240310077519  0.4887218045112783 0.4806201550387595  0.9774436090225566 0.0  0.0 3  1.0 3 
7 0 0  3 4 2  0.0 0.9166666666666671  0.33333333333333853 0.9166666666666671  0.6666666666666642 0.9166666666666671  1.0 0.9166666666666671  0.0 4  1.0 4 
7 0 0  2 3 2  0.03007518796992478 0.0  0.2613225978331655 0.2384178721845816  0.4925700076964063 0.4768357443691632  0.0 3  1.0 3 
7 0 0  3 4 2  0.0 0.9166666666666661  0.158945248123076 0.9166666666666606  0.3178904962460956 0.916666666666668  0.4768357443691632 0.9166666666666661  0.0 4  1.0 4 
7 0 0  2 3 2  0.9774436090225566 0.0  0.9887218045112782 0.5  1.0 1.0  0.0 3  1.0 3 
7 0 0  3 4 2  0.0 0.08333333333334378  0.3333333333333799 0.08333333333333239  0.6666666666666782 0.08333333333334808  1.0 0.08333333333334378  0.0 4  1.0 4 
7 0 0  3 4 2  0.0 0.9166666666666646  0.3333333333333799 0.9166666666666532  0.6666666666666782 0.916666666666669  1.0 0.9166666666666646  0.0 4  1.0 4 
7 0 0  2 3 2  1.0 0.08333333333334378  1.0 0.5000000000000057  1.0 0.9166666666666676  0.0 3  1.0 3 
7 0 0  2 3 2  1.0 0.0833333333333389  1.0 0.500000000000003  1.0 0.9166666666666672  0.0 3  1.0 3 
7 0 0  2 3 2  0.9774436090225566 0.0  0.9887218045112782 0.5  1.0 1.0  0.0 3  1.0 3 
7 0 0  3 4 2  0.0 0.9166666666666676  0.3333333333333799 0.9166666666666676  0.6666666666666782 0.9166666666666676  1.0 0.9166666666666676  0.0 4  1.0 4 
7 0 0  2 3 2  0.0 0.961240310077519  0.5 0.9806201550387594  1.0 1.0  0.0 3  1.0 3 
7 0 0  3 4 2  0.0 0.0833333333333389  0.3333333333333445 0.08333333333333283  0.6666666666666471 0.08333333333333756  1.0 0.0833333333333389  0.0 4  1.0 4 
7 0 0  3 4 2  0.0 0.9166666666666676  0.3333333333333445 0.9166666666666616  0.6666666666666471 0.9166666666666663  1.0 0.9166666666666676  0.0 4  1.0 4 
7 0 0  2 3 2  0.0 0.961240310077519  0.5 0.9806201550387594  1.0 1.0  0.0 3  1.0 3 
7 0 0  3 4 2  0.0 0.9166666666666672  0.3333333333333445 0.9166666666666672  0.6666666666666471 0.9166666666666672  1.0 0.9166666666666672  0.0 4  1.0 4 
7 0 0  2 3 2  0.4925700076964063 0.4768357443691632  0.7462850038482032 0.7384178721845815  1.0 1.0  0.0 3  1.0 3 
7 0 0  3 4 2  0.4768357443691632 0.9166666666666661  0.6512238295794706 0.9166666666666616  0.8256119147897125 0.9166666666666653  1.0 0.9166666666666661  0.0 4  1.0 4 
7 0 0  2 3 2  1.0 0.08333333333334784  1.0 0.5000000000000071  1.0 0.9166666666666664  0.0 3  1.0 3 
7 0 0  2 3 2  0.0 0.08333333333334286  0.0 0.5000000000000039  0.0 0.916666666666665  0.0 3  1.0 3 
7 0 0  2 3 2  0.0 0.08333333333334593  0.0 0.500000000000006  0.0 0.9166666666666661  0.0 3  1.0 3 
7 0 0  2 3 2  0.03007518796992478 0.0  0.5037593984962406 0.0  0.9774436090225566 0.0  0.0 3  1.0 3 
7 0 0  3 4 2  0.0 0.08333333333334286  0.333333333333348 0.0833333333333322  0.666666666666665 0.0833333333333485  1.0 0.08333333333334286  0.0 4  1.0 4 
7 0 0  2 3 2  1.0 0.08333333333334286  1.0 0.5000000000000039  1.0 0.916666666666665  0.0 3  1.0 3 
7 0 0  2 3 2  0.0 0.08333333333335387  0.0 0.5000000000000092  0.0 0.9166666666666646  0.0 3  1.0 3 
7 0 0  2 3 2  0.9774436090225566 0.0  0.9887218045112782 0.5  1.0 1.0  0.0 3  1.0 3 
7 0 0  3 4 2  0.0 0.08333333333335387  0.3333333333333799 0.08333333333333108  0.6666666666666782 0.08333333333336246  1.0 0.08333333333335387  0.0 4  1.0 4 
7 0 0  2 3 2  1.0 0.08333333333335387  1.0 0.5000000000000092  1.0 0.9166666666666646  0.0 3  1.0 3 
7 0 0  2 3 2  1.0 0.08333333333334446  1.0 0.500000000000006  1.0 0.9166666666666676  0.0 3  1.0 3 
7 0 0  2 3 2  1.0 0.08333333333334593  1.0 0.500000000000006  1.0 0.9166666666666661  0.0 3  1.0 3 
7 0 0  2 3 2  0.03007518796992478 0.0  0.5150375939849624 0.5  1.0 1.0  0.0 3  1.0 3 
7 0 0  3 4 2  0.0 0.08333333333334593  0.3333333333333683 0.08333333333333201  0.6666666666666436 0.08333333333334889  1.0 0.08333333333334593  0.0 4  1.0 4 
7 0 0  2 3 2  0.0 0.08333333333334784  0.0 0.5000000000000071  0.0 0.9166666666666664  0.0 3  1.0 3 
7 0 0  2 3 2  0.0 0.08333333333334446  0.0 0.500000000000006  0.0 0.9166666666666676  0.0 3  1.0 3 
7 0 0  2 3 2  0.0 0.961240310077519  0.5 0.9806201550387594  1.0 1.0  0.0 3  1.0 3 
7 0 0  3 4 2  0.0 0.08333333333334446  0.3333333333333445 0.08333333333333232  0.6666666666666471 0.0833333333333418  1.0 0.08333333333334446  0.0 4  1.0 4 
7 0 0  2 3 2  0.0 0.961240310077519  0.01503759398496239 0.4806201550387595  0.03007518796992478 0.0  0.0 3  1.0 3 
7 0 0  3 4 2  -0.0 0.08333333333334784  0.3333333333333083 0.08333333333333186  0.6666666666667028 0.0833333333333514  1.0 0.08333333333334784  0.0 4  1.0 4 
Curves 46
7 0 0  2 3 2  14.51559934318555 67.79638752052544 -10.0  14.51559934318555 67.79638752052544 -5.0  14.51559934318555 67.79638752052544 0.0  0.0 3  1.0 3 
7 0 0  2 3 2  14.51559934318555 67.79638752052544 -10.0  14.51559934318555 67.79638752052544 -5.0  14.51559934318555 67.79638752052544 0.0  0.0 3  1.0 3 
7 0 0  2 3 2  14.51559934318555 67.79638752052544 -10.0  14.51559934318555 67.79638752052544 -5.0  14.51559934318555 67.79638752052544 0.0  0.0 3  1.0 3 
7 0 0  2 3 2  14.51559934318555 67.79638752052544 -10.0  14.51559934318555 67.79638752052544 -5.0  14.51559934318555 67.79638752052544 0.0  0.0 3  1.0 3 
7 0 0  3 4 2  14.51559934318555 67.79638752052544 -10.0  14.74329501915709 60.7378215654083 -10.000000000000096  14.970990695128632 53.679255610289324 -9.999999999999979  15.198686371100163 46.62068965517241 -10.0  0.0 4  1.0 4 
7 0 0  2 3 2  15.198686371100163 46.62068965517241 -10.0  15.198686371100163 46.62068965517241 -5.0  15.198686371100163 46.62068965517241 0.0  0.0 3  1.0 3 
7 0 0  2 3 2  15.198686371100163 46.62068965517241 -10.0  15.198686371100163 46.62068965517241 -5.0  15.198686371100163 46.62068965517241 0.0  0.0 3  1.0 3 
7 0 0  2 3 2  15.198686371100163 46.62068965517241 -10.0  15.198686371100163 46.62068965517241 -5.0  15.198686371100163 46.62068965517241 0.0  0.0 3  1.0 3 
7 0 0  3 4 2  14.51559934318555 67.79638752052544 0.0  14.74329501915709 60.7378215654083 0.0  14.970990695128632 53.679255610289324 0.0  15.198686371100163 46.62068965517241 0.0  0.0 4  1.0 4 
7 0 0  3 4 2  15.198686371100163 46.62068965517241 -10.0  22.371100164203927 46.62068965517285 -10.000000000000064  29.543513957307024 46.62068965517226 -9.999999999999966  36.71592775041051 46.62068965517241 -10.0  0.0 4  1.0 4 
7 0 0  2 3 2  36.71592775041051 46.62068965517241 -10.0  36.71592775041051 46.62068965517241 -5.0  36.71592775041051 46.62068965517241 0.0  0.0 3  1.0 3 
7 0 0  2 3 2  36.71592775041051 46.62068965517241 -10.0  36.71592775041051 46.62068965517241 -5.0  36.71592775041051 46.62068965517241 0.0  0.0 3  1.0 3 
7 0 0  2 3 2  36.71592775041051 46.62068965517241 -10.0  36.71592775041051 46.62068965517241 -5.0  36.71592775041051 46.62068965517241 0.0  0.0 3  1.0 3 
7 0 0  2 3 2  36.71592775041051 46.62068965517241 -10.0  36.71592775041051 46.62068965517241 -5.0  36.71592775041051 46.62068965517241 0.0  0.0 3  1.0 3 
7 0 0  3 4 2  15.198686371100163 46.62068965517241 0.0  22.371100164203927 46.62068965517285 0.0  29.543513957307024 46.62068965517226 0.0  36.71592775041051 46.62068965517241 0.0  0.0 4  1.0 4 
7 0 0  3 4 2  14.51559934318555 67.79638752052544 -10.0  18.2447883669718 64.23931491322335 -10.000000000000066  21.97397739075703 60.68224230591836 -9.999999999999961  25.703166414543006 57.12516969861526 -10.0  0.0 4  1.0 4 
7 0 0  3 4 2  25.703166414543006 57.12516969861526 -10.0  29.37408685983239 53.62367635080159 -10.000000000000064  33.04500730512128 50.12218300298629 -9.999999999999957  36.71592775041051 46.62068965517241 -10.0  0.0 4  1.0 4 
7 0 0  3 4 2  14.51559934318555 67.79638752052544 0.0  21.91570881226065 60.737821565408424 0.0  29.315818281335467 53.679255610289964 0.0  36.71592775041051 46.62068965517241 0.0  0.0 4  1.0 4 
7 0 0  3 4 2  15.198686371100163 46.62068965517241 -10.0  18.70017971891459 50.12218300298717 -10.000000000000066  22.201673066728603 53.623676350800686 -9.999999999999977  25.703166414543006 57.12516969861526 -10.0  0.0 4  1.0 4 
7 0 0  3 4 2  36.71592775041051 46.62068965517241 -10.0  36.88669950738953 53.96387520525554 -10.000000000000137  37.0574712643677 61.30706075533687 -9.999999999999948  37.228243021346465 68.65024630541872 -10.0  0.0 4  1.0 4 
7 0 0  2 3 2  37.228243021346465 68.65024630541872 -10.0  37.228243021346465 68.65024630541872 -5.0  37.228243021346465 68.65024630541872 0.0  0.0 3  1.0 3 
7 0 0  2 3 2  37.228243021346465 68.65024630541872 -10.0  37.228243021346465 68.65024630541872 -5.0  37.228243021346465 68.65024630541872 0.0  0.0 3  1.0 3 
7 0 0  2 3 2  37.228243021346465 68.65024630541872 -10.0  37.228243021346465 68.65024630541872 -5.0  37.228243021346465 68.65024630541872 0.0  0.0 3  1.0 3 
7 0 0  3 4 2  36.71592775041051 46.62068965517241 0.0  36.88669950738953 53.96387520525554 0.0  37.0574712643677 61.30706075533687 0.0  37.228243021346465 68.65024630541872 0.0  0.0 4  1.0 4 
7 0 0  3 4 2  14.51559934318555 67.79638752052544 -10.0  22.08648056923944 68.08100711549038 -10.000000000000073  29.65736179529238 68.36562671045412 -10.000000000000016  37.228243021346465 68.65024630541872 -10.0  0.0 4  1.0 4 
7 0 0  3 4 2  14.51559934318555 67.79638752052544 0.0  22.08648056923944 68.08100711549038 0.0  29.65736179529238 68.36562671045412 0.0  37.228243021346465 68.65024630541872 0.0  0.0 4  1.0 4 
7 0 0  3 4 2  25.703166414543006 57.12516969861526 -10.0  29.544858616811013 60.96686190088371 -10.000000000000053  33.386550819078586 64.80855410315071 -10.000000000000009  37.228243021346465 68.65024630541872 -10.0  0.0 4  1.0 4 
7 0 0  2 3 2  15.198686371100163 46.62068965517241 -20.0  15.198686371100163 46.62068965517241 -15.0  15.198686371100163 46.62068965517241 -10.0  0.0 3  1.0 3 
7 0 0  2 3 2  15.198686371100163 46.62068965517241 -20.0  15.198686371100163 46.62068965517241 -15.0  15.198686371100163 46.62068965517241 -10.0  0.0 3  1.0 3 
7 0 0  2 3 2  15.198686371100163 46.62068965517241 -20.0  15.198686371100163 46.62068965517241 -15.0  15.198686371100163 46.62068965517241 -10.0  0.0 3  1.0 3 
7 0 0  2 3 2  15.198686371100163 46.62068965517241 -20.0  15.198686371100163 46.62068965517241 -15.0  15.198686371100163 46.62068965517241 -10.0  0.0 3  1.0 3 
7 0 0  3 4 2  15.198686371100163 46.62068965517241 -20.0  22.371100164203927 46.62068965517285 -20.000000000000128  29.543513957307024 46.62068965517226 -19.999999999999932  36.71592775041051 46.62068965517241 -20.0  0.0 4  1.0 4 
7 0 0  2 3 2  36.71592775041051 46.62068965517241 -20.0  36.71592775041051 46.62068965517241 -15.0  36.71592775041051 46.62068965517241 -10.0  0.0 3  1.0 3 
7 0 0  2 3 2  36.71592775041051 46.62068965517241 -20.0  36.71592775041051 46.62068965517241 -15.0  36.71592775041051 46.62068965517241 -10.0  0.0 3  1.0 3 
7 0 0  2 3 2  36.71592775041051 46.62068965517241 -20.0  36.71592775041051 46.62068965517241 -15.0  36.71592775041051 46.62068965517241 -10.0  0.0 3  1.0 3 
7 0 0  3 4 2  36.71592775041051 46.62068965517241 -20.0  36.88669950738953 53.96387520525554 -20.000000000000274  37.0574712643677 61.30706075533687 -19.999999999999897  37.228243021346465 68.65024630541872 -20.0  0.0 4  1.0 4 
7 0 0  2 3 2  37.228243021346465 68.65024630541872 -20.0  37.228243021346465 68.65024630541872 -15.0  37.228243021346465 68.65024630541872 -10.0  0.0 3  1.0 3 
7 0 0  2 3 2  37.228243021346465 68.65024630541872 -20.0  37.228243021346465 68.65024630541872 -15.0  37.228243021346465 68.65024630541872 -10.0  0.0 3  1.0 3 
7 0 0  2 3 2  37.228243021346465 68.65024630541872 -20.0  37.228243021346465 68.65024630541872 -15.0  37.228243021346465 68.65024630541872 -10.0  0.0 3  1.0 3 
7 0 0  2 3 2  37.228243021346465 68.65024630541872 -20.0  37.228243021346465 68.65024630541872 -15.0  37.228243021346465 68.65024630541872 -10.0  0.0 3  1.0 3 
7 0 0  3 4 2  15.198686371100163 46.62068965517241 -20.0  22.54187192118259 53.963875205255285 -20.000000000000167  29.88505747126424 61.30706075533611 -19.999999999999964  37.228243021346465 68.65024630541872 -20.0  0.0 4  1.0 4 
7 0 0  2 3 2  14.51559934318555 67.79638752052544 -20.0  14.51559934318555 67.79638752052544 -15.0  14.51559934318555 67.79638752052544 -10.0  0.0 3  1.0 3 
7 0 0  2 3 2  14.51559934318555 67.79638752052544 -20.0  14.51559934318555 67.79638752052544 -15.0  14.51559934318555 67.79638752052544 -10.0  0.0 3  1.0 3 
7 0 0  2 3 2  14.51559934318555 67.79638752052544 -20.0  14.51559934318555 67.79638752052544 -15.0  14.51559934318555 67.79638752052544 -10.0  0.0 3  1.0 3 
7 0 0  3 4 2  14.51559934318555 67.79638752052544 -20.0  22.08648056923944 68.08100711549038 -20.000000000000146  29.65736179529238 68.36562671045412 -20.000000000000032  37.228243021346465 68.65024630541872 -20.0  0.0 4  1.0 4 
7 0 0  3 4 2  14.51559934318555 67.79638752052544 -20.0  14.74329501915709 60.7378215654083 -20.000000000000192  14.970990695128632 53.679255610289324 -19.999999999999957  15.198686371100163 46.62068965517241 -20.0  0.0 4  1.0 4 
Polygon3D 0
PolygonOnTriangulations 0
Surfaces 13
9 0 0 0 0  2 2 3 3  2 2  14.51559934318555 67.79638752052544 -11.000000000000096  14.51559934318555 67.79638752052544 -5.000000000000048  14.51559934318555 67.79638752052544 1.0   14.857142857142856 57.20853858784893 -11.000000000000096  14.857142857142856 57.208538587848935 -5.000000000000048  14.857142857142856 57.20853858784893 1.0   15.198686371100163 46.62068965517241 -11.000000000000096  15.198686371100163 46.62068965517241 -5.000000000000048  15.198686371100163 46.62068965517241 1.0   0.0 3  1.0 3  0.0 3  1.0 3 
9 0 0 0 0  2 2 3 3  2 2  14.51559934318555 67.79638752052544 -11.000000000000073  14.51559934318555 67.79638752052544 -5.000000000000036  14.51559934318555 67.79638752052544 1.0   25.871921182266007 68.22331691297208 -11.000000000000073  25.871921182266007 68.22331691297208 -5.000000000000036  25.871921182266007 68.22331691297208 1.0   37.228243021346465 68.65024630541872 -11.000000000000073  37.228243021346465 68.65024630541872 -5.000000000000036  37.228243021346465 68.65024630541872 1.0   0.0 3  1.0 3  0.0 3  1.0 3 
9 0 0 0 0  2 2 3 3  2 2  14.51559934318555 67.79638752052544 -11.000000000000066  14.51559934318555 67.79638752052544 -5.000000000000033  14.51559934318555 67.79638752052544 1.0   25.61576354679803 57.20853858784893 -11.000000000000066  25.61576354679803 57.208538587848935 -5.000000000000033  25.61576354679803 57.20853858784893 1.0   36.71592775041051 46.62068965517241 -11.000000000000066  36.71592775041051 46.62068965517241 -5.000000000000033  36.71592775041051 46.62068965517241 1.0   0.0 3  1.0 3  0.0 3  1.0 3 
9 0 0 0 0  2 2 3 3  2 2  14.51559934318555 46.62068965517241 -10.0  14.51559934318555 57.635467980295566 -10.0  14.51559934318555 68.65024630541872 -10.0   25.871921182266007 46.62068965517241 -10.0  25.871921182266007 57.635467980295566 -10.0  25.871921182266007 68.65024630541872 -10.0   37.228243021346465 46.62068965517241 -10.0  37.228243021346465 57.635467980295566 -10.0  37.228243021346465 68.65024630541872 -10.0   0.0 3  1.0 3  0.0 3  1.0 3 
9 0 0 0 0  2 2 3 3  2 2  14.51559934318555 67.79638752052544 -21.000000000000192  14.51559934318555 67.79638752052544 -15.000000000000085  14.51559934318555 67.79638752052544 -8.999999999999979   14.857142857142856 57.20853858784893 -21.000000000000192  14.857142857142856 57.208538587848935 -15.000000000000085  14.857142857142856 57.20853858784893 -8.999999999999979   15.198686371100163 46.62068965517241 -21.000000000000192  15.198686371100163 46.62068965517241 -15.000000000000085  15.198686371100163 46.62068965517241 -8.999999999999979   0.0 3  1.0 3  0.0 3  1.0 3 
9 0 0 0 0  2 2 3 3  2 2  15.198686371100163 46.62068965517241 -11.000000000000064  15.198686371100163 46.62068965517241 -5.000000000000032  15.198686371100163 46.62068965517241 1.0   25.957307060755333 46.62068965517241 -11.000000000000064  25.957307060755333 46.62068965517241 -5.000000000000032  25.957307060755333 46.62068965517241 1.0   36.71592775041051 46.62068965517241 -11.000000000000064  36.7159277504105 46.62068965517241 -5.000000000000032  36.7159277504105 46.62068965517241 1.0   0.0 3  1.0 3  0.0 3  1.0 3 
9 0 0 0 0  2 2 3 3  2 2  14.51559934318555 46.62068965517241 0.0  14.51559934318555 57.635467980295566 0.0  14.51559934318555 68.65024630541872 0.0   25.871921182266007 46.62068965517241 0.0  25.871921182266007 57.635467980295566 0.0  25.871921182266007 68.65024630541872 0.0   37.228243021346465 46.62068965517241 0.0  37.228243021346465 57.635467980295566 0.0  37.228243021346465 68.65024630541872 0.0   0.0 3  1.0 3  0.0 3  1.0 3 
9 0 0 0 0  2 2 3 3  2 2  15.198686371100163 46.62068965517241 -21.000000000000128  15.198686371100163 46.62068965517241 -15.000000000000046  15.198686371100163 46.62068965517241 -8.999999999999966   25.957307060755333 46.62068965517241 -21.000000000000128  25.957307060755333 46.62068965517241 -15.000000000000046  25.957307060755333 46.62068965517241 -8.999999999999964   36.71592775041051 46.62068965517241 -21.000000000000128  36.7159277504105 46.62068965517241 -15.000000000000046  36.7159277504105 46.62068965517241 -8.999999999999964   0.0 3  1.0 3  0.0 3  1.0 3 
9 0 0 0 0  2 2 3 3  2 2  36.71592775041051 46.62068965517241 -11.000000000000137  36.71592775041051 46.62068965517241 -5.000000000000068  36.71592775041051 46.62068965517241 1.0   36.972085385878486 57.635467980295566 -11.000000000000137  36.972085385878486 57.635467980295566 -5.000000000000068  36.972085385878486 57.635467980295566 1.0   37.228243021346465 68.65024630541872 -11.000000000000137  37.228243021346465 68.65024630541872 -5.000000000000068  37.228243021346465 68.65024630541872 1.0   0.0 3  1.0 3  0.0 3  1.0 3 
9 0 0 0 0  2 2 3 3  2 2  15.198686371100163 46.62068965517241 -21.000000000000167  15.198686371100163 46.62068965517241 -15.000000000000071  15.198686371100163 46.62068965517241 -8.999999999999977   26.213464696223312 57.635467980295566 -21.000000000000167  26.213464696223312 57.635467980295566 -15.000000000000073  26.213464696223312 57.635467980295566 -8.999999999999975   37.228243021346465 68.65024630541872 -21.000000000000167  37.22824302134646 68.65024630541872 -15.000000000000071  37.22824302134646 68.65024630541872 -8.999999999999975   0.0 3  1.0 3  0.0 3  1.0 3 
9 0 0 0 0  2 2 3 3  2 2  36.71592775041051 46.62068965517241 -21.000000000000274  36.71592775041051 46.62068965517241 -15.00000000000011  36.71592775041051 46.62068965517241 -8.999999999999948   36.972085385878486 57.635467980295566 -21.000000000000274  36.972085385878486 57.635467980295566 -15.000000000000112  36.972085385878486 57.635467980295566 -8.999999999999947   37.228243021346465 68.65024630541872 -21.000000000000274  37.228243021346465 68.65024630541872 -15.00000000000011  37.228243021346465 68.65024630541872 -8.999999999999947   0.0 3  1.0 3  0.0 3  1.0 3 
9 0 0 0 0  2 2 3 3  2 2  14.51559934318555 67.79638752052544 -21.000000000000146  14.51559934318555 67.79638752052544 -15.000000000000073  14.51559934318555 67.79638752052544 -9.0   25.871921182266007 68.22331691297208 -21.000000000000146  25.871921182266007 68.22331691297208 -15.000000000000073  25.871921182266007 68.22331691297208 -9.0   37.228243021346465 68.65024630541872 -21.000000000000146  37.228243021346465 68.65024630541872 -15.000000000000073  37.228243021346465 68.65024630541872 -9.0   0.0 3  1.0 3  0.0 3  1.0 3 
9 0 0 0 0  2 2 3 3  2 2  14.51559934318555 46.62068965517241 -20.0  14.51559934318555 57.635467980295566 -20.0  14.51559934318555 68.65024630541872 -20.0   25.871921182266007 46.62068965517241 -20.0  25.871921182266007 57.635467980295566 -20.0  25.871921182266007 68.65024630541872 -20.0   37.228243021346465 46.62068965517241 -20.0  37.228243021346465 57.635467980295566 -20.0  37.228243021346465 68.65024630541872 -20.0   0.0 3  1.0 3  0.0 3  1.0 3 
Triangulations 0

TShapes 84
Ve
0.001
14.51559934318555 67.79638752052544 -10.0 

0 0

0101000
*
Ve
0.001
14.51559934318555 67.79638752052544 0.0 

0 0

0101000
*
Ed
 0.001 1 1 0
1 1 0 0.0 1.0
1 2 0 0.0 1.0
2 1 1 0 0.0 1.0
1 3 0 0.0 1.0
2 2 2 0 0.0 1.0
1 4 0 0.0 1.0
2 3 3 0 0.0 1.0
0
0101000
+84 0 -83 0 *
Ve
0.001
15.198686371100163 46.62068965517241 -10.0 

0 0

0101000
*
Ed
 0.001 1 1 0
1 5 0 0.0 1.0
2 4 4 0 0.0 1.0
2 5 1 0 0.0 1.0
2 6 5 0 0.0 1.0
0
0101000
+84 0 -81 0 *
Ve
0.001
15.198686371100163 46.62068965517241 0.0 

0 0

0101000
*
Ed
 0.001 1 1 0
1 6 0 0.0 1.0
1 7 0 0.0 1.0
2 7 1 0 0.0 1.0
1 8 0 0.0 1.0
2 8 6 0 0.0 1.0
0
0101000
+81 0 -79 0 *
Ed
 0.001 1 1 0
1 9 0 0.0 1.0
2 9 7 0 0.0 1.0
2 10 1 0 0.0 1.0
0
0101000
+83 0 -79 0 *
Wi

0101100
-82 0 +80 0 +78 0 -77 0 *
Fa
0 0.001 1 0

0101000
+76 0 *
Ve
0.001
36.71592775041051 46.62068965517241 -10.0 

0 0

0101000
*
Ed
 0.001 1 1 0
1 10 0 0.0 1.0
2 11 4 0 0.0 1.0
2 12 6 0 0.0 1.0
2 13 8 0 0.0 1.0
0
0101000
+81 0 -74 0 *
Ve
0.001
36.71592775041051 46.62068965517241 0.0 

0 0

0101000
*
Ed
 0.001 1 1 0
1 11 0 0.0 1.0
1 12 0 0.0 1.0
2 14 6 0 0.0 1.0
1 13 0 0.0 1.0
2 15 9 0 0.0 1.0
1 14 0 0.0 1.0
2 16 3 0 0.0 1.0
0
0101000
+74 0 -72 0 *
Ed
 0.001 1 1 0
1 15 0 0.0 1.0
2 17 7 0 0.0 1.0
2 18 6 0 0.0 1.0
0
0101000
+79 0 -72 0 *
Wi

0101100
-78 0 +73 0 +71 0 -70 0 *
Fa
0 0.001 6 0

0101000
+69 0 *
Ve
0.001
25.703166414543006 57.12516969861526 -10.0 

0 0

0101000
*
Ed
 0.001 1 1 0
1 16 0 0.0 1.0
2 19 4 0 0.0 1.0
2 20 3 0 0.0 1.0
0
0101000
+84 0 -67 0 *
Ed
 0.001 1 1 0
1 17 0 0.0 1.0
2 21 4 0 0.0 1.0
2 22 3 0 0.0 1.0
0
0101000
+67 0 -74 0 *
Ed
 0.001 1 1 0
1 18 0 0.0 1.0
2 23 7 0 0.0 1.0
2 24 3 0 0.0 1.0
0
0101000
+83 0 -72 0 *
Wi

0101100
-82 0 +66 0 +65 0 +71 0 -64 0 *
Fa
0 0.001 3 0

0101000
+63 0 *
Wi

0101100
+77 0 +70 0 -64 0 *
Fa
0 0.001 7 0

0101000
+61 0 *
Ed
 0.001 1 1 0
1 19 0 0.0 1.0
2 25 4 0 0.0 1.0
2 26 10 0 0.0 1.0
0
0101000
+81 0 -67 0 *
Wi

0101100
-59 0 +73 0 -65 0 *
Fa
0 0.001 4 0

0101000
+58 0 *
Wi

0101100
+59 0 -66 0 +80 0 *
Fa
0 0.001 4 0

0101000
+56 0 *
Sh

0101000
+75 0 +68 0 -62 0 +60 0 -57 0 -55 0 *
So

1100000
+54 0 *
Ve
0.001
37.228243021346465 68.65024630541872 -10.0 

0 0

0101000
*
Ed
 0.001 1 1 0
1 20 0 0.0 1.0
2 27 4 0 0.0 1.0
2 28 9 0 0.0 1.0
2 29 11 0 0.0 1.0
0
0101000
+74 0 -52 0 *
Ve
0.001
37.228243021346465 68.65024630541872 0.0 

0 0

0101000
*
Ed
 0.001 1 1 0
1 21 0 0.0 1.0
1 22 0 0.0 1.0
2 30 9 0 0.0 1.0
1 23 0 0.0 1.0
2 31 2 0 0.0 1.0
0
0101000
+52 0 -50 0 *
Ed
 0.001 1 1 0
1 24 0 0.0 1.0
2 32 7 0 0.0 1.0
2 33 9 0 0.0 1.0
0
0101000
+72 0 -50 0 *
Wi

0101100
-71 0 +51 0 +49 0 -48 0 *
Fa
0 0.001 9 0

0101000
+47 0 *
Ed
 0.001 1 1 0
1 25 0 0.0 1.0
2 34 4 0 0.0 1.0
2 35 2 0 0.0 1.0
2 36 12 0 0.0 1.0
0
0101000
+84 0 -52 0 *
Ed
 0.001 1 1 0
1 26 0 0.0 1.0
2 37 7 0 0.0 1.0
2 38 2 0 0.0 1.0
0
0101000
+83 0 -50 0 *
Wi

0101100
-82 0 +45 0 +49 0 -44 0 *
Fa
0 0.001 2 0

0101000
+43 0 *
Wi

0101100
+48 0 -44 0 +64 0 *
Fa
0 0.001 7 0

0101000
+41 0 *
Ed
 0.001 1 1 0
1 27 0 0.0 1.0
2 39 4 0 0.0 1.0
2 40 10 0 0.0 1.0
0
0101000
+67 0 -52 0 *
Wi

0101100
-39 0 +65 0 +51 0 *
Fa
0 0.001 4 0

0101000
+38 0 *
Wi

0101100
+39 0 -45 0 +66 0 *
Fa
0 0.001 4 0

0101000
+36 0 *
Sh

0101000
+46 0 -42 0 +62 0 +40 0 -37 0 -35 0 *
So

1100000
+34 0 *
Ve
0.001
15.198686371100163 46.62068965517241 -20.0 

0 0

0101000
*
Ed
 0.001 1 1 0
1 28 0 0.0 1.0
1 29 0 0.0 1.0
2 41 5 0 0.0 1.0
1 30 0 0.0 1.0
2 42 8 0 0.0 1.0
1 31 0 0.0 1.0
2 43 10 0 0.0 1.0
0
0101000
+32 0 -81 0 *
Ve
0.001
36.71592775041051 46.62068965517241 -20.0 

0 0

0101000
*
Ed
 0.001 1 1 0
1 32 0 0.0 1.0
2 44 13 0 0.0 1.0
2 45 8 0 0.0 1.0
0
0101000
+32 0 -30 0 *
Ed
 0.001 1 1 0
1 33 0 0.0 1.0
1 34 0 0.0 1.0
2 46 8 0 0.0 1.0
1 35 0 0.0 1.0
2 47 11 0 0.0 1.0
0
0101000
+30 0 -74 0 *
Wi

0101100
-31 0 +29 0 +28 0 -73 0 *
Fa
0 0.001 8 0

0101000
+27 0 *
Ve
0.001
37.228243021346465 68.65024630541872 -20.0 

0 0

0101000
*
Ed
 0.001 1 1 0
1 36 0 0.0 1.0
2 48 13 0 0.0 1.0
2 49 11 0 0.0 1.0
0
0101000
+30 0 -25 0 *
Ed
 0.001 1 1 0
1 37 0 0.0 1.0
1 38 0 0.0 1.0
2 50 11 0 0.0 1.0
1 39 0 0.0 1.0
2 51 12 0 0.0 1.0
1 40 0 0.0 1.0
2 52 10 0 0.0 1.0
0
0101000
+25 0 -52 0 *
Wi

0101100
-28 0 +24 0 +23 0 -51 0 *
Fa
0 0.001 11 0

0101000
+22 0 *
Ed
 0.001 1 1 0
1 41 0 0.0 1.0
2 53 13 0 0.0 1.0
2 54 10 0 0.0 1.0
0
0101000
+32 0 -25 0 *
Wi

0101100
-31 0 +20 0 +23 0 -39 0 -59 0 *
Fa
0 0.001 10 0

0101000
+19 0 *
Wi

0101100
+29 0 +24 0 -20 0 *
Fa
0 0.001 13 0

0101000
+17 0 *
Sh

0101000
+26 0 +21 0 -18 0 +57 0 +37 0 -16 0 *
So

1100000
+15 0 *
Ve
0.001
14.51559934318555 67.79638752052544 -20.0 

0 0

0101000
*
Ed
 0.001 1 1 0
1 42 0 0.0 1.0
1 43 0 0.0 1.0
2 55 5 0 0.0 1.0
1 44 0 0.0 1.0
2 56 12 0 0.0 1.0
0
0101000
+13 0 -84 0 *
Ed
 0.001 1 1 0
1 45 0 0.0 1.0
2 57 13 0 0.0 1.0
2 58 12 0 0.0 1.0
0
0101000
+13 0 -25 0 *
Wi

0101100
-12 0 +11 0 +23 0 -45 0 *
Fa
0 0.001 12 0

0101000
+10 0 *
Ed
 0.001 1 1 0
1 46 0 0.0 1.0
2 59 13 0 0.0 1.0
2 60 5 0 0.0 1.0
0
0101000
+13 0 -32 0 *
Wi

0101100
-12 0 +8 0 +31 0 -80 0 *
Fa
0 0.001 5 0

0101000
+7 0 *
Wi

0101100
-11 0 +8 0 +20 0 *
Fa
0 0.001 13 0

0101000
+5 0 *
Sh

0101000
-9 0 +6 0 +18 0 +55 0 +35 0 -4 0 *
So

1100000
+3 0 *
Co

1100000
+53 0 +33 0 +14 0 +2 0 *

+1 0