DBRep_DrawableShape

CASCADE Topology V1, (c) Matra-Datavision
Locations 0
Curve2ds 18
1 0 -0 1 0 
1 0 -1 1 0 
1 0 -0 0 -1 
1 0 0 0 1 
1 0 -1 1 0 
1 0 0 0 1 
1 1 0 0 -1 
1 0 0 0 1 
1 0 0 1 0 
1 0 1 0.70710678118654757 -0.70710678118654757 
1 1.4142135623730951 0 0 1 
1 0 0 1 0 
1 0 1 1 0 
1 0 1 0.70710678118654757 -0.70710678118654757 
1 0 0 0 -1 
1 1 0 -1 0 
1 1 0 0 -1 
1 1 0 -1 0 
Curves 9
1 0 0 1 0 0 -1 
1 0 0 1 0 1 0 
1 0 1 1 0 0 -1 
1 0 0 0 0 1 0 
1 0 1 1 0.70710678118654746 -0.70710678118654746 0 
1 1 0 1 0 0 -1 
1 0 1 0 0.70710678118654746 -0.70710678118654746 0 
1 1 0 1 -1 0 0 
1 1 0 0 -1 0 0 
Polygon3D 0
PolygonOnTriangulations 0
Surfaces 5
1 0 0 1 -1 0 0 0 0 -1 -0 -1 -0 
1 1 0 1 -0 -1 -0 0 0 -1 1 -0 0 
1 0 0 1 0 0 1 1 0 -0 -0 1 0 
1 0 1 1 0.70710678118654746 0.70710678118654746 0 0.70710678118654757 -0.70710678118654757 0 0 0 -1 
1 0 0 0 0 0 1 1 0 -0 -0 1 0 
Triangulations 0

TShapes 28
Ve
3e-07
0 0 1
0 0

0101101
*
Ve
2e-07
0 0 0
0 0

0101101
*
Ed
 1e-07 1 1 0
1  1 0 0 1
2  1 1 0 0 1
2  2 2 0 0 1
0

0101000
+28 0 -27 0 *
Ve
2e-07
0 1 1
0 0

0101101
*
Ed
 1e-07 1 1 0
1  2 0 0 1
2  3 1 0 0 1
2  4 3 0 0 1
0

0101000
+28 0 -25 0 *
Ve
2e-07
0 1 0
0 0

0101101
*
Ed
 1e-07 1 1 0
1  3 0 0 1
2  5 1 0 0 1
2  6 4 0 0 1
0

0101000
+25 0 -23 0 *
Ed
 1e-07 1 1 0
1  4 0 0 1
2  7 1 0 0 1
2  8 5 0 0 1
0

0101000
+27 0 -23 0 *
Wi

0101100
+26 0 -24 0 -22 0 +21 0 *
Fa
0  1e-07 1 0

0101000
-20 0 *
Ve
2e-07
1 0 1
0 0

0101101
*
Ed
 1e-07 1 1 0
1  5 0 0 1.4142135623731
2  9 4 0 0 1.4142135623731
2  10 3 0 0 1.4142135623731
0

0101000
+25 0 -18 0 *
Ve
2e-07
1 0 0
0 0

0101101
*
Ed
 1e-07 1 1 0
1  6 0 0 1
2  11 4 0 0 1
2  12 2 0 0 1
0

0101000
+18 0 -16 0 *
Ed
 1e-07 1 1 0
1  7 0 0 1.4142135623731
2  13 4 0 0 1.4142135623731
2  14 5 0 0 1.4142135623731
0

0101000
+23 0 -16 0 *
Wi

0101100
+22 0 -17 0 -15 0 +14 0 *
Fa
0  1e-07 4 0

0101000
-13 0 *
Ed
 1e-07 1 1 0
1  8 0 0 1
2  15 2 0 0 1
2  16 3 0 0 1
0

0101000
+18 0 -28 0 *
Ed
 1e-07 1 1 0
1  9 0 0 1
2  17 2 0 0 1
2  18 5 0 0 1
0

0101000
+16 0 -27 0 *
Wi

0101100
+15 0 -11 0 -26 0 +10 0 *
Fa
0  1e-07 2 0

0101000
-9 0 *
Wi

0101100
+24 0 +17 0 +11 0 *
Fa
0  1e-07 3 0

0101000
-7 0 *
Wi

0101100
+21 0 +14 0 +10 0 *
Fa
0  1e-07 5 0

0101000
-5 0 *
Sh

0101100
+19 0 +12 0 +8 0 +6 0 -4 0 *
So

0100000
+3 0 *
Co

1100000
+2 0 *

+1 0 