DBRep_DrawableShape

CASCADE Topology V1, (c) Matra-Datavision
Locations 0
Curve2ds 40
1 0 0 -1 0 
1 0 1 -1 0 
1 0 0 0 1 
1 0 0 -1 0 
1 0 1 -1 0 
1 0 0 0 1 
1 -1 0 0 1 
1 0 0 -1 0 
1 0 0 1 0 
1 -1 0 0.70710678118654757 0.70710678118654757 
1 1.4142135623730951 0 0 1 
1 0 0 -1 0 
1 0 1 1 0 
1 -1 0 0.70710678118654757 0.70710678118654757 
1 0 0 0 1 
1 0 1 -0 -1 
1 -1 0 0 1 
1 0 1 -0 -1 
1 0.70710678118654746 0.50000000000000011 -1 -5.981554752636505e-33 
1 0 0 -0.70710678118654757 0.70710678118654757 
1 -0.70710678118654757 0.50000000000000011 0 -1 
1 0 0 0 1 
1 0.70710678118654746 -0.49999999999999989 -1 -5.981554752636505e-33 
1 0 0 -0.70710678118654757 0.70710678118654757 
1 0 0 1 0 
1 -1 1 0.70710678118654757 0.70710678118654757 
1 1.4142135623730951 0 0 1 
1 0.70710678118654757 -0.50000000000000011 0 1 
1 0 1 1 0 
1 -1 1 0.70710678118654757 0.70710678118654757 
1 0.70710678118654757 -0.50000000000000011 -1 0 
1 0 2 0.70710678118654757 -0.70710678118654757 
1 -0.70710678118654757 -0.50000000000000011 0 1 
1 1.4142135623730951 0 0 1 
1 0.70710678118654768 0.49999999999999989 -1 0 
1 0 2 0.70710678118654757 -0.70710678118654757 
1 0 0 1 0 
1 0 0 0.70710678118654757 0.70710678118654757 
1 0 1 1 0 
1 0 0 0.70710678118654757 0.70710678118654757 
Curves 17
1 0 0 1 0 0 -1 
1 0 0 1 1 0 0 
1 1 0 1 0 0 -1 
1 0 0 0 1 0 0 
1 1 0 1 -0.70710678118654746 0.70710678118654746 0 
1 0 1 1 0 0 -1 
1 1 0 0 -0.70710678118654746 0.70710678118654746 0 
1 0 1 1 0 -1 0 
1 0 1 0 0 -1 0 
1 1 0 1 0.70710678118654746 0.70710678118654746 0 
1 2 1 1 0 0 -1 
1 1 0 0 0.70710678118654746 0.70710678118654746 0 
1 2 1 1 -0.70710678118654746 0.70710678118654746 0 
1 1 2 1 0 0 -1 
1 2 1 0 -0.70710678118654746 0.70710678118654746 0 
1 1 2 1 -0.70710678118654746 -0.70710678118654746 0 
1 1 2 0 -0.70710678118654746 -0.70710678118654746 0 
Polygon3D 0
PolygonOnTriangulations 0
Surfaces 10
1 0 0 1 -0 1 0 0 0 1 1 0 -0 
1 0 1 1 1 0 0 -0 0 1 0 -1 0 
1 0 0 1 0 0 -1 -1 0 -0 0 1 0 
1 1 0 1 -0.70710678118654746 -0.70710678118654746 -0 -0.70710678118654757 0.70710678118654757 0 0 0 -1 
1 0 0 0 0 0 -1 -1 0 -0 0 1 0 
1 1.5 0.49999999999999989 0.49999999999999989 -0.70710678118654757 0.70710678118654746 -2.7592166043517123e-16 -0.70710678118654746 -0.70710678118654757 0 -1.951060771699615e-16 1.9510607716996147e-16 1 
1 1 0 1 0 0 -1 -1 0 -0 0 1 0 
1 2 1 1 -0.70710678118654746 -0.70710678118654746 -0 -0.70710678118654757 0.70710678118654757 0 0 0 -1 
1 1 0 0 0 0 -1 -1 0 -0 0 1 0 
1 0.49999999999999989 1.5 0.49999999999999989 -0.70710678118654746 0.70710678118654746 -1.8394777362344745e-16 0.70710678118654757 0.70710678118654757 0 1.3007071811330763e-16 -1.3007071811330763e-16 -1 
Triangulations 0

TShapes 62
Ve
3e-07
0 0 1
0 0

0101101
*
Ve
2e-07
0 0 0
0 0

0101101
*
Ed
 1e-07 1 1 0
1  1 0 0 1
2  1 1 0 0 1
2  2 2 0 0 1
0

0101000
+62 0 -61 0 *
Ve
2e-07
1 0 1
0 0

0101101
*
Ed
 1e-07 1 1 0
1  2 0 0 1
2  3 1 0 0 1
2  4 3 0 0 1
0

0101000
+62 0 -59 0 *
Ve
2e-07
1 0 0
0 0

0101101
*
Ed
 1e-07 1 1 0
1  3 0 0 1
2  5 1 0 0 1
2  6 4 0 0 1
0

0101000
+59 0 -57 0 *
Ed
 1e-07 1 1 0
1  4 0 0 1
2  7 1 0 0 1
2  8 5 0 0 1
0

0101000
+61 0 -57 0 *
Wi

0101100
+60 0 -58 0 -56 0 +55 0 *
Fa
0  1e-07 1 0

0101000
-54 0 *
Ve
2e-07
0 1 1
0 0

0101101
*
Ed
 1e-07 1 1 0
1  5 0 0 1.4142135623731
2  9 4 0 0 1.4142135623731
2  10 3 0 0 1.4142135623731
0

0101000
+59 0 -52 0 *
Ve
2e-07
0 1 0
0 0

0101101
*
Ed
 1e-07 1 1 0
1  6 0 0 1
2  11 4 0 0 1
2  12 2 0 0 1
0

0101000
+52 0 -50 0 *
Ed
 1e-07 1 1 0
1  7 0 0 1.4142135623731
2  13 4 0 0 1.4142135623731
2  14 5 0 0 1.4142135623731
0

0101000
+57 0 -50 0 *
Wi

0101100
+56 0 -51 0 -49 0 +48 0 *
Fa
0  1e-07 4 0

0101000
-47 0 *
Ed
 1e-07 1 1 0
1  8 0 0 1
2  15 2 0 0 1
2  16 3 0 0 1
0

0101000
+52 0 -62 0 *
Ed
 1e-07 1 1 0
1  9 0 0 1
2  17 2 0 0 1
2  18 5 0 0 1
0

0101000
+50 0 -61 0 *
Wi

0101100
+49 0 -45 0 -60 0 +44 0 *
Fa
0  1e-07 2 0

0101000
-43 0 *
Wi

0101100
+58 0 +51 0 +45 0 *
Fa
0  1e-07 3 0

0101000
-41 0 *
Wi

0101100
+55 0 +48 0 +44 0 *
Fa
0  1e-07 5 0

0101000
-39 0 *
Sh

0101100
+53 0 +46 0 +42 0 +40 0 -38 0 *
So

0100000
+37 0 *
Ve
2e-07
1 0 1
0 0

0101101
*
Ve
2e-07
1 0 0
0 0

0101101
*
Ed
 1e-07 1 1 0
1  3 0 0 1
0

0101000
+35 0 -34 0 *
Ve
2e-07
2 1 1
0 0

0101101
*
Ed
 1e-07 1 1 0
1  10 0 0 1.4142135623731
2  19 6 0 0 1.4142135623731
2  20 7 0 0 1.4142135623731
0

0101000
+35 0 -32 0 *
Ve
2e-07
2 1 0
0 0

0101101
*
Ed
 1e-07 1 1 0
1  11 0 0 1
2  21 6 0 0 1
2  22 8 0 0 1
0

0101000
+32 0 -30 0 *
Ed
 1e-07 1 1 0
1  12 0 0 1.4142135623731
2  23 6 0 0 1.4142135623731
2  24 9 0 0 1.4142135623731
0

0101000
+34 0 -30 0 *
Wi

0101100
+33 0 -31 0 -29 0 +28 0 *
Fa
0  1e-07 6 0

0101000
-27 0 *
Ve
2e-07
1 2 1
0 0

0101101
*
Ed
 1e-07 1 1 0
1  13 0 0 1.4142135623731
2  25 8 0 0 1.4142135623731
2  26 7 0 0 1.4142135623731
0

0101000
+32 0 -25 0 *
Ve
2e-07
1 2 0
0 0

0101101
*
Ed
 1e-07 1 1 0
1  14 0 0 1
2  27 8 0 0 1
2  28 10 0 0 1
0

0101000
+25 0 -23 0 *
Ed
 1e-07 1 1 0
1  15 0 0 1.4142135623731
2  29 8 0 0 1.4142135623731
2  30 9 0 0 1.4142135623731
0

0101000
+30 0 -23 0 *
Wi

0101100
+29 0 -24 0 -22 0 +21 0 *
Fa
0  1e-07 8 0

0101000
-20 0 *
Ve
2e-07
0 1 1
0 0

0101101
*
Ed
 1e-07 1 1 0
1  16 0 0 1.4142135623731
2  31 10 0 0 1.4142135623731
2  32 7 0 0 1.4142135623731
0

0101000
+25 0 -18 0 *
Ve
2e-07
0 1 0
0 0

0101101
*
Ed
 1e-07 1 1 0
1  6 0 0 1
2  33 10 0 0 1
2  34 4 0 0 1
0

0101000
+18 0 -16 0 *
Ed
 1e-07 1 1 0
1  17 0 0 1.4142135623731
2  35 10 0 0 1.4142135623731
2  36 9 0 0 1.4142135623731
0

0101000
+23 0 -16 0 *
Wi

0101100
+22 0 -17 0 -15 0 +14 0 *
Fa
0  1e-07 10 0

0101000
+13 0 *
Ed
 1e-07 1 1 0
1  5 0 0 1.4142135623731
2  37 4 0 0 1.4142135623731
2  38 7 0 0 1.4142135623731
0

0101000
+35 0 -18 0 *
Ed
 1e-07 1 1 0
1  7 0 0 1.4142135623731
2  39 4 0 0 1.4142135623731
2  40 9 0 0 1.4142135623731
0

0101000
+34 0 -16 0 *
Wi

0101100
+33 0 -11 0 -15 0 +10 0 *
Fa
0  1e-07 4 0

0101000
-9 0 *
Wi

0101100
+31 0 +24 0 +17 0 -11 0 *
Fa
0  1e-07 7 0

0101000
-7 0 *
Wi

0101100
+28 0 +21 0 +14 0 -10 0 *
Fa
0  1e-07 9 0

0101000
-5 0 *
Sh

0101100
+26 0 +19 0 -12 0 -8 0 +6 0 -4 0 *
So

0100000
+3 0 *
Co

1100000
+36 0 +2 0 *

+1 0 