<?xml version="1.0" encoding="UTF-8" standalone="no"?>
<!-- Generator: Adobe Illustrator 21.1.0, SVG Export Plug-In . SVG Version: 6.00 Build 0)  -->

<svg
   xmlns:dc="http://purl.org/dc/elements/1.1/"
   xmlns:cc="http://creativecommons.org/ns#"
   xmlns:rdf="http://www.w3.org/1999/02/22-rdf-syntax-ns#"
   xmlns:svg="http://www.w3.org/2000/svg"
   xmlns="http://www.w3.org/2000/svg"
   xmlns:sodipodi="http://sodipodi.sourceforge.net/DTD/sodipodi-0.dtd"
   xmlns:inkscape="http://www.inkscape.org/namespaces/inkscape"
   version="1.1"
   id="Vrstva_1"
   x="0px"
   y="0px"
   viewBox="0 0 125.99582 125.99582"
   xml:space="preserve"
   sodipodi:docname="geomop-color-ICON.svg"
   inkscape:version="0.92.3 (2405546, 2018-03-11)"
   width="125.99582"
   height="125.99582"><metadata
   id="metadata39"><rdf:RDF><cc:Work
       rdf:about=""><dc:format>image/svg+xml</dc:format><dc:type
         rdf:resource="http://purl.org/dc/dcmitype/StillImage" /><dc:title></dc:title></cc:Work></rdf:RDF></metadata><defs
   id="defs37" /><sodipodi:namedview
   pagecolor="#ffffff"
   bordercolor="#666666"
   borderopacity="1"
   objecttolerance="10"
   gridtolerance="10"
   guidetolerance="10"
   inkscape:pageopacity="0"
   inkscape:pageshadow="2"
   inkscape:window-width="732"
   inkscape:window-height="480"
   id="namedview35"
   showgrid="false"
   inkscape:zoom="0.39643878"
   inkscape:cx="207.45479"
   inkscape:cy="64.936792"
   inkscape:window-x="0"
   inkscape:window-y="0"
   inkscape:window-maximized="0"
   inkscape:current-layer="Vrstva_1"
   fit-margin-top="0"
   fit-margin-left="0"
   fit-margin-right="0"
   fit-margin-bottom="0" />
<style
   type="text/css"
   id="style2">
	.st0{fill:#EF7D00;}
	.st1{fill:#4A4A49;}
	.st2{fill:#FFFFFF;}
</style>






<circle
   transform="rotate(-2.5197144)"
   class="st1"
   cx="60.167416"
   cy="65.706589"
   id="ellipse16"
   r="62.99791"
   style="fill:#4a4a49;stroke-width:0.9999668" />
<g
   id="g20"
   transform="translate(-90.195207,-236.59097)">
	<path
   class="st2"
   d="m 188,321.4 21.9,-38 c -3.9,0.7 -8.3,1.3 -13.2,1.5 -6.2,0.3 -13.2,0 -20.9,-1.1 z"
   id="path18"
   inkscape:connector-curvature="0"
   style="fill:#ffffff" />
</g>
<g
   id="g24"
   transform="translate(-90.195207,-236.59097)">
	<path
   class="st0"
   d="m 168.8,282.6 c -4.2,-0.8 -8.5,-1.9 -13,-3.2 -24.2,-7.2 -47.2,-4.8 -61.6,-1.8 -2.9,7.8 -4.3,16.1 -3.9,24.8 0.2,4.5 0.9,8.9 2,13.1 12.8,-3.2 34.5,-6.5 58.7,-1.8 z"
   id="path22"
   inkscape:connector-curvature="0"
   style="fill:#ef7d00" />
</g>
<g
   id="g28"
   transform="translate(-90.195207,-236.59097)">
	<path
   class="st2"
   d="m 172.3,283.3 c -0.1,0 -0.2,0 -0.2,0 l -18,31.2 c 2.7,0.6 5.5,1.3 8.2,2.1 8.1,2.4 15.5,3.8 22.3,4.6 z"
   id="path26"
   inkscape:connector-curvature="0"
   style="fill:#ffffff" />
</g>
<g
   id="g32"
   transform="translate(-90.195207,-236.59097)">
	<path
   class="st0"
   d="m 216.1,297 c -0.2,-5 -1,-9.8 -2.3,-14.5 0,0 0,0 0,0 l -22.2,39.1 c 8.8,0.4 15,-0.4 21.2,-1.7 2.4,-7.1 3.7,-14.8 3.3,-22.9 z"
   id="path30"
   inkscape:connector-curvature="0"
   style="fill:#ef7d00" />
</g>
</svg>